<svg xmlns="http://www.w3.org/2000/svg" width="48.032" height="48.835" viewBox="0 0 48.032 48.835" fill="none">
  <path d="M 22.619 43.833 C 22.091 44.678 21.53 45.421 21.087 46.289 C 20.968 46.523 20.911 46.85 20.821 47.097 L 20.33 48.447 C 20.211 48.772 19.786 48.946 19.536 48.757 C 19.446 48.663 19.424 48.351 19.457 48.218 C 19.668 47.363 19.846 46.553 20.098 45.724 C 20.302 45.052 20.425 44.423 20.449 43.718 C 20.479 42.849 20.537 42.004 20.452 41.136 C 20.394 40.544 20.407 39.946 20.247 39.366 C 19.997 38.458 19.671 37.611 19.367 36.717 C 19.181 36.168 18.8 35.736 18.539 35.228 C 17.878 33.943 16.991 32.892 15.871 31.979 C 15.051 31.309 14.174 30.931 13.121 30.768 C 12.491 30.671 11.916 30.567 11.263 30.667 C 8.923 31.028 9.661 31.236 8.002 31.598 C 7.449 31.719 7.005 31.666 6.486 31.395 L 5.088 31.494 C 4.563 31.532 4.108 31.064 3.854 30.624 L 3.244 29.565 C 3.183 29.459 2.937 29.372 2.836 29.331 C 1.936 28.971 1.185 28.215 1.058 27.218 C 1.01 26.843 1.078 26.446 1.071 26.058 C 0.34 25.389 0.001 24.516 0.003 23.535 C 0.003 22.985 -0.049 22.408 0.304 21.937 C 0.4 21.808 0.738 22.054 0.766 22.213 C 0.906 23.003 1.313 23.59 1.895 24.139 C 2.399 24.615 3.04 24.882 3.732 25.011 C 4.616 25.175 4.66 25.487 5.42 25.439 L 6.714 25.357 C 7.851 25.286 8.893 25.551 9.582 26.485 C 9.742 26.704 10.151 26.63 10.401 26.671 C 11.544 26.855 12.283 27.972 13.122 28.65 C 14.027 29.38 15.554 30.36 16.277 31.164 C 16.747 31.688 17.199 32.189 17.604 32.76 C 17.775 33 17.911 33.207 18.205 33.368 C 18.064 32.984 17.9 32.737 17.748 32.414 C 17.428 31.735 17.005 31.144 16.528 30.564 L 15.752 29.623 C 15.392 29.186 15.002 28.809 14.59 28.416 L 12.532 26.453 C 12.025 25.97 11.246 25.808 10.686 25.382 C 10.251 25.051 9.804 24.855 9.291 24.722 L 7.128 24.16 C 6.871 24.093 6.624 23.999 6.404 23.858 C 5.375 23.197 4.142 23.015 3.435 21.779 C 3.127 21.24 3.196 20.604 3.297 20.013 L 2.431 18.964 C 1.341 17.644 2.099 17.206 2.195 15.838 C 2.258 14.929 1.676 14.211 2.353 12.913 C 2.525 12.583 3.085 11.5 3.422 11.488 C 3.714 11.477 3.427 12.473 3.652 13.382 C 4.131 15.311 4.906 14.833 5.265 15.653 C 6.047 17.441 7.669 16.131 8.58 17.799 C 9.093 18.739 9.745 17.994 10.791 19.889 C 11.733 21.595 11.451 22.199 12.037 23.561 C 12.315 24.208 12.718 24.767 13.088 25.356 C 13.333 25.748 13.529 26.172 13.849 26.502 L 15.696 28.394 C 16.152 28.863 16.549 29.363 16.95 29.872 C 18.909 32.357 20.198 35.342 20.832 38.434 C 20.997 39.236 21.232 39.998 21.334 40.797 L 21.615 40.889 C 21.672 40.908 21.719 40.709 21.721 40.647 L 21.796 38.342 C 21.822 37.555 21.69 36.793 21.62 36.024 L 21.535 35.072 C 21.446 34.087 20.957 32.409 20.217 31.645 L 18.875 30.26 C 17.908 29.262 17.865 27.095 18.234 26.891 C 18.804 26.575 19.387 27.61 19.785 28.068 C 19.871 27.576 19.545 27.174 19.238 26.835 C 18.7 26.24 18.095 25.83 17.346 25.529 C 16.637 25.243 15.951 24.807 15.406 24.257 C 14.927 23.772 14.607 23.138 14.345 22.52 C 14.124 21.996 14.418 21.318 14.985 21.225 C 15.357 21.163 16.118 21.712 16.07 21.481 L 16.033 21.309 C 14.866 20.355 12.971 19.992 12.049 18.886 C 11.703 18.471 11.496 17.973 11.25 17.49 C 11.142 17.277 11.13 17.046 11.224 16.853 C 11.323 16.647 11.551 16.458 11.797 16.536 L 12.544 16.769 C 12.422 15.921 10.579 15.825 9.757 14.976 C 8.974 14.167 7.598 11.823 8.271 10.777 C 8.58 10.297 9.059 11.351 9.277 11.252 C 9.415 10.787 9.174 10.385 8.851 10.09 C 8.109 9.411 8.158 8.595 8.199 7.715 C 8.318 5.173 9.234 5.912 10.021 4.472 C 10.296 3.968 10.609 3.375 11.145 3.148 L 11.966 2.8 C 12.607 2.527 14.125 1.281 15.846 2.684 C 16.058 2.856 16.352 3.104 16.313 3.405 C 16.296 3.535 15.993 3.687 15.866 3.678 L 14.474 3.586 C 14.249 3.571 13.766 3.614 13.589 3.749 L 12.732 4.402 C 12.038 4.932 11.953 6.079 11.942 6.9 C 11.939 7.168 12.036 7.424 12.206 7.622 C 12.876 8.405 12.646 9.347 13.005 9.761 C 13.658 10.514 14.856 11.043 15.153 12.391 C 15.309 13.106 16.109 12.339 17.278 13.737 C 17.731 14.278 18.149 14.809 18.531 15.402 C 19.021 16.164 19.206 15.271 20.195 15.99 C 20.923 16.52 21.622 17.096 22.009 17.931 L 22.659 19.328 C 23.063 20.197 22.728 21.935 23.19 22.234 L 23.433 21.04 C 23.445 20.978 23.505 20.861 23.55 20.823 C 23.607 20.776 23.807 20.782 23.891 20.822 C 24.584 21.154 24.906 21.933 25.108 22.621 C 25.417 23.673 25.445 24.592 25.31 25.678 L 25.051 27.768 C 24.989 28.27 25.501 27.992 25.635 28.649 C 25.731 29.12 25.689 29.58 25.594 30.055 C 25.476 30.645 25.482 31.261 25.334 31.847 C 25.11 32.727 24.818 33.549 24.569 34.415 L 23.764 37.227 C 23.474 38.237 23.141 39.199 22.763 40.181 C 22.383 41.173 22.117 42.158 21.966 43.217 C 22.294 43.124 22.356 42.843 22.492 42.592 C 23.025 41.615 23.384 41.226 23.818 40.235 C 24.075 39.65 24.451 39.159 24.764 38.592 C 25.703 36.886 26.409 35.098 26.952 33.229 C 27.123 32.639 27.203 32.083 27.269 31.487 C 27.318 31.046 27.423 30.601 27.434 30.152 L 27.53 26.427 C 27.535 26.249 27.773 26.015 27.912 25.984 C 28.081 25.948 28.375 26.092 28.457 26.267 L 28.74 26.866 C 29.114 26.581 27.916 25.13 27.707 24.921 C 27.326 24.539 26.84 24.198 26.739 23.624 C 26.601 22.843 26.498 22.09 26.42 21.278 C 26.38 20.864 26.892 20.406 27.293 20.47 C 27.761 20.545 28.007 20.94 28.377 21.231 C 28.299 21.071 28.152 20.791 28.002 20.67 C 26.97 19.838 25.926 20.456 25.507 19.246 C 24.941 17.614 24.539 17.648 24.206 15.919 C 24.14 15.571 24.061 15.25 24.109 14.874 C 24.131 14.701 24.407 14.533 24.564 14.51 C 25.135 14.428 25.214 15.258 25.824 15.324 C 25.679 14.465 24.762 13.99 23.941 14.306 C 23.709 14.396 23.3 14.334 23.143 14.146 C 22.604 13.495 22.004 13.025 21.285 12.594 C 20.984 12.414 20.699 12.066 20.86 11.695 C 20.946 11.497 21.217 11.34 21.43 11.233 L 21.456 11.118 C 21.018 10.925 20.8 11.151 20.49 11.349 C 19.977 11.678 19.278 11.591 18.706 11.361 C 17.755 10.977 16.884 9.993 16.457 9.082 C 16.282 8.708 16.19 8.232 16.153 7.819 C 16.042 6.6 16.566 5.25 17.191 4.215 C 17.497 3.708 18.972 2.537 19.5 2.516 C 20.008 2.497 20.697 2.505 21.162 2.755 C 21.789 3.092 22.065 3.958 22.034 4.615 C 22.017 4.972 21.692 5.179 21.444 5.346 C 21.139 5.551 20.656 5.569 20.463 5.227 C 20.161 4.692 21.291 4.659 21.058 4.199 C 20.956 3.998 20.707 3.736 20.518 3.642 C 19.906 3.597 19.426 3.942 19.051 4.362 C 18.732 4.719 18.707 5.072 18.748 5.511 C 18.804 6.11 19.014 6.534 19.44 6.934 C 19.79 7.264 20.075 7.602 20.643 7.58 C 21.582 7.544 21.621 8.377 22.924 8.034 C 23.456 7.894 24.056 7.679 24.612 7.748 C 25.596 7.873 26.391 8.431 27.063 9.121 C 27.261 9.233 27.611 9.264 27.84 9.292 C 28.535 9.375 28.964 9.822 29.315 10.36 C 29.954 11.34 30.624 12.259 31.118 13.329 C 31.431 14.008 31.226 15.811 31.648 15.844 C 31.677 15.846 31.758 15.78 31.757 15.752 L 31.752 14.497 C 31.751 14.274 32.078 14.202 32.239 14.314 C 32.464 14.469 32.683 14.723 32.789 14.993 C 33.187 16.01 33.301 17.061 33.322 18.155 C 33.328 18.481 33.426 18.83 33.541 19.077 C 33.702 19.029 33.794 19 33.865 18.99 C 33.937 18.98 34.048 19.17 34.067 19.245 C 34.228 19.865 34.281 20.493 34.251 21.128 C 34.221 21.762 34.301 22.409 34.177 23.049 C 33.842 24.778 33.229 26.381 32.531 27.984 C 32.24 28.652 32.016 29.302 31.659 29.929 L 29.503 33.709 C 29.028 34.543 28.354 35.185 27.811 35.975 L 25.617 39.162 C 25.366 39.526 25.122 39.842 24.92 40.239 C 24.674 40.724 24.311 41.128 24.024 41.589 L 22.62 43.836 L 22.619 43.833 Z M 23.19 31.833 C 23.276 31.092 23.304 30.457 23.211 29.722 L 23.035 28.328 L 22.595 26.385 C 22.464 25.804 22.301 25.274 22.086 24.716 C 21.788 23.945 21.631 23.11 21.199 22.404 L 20.576 21.386 C 20.448 21.176 20.346 20.937 20.207 20.733 C 19.388 19.528 18.439 18.449 17.391 17.443 L 15.775 15.893 L 13.597 13.86 C 13.04 13.34 12.655 12.77 12.221 12.161 C 11.662 11.376 11.188 10.624 10.938 9.671 C 10.675 8.67 10.577 8.403 10.64 7.317 C 10.714 6.039 11.008 6.029 11.082 4.849 C 10.246 6.101 9.793 7.839 10.214 9.224 C 10.382 9.773 10.498 10.311 10.718 10.828 C 11.005 11.503 11.33 12.143 11.695 12.775 C 11.961 13.234 12.371 13.602 12.686 14.027 C 13.001 14.451 13.363 14.743 13.745 15.077 L 15.851 16.922 C 16.214 17.24 16.581 17.556 16.909 17.915 C 18.07 19.188 19.429 20.667 20.207 22.18 L 21.32 24.345 C 21.813 25.303 21.94 26.345 22.196 27.379 C 22.346 27.989 22.54 28.551 22.635 29.185 C 22.9 30.952 22.908 32.693 22.847 34.482 C 22.962 34.264 22.94 33.997 23.004 33.769 C 23.179 33.137 23.111 32.501 23.188 31.834 L 23.19 31.833 Z M 29.02 30.918 L 28.352 32.725 C 28.84 32.274 29.022 31.693 29.303 31.131 C 29.686 30.361 30.046 29.613 30.283 28.775 C 30.573 27.744 30.936 26.757 31.131 25.7 C 31.496 23.723 31.5 22.198 31.48 20.192 C 31.47 19.163 31.204 18.186 30.971 17.198 C 30.748 16.253 30.386 15.419 29.906 14.579 C 28.893 12.806 27.6 11.212 25.772 10.219 C 25.201 9.907 24.543 9.7 23.913 9.516 C 22.979 9.242 22.007 9.158 21.035 9.086 C 20.487 9.045 19.932 9.119 19.443 8.839 L 18.28 8.173 C 17.944 7.98 17.846 7.691 17.764 7.343 L 17.532 6.358 C 17.489 6.178 17.412 6.017 17.313 5.865 C 17.049 6.039 17.539 7.731 17.661 7.912 C 18.287 8.845 19.319 9.403 20.434 9.521 L 21.987 9.686 C 22.526 9.743 23.04 9.824 23.549 10.025 C 25.304 10.715 25.95 10.953 27.383 12.211 C 27.901 12.666 28.206 13.302 28.624 13.84 C 28.899 14.195 29.086 14.553 29.281 14.972 C 29.808 16.11 30.343 17.245 30.549 18.505 C 30.689 19.365 30.666 20.209 30.723 21.085 C 30.764 21.729 30.943 22.403 30.877 23.035 C 30.802 23.756 30.712 24.462 30.575 25.156 L 30.043 27.83 C 29.946 28.319 29.787 28.769 29.621 29.234 L 29.021 30.916 L 29.02 30.918 Z M 11.651 24.365 L 9.743 22.698 C 9.406 22.404 9.095 22.125 8.79 21.799 C 8.419 21.402 7.937 21.171 7.502 20.838 C 6.951 20.415 6.309 19.18 6.283 19.424 C 6.281 19.444 6.289 19.534 6.309 19.586 C 6.667 20.535 7.381 21.573 8.186 22.25 C 8.792 22.76 9.33 23.191 9.988 23.604 C 10.708 24.056 11.346 24.543 12.019 25.106 C 11.946 24.883 11.838 24.528 11.651 24.365 Z M 13.571 29.748 L 12.469 29.197 C 12.175 29.05 11.838 29.022 11.531 28.901 C 10.837 28.629 10.146 28.568 9.43 28.395 L 8.563 28.185 C 7.822 28.006 7.126 27.903 6.334 27.696 C 6.525 28.071 6.859 28.256 7.222 28.405 L 7.943 28.699 C 8.696 29.007 9.5 29.109 10.3 29.275 L 12.446 29.722 C 12.982 29.834 13.463 29.996 13.924 30.188 C 13.89 29.903 13.784 29.855 13.57 29.748 L 13.571 29.748 Z M 21.955 33.937 L 22.048 32.859 C 21.914 32.696 21.733 34.158 21.955 33.937 Z M 28.175 32.93 L 27.271 34.648 C 27.302 34.941 28.403 32.804 28.175 32.93 Z" fill="currentColor" fill-rule="nonzero"></path>
  <path d="M 31.272 35.354 L 32.879 33.747 C 33.451 33.176 34.063 32.68 34.592 32.065 L 35.384 31.146 C 36.612 29.721 37.823 29.982 38.111 29.337 C 38.436 28.612 38.986 28.18 39.781 28.128 C 41.139 28.039 41.151 28.55 42.133 27.993 C 43.806 27.042 44.51 27.641 45.161 27.087 C 45.507 26.793 45.83 26.502 46.208 26.281 C 47.293 25.646 46.968 25.243 47.628 24.485 C 48.221 24.786 47.939 26.573 47.791 27.167 C 47.39 28.769 46.555 28.463 46.517 29.75 C 46.478 31.019 45.973 31.756 44.824 32.276 C 44.026 32.637 44.688 33.144 43.482 34.263 C 43.162 34.559 42.848 34.787 42.443 34.955 C 41.351 35.407 41.772 34.959 40.586 35.536 C 39.494 36.068 38.312 36.159 37.283 35.45 C 36.121 34.649 34.748 34.471 33.435 34.995 C 33.227 35.077 32.995 35.139 32.8 35.25 C 32.305 35.532 31.84 35.803 31.385 36.148 C 30.856 36.548 30.311 36.926 29.83 37.381 C 29.326 37.859 28.832 38.335 28.398 38.875 L 27.576 39.896 L 25.615 42.423 L 24.9 43.488 C 24.107 44.669 23.025 46.478 22.639 47.831 C 22.584 48.025 22.395 48.217 22.256 48.275 C 22.116 48.333 21.695 48.315 21.663 48.115 C 21.582 47.616 21.82 47.102 22.041 46.643 C 22.443 45.809 23.686 43.667 24.228 42.964 L 25.797 40.922 L 27.613 38.505 C 28.085 37.875 28.583 37.296 29 36.626 C 29.304 36.14 29.634 35.738 29.974 35.267 C 31.138 33.652 32.204 32.002 33.196 30.269 C 33.502 29.734 33.653 29.144 33.889 28.587 L 34.682 26.726 C 35.253 25.383 35.52 24.002 35.812 22.587 C 36.241 20.507 36.239 19.387 36.108 17.271 C 36.052 16.376 35.842 15.589 35.506 14.778 C 34.847 13.191 34.569 13.355 33.474 12.326 C 33.002 11.884 32.174 11.894 31.55 10.202 C 30.949 8.571 31.513 8.085 29.862 7.536 C 28.88 7.209 28.341 6.137 28.383 5.143 C 28.395 4.841 28.317 4.582 28.244 4.319 C 28.148 3.966 27.949 3.746 27.611 3.603 C 27.063 3.37 26.571 3.084 26.09 2.733 C 24.866 1.838 24.602 2.372 23.448 1.487 C 23.117 1.233 22.508 0.566 22.625 0.218 C 22.793 -0.28 24.491 0.791 25.599 0.684 C 26.01 0.644 26.369 0.419 26.75 0.268 C 27.739 -0.124 28.847 -0.079 29.823 0.357 C 30.085 0.474 30.266 0.74 30.493 0.929 C 30.929 1.29 31.829 1.101 32.477 1.197 C 32.863 1.255 33.336 1.536 33.606 1.818 C 33.964 2.19 34.201 2.621 34.581 2.964 C 35.066 3.399 35.766 3.334 36.353 4.135 C 37.731 6.01 37.448 7.222 37.831 8.174 C 38.187 9.059 38.237 9.924 38.112 10.862 C 38.043 11.385 37.955 11.86 37.722 12.336 C 37.325 13.148 37.217 14.042 37.33 14.942 C 37.38 15.338 37.339 15.713 37.338 16.114 C 37.337 18.001 37.15 19.801 36.815 21.712 C 37.251 21.318 37.524 20.817 37.672 20.299 L 38.187 18.486 C 38.437 17.608 38.748 16.765 38.804 15.835 C 38.937 13.621 38.248 13.582 39.454 11.431 C 39.677 11.033 39.787 10.639 39.771 10.174 C 39.711 8.424 40.42 8.522 39.59 6.382 L 38.877 4.541 C 38.855 4.486 38.903 4.343 38.941 4.317 C 39.175 4.153 39.854 4.776 40.017 4.946 C 40.408 5.355 40.717 5.784 41.177 6.106 C 41.549 6.366 41.96 6.61 42.164 7.041 C 42.464 7.674 42.223 8.401 42.843 8.672 C 43.73 9.059 44.249 9.963 44.111 10.928 C 43.998 11.724 44.3 11.935 44.489 12.781 C 44.627 13.396 44.502 14.011 44.075 14.474 C 43.787 14.787 43.629 15.141 43.424 15.526 C 43.139 16.058 42.672 16.593 42.154 16.906 L 41.293 17.425 C 40.892 17.667 40.583 17.965 40.244 18.277 C 39.232 19.207 38.47 20.258 37.856 21.482 L 36.768 23.648 C 36.417 24.348 35.455 26.26 35.545 27.02 C 36.227 26.348 36.657 25.58 37.177 24.829 C 38.518 22.891 37.921 22.196 39.796 20.427 C 40.766 19.511 41.628 19.698 42.145 18.877 C 42.555 18.225 43.273 17.818 44.069 17.887 C 44.681 17.94 45.192 17.806 45.732 17.548 C 46.954 16.966 46.71 16.499 47.342 15.219 C 47.376 15.149 47.561 15.058 47.636 15.082 C 48.139 15.241 48.055 16.921 47.962 17.403 C 47.723 18.644 47.163 18.761 47.321 19.966 C 47.423 20.746 47.127 21.697 46.477 22.172 C 46.032 22.496 45.783 22.762 45.576 23.284 C 45.086 24.513 43.892 25.46 42.565 25.621 C 42.05 25.684 41.59 25.691 41.097 25.824 C 39.846 26.161 38.856 26.06 37.745 26.773 C 37.517 26.919 37.256 27.059 37.042 27.22 C 35.603 28.3 34.537 29.722 33.552 31.208 L 32.597 32.65 L 31.861 33.692 C 31.773 33.817 30.633 35.335 31.046 35.418 C 31.105 35.431 31.225 35.399 31.27 35.354 L 31.272 35.354 Z M 35.857 11.004 L 35.227 9.063 C 34.915 8.101 34.418 7.325 33.773 6.567 C 33.374 6.099 33.117 5.508 32.666 5.09 C 32.385 4.829 32.121 4.6 31.877 4.301 C 31.772 4.173 31.655 4.088 31.489 4.073 C 31.808 4.607 32.115 5.071 32.465 5.568 C 33.113 6.488 33.673 7.41 34.225 8.386 C 34.628 9.097 34.918 9.793 35.211 10.551 C 35.534 11.387 35.863 12.154 36.024 13.06 C 36.034 13.112 36.41 15.032 36.526 14.7 C 36.535 14.673 36.599 14.561 36.595 14.522 C 36.448 12.721 36.447 12.825 35.857 11.005 L 35.857 11.004 Z M 39.69 17.335 C 40.073 16.536 40.45 15.802 40.886 15.041 C 41.166 14.551 41.428 14.087 41.574 13.49 C 41.118 13.67 40.81 14.019 40.621 14.424 C 40.088 15.56 39.619 16.674 39.199 17.881 C 39.383 17.715 39.6 17.522 39.691 17.335 L 39.69 17.335 Z M 37.521 26.074 L 39.141 24.874 C 39.545 24.575 39.967 24.352 40.361 24.041 L 41.916 22.81 C 43.052 21.912 43.349 21.814 44.317 20.411 C 43.376 21.246 42.437 21.929 41.365 22.541 C 40.634 22.959 40.059 23.549 39.381 24.033 C 38.61 24.584 38.022 25.291 37.375 25.978 L 36.916 26.465 C 37.158 26.411 37.306 26.233 37.52 26.074 L 37.521 26.074 Z M 35.914 33.494 C 36.486 33.293 36.995 33.249 37.499 33.037 C 38.994 32.409 39.418 32.552 40.775 32.196 C 41.342 32.047 42.634 31.426 42.949 30.837 C 42.565 30.83 42.303 30.966 42.005 31.107 C 40.39 31.875 39.545 31.684 38.198 32.076 C 37.138 32.383 36.168 32.769 35.126 33.165 C 34.783 33.295 33.9 33.772 33.622 34.052 C 33.251 34.424 35.857 33.513 35.914 33.494 Z" fill="currentColor" fill-rule="nonzero"></path>
  <path d="M 25.069 47.108 C 24.612 47.669 24.718 48.82 24.067 48.723 C 23.543 48.645 24.067 47.635 24.167 47.41 C 24.504 46.655 24.783 45.886 25.213 45.175 C 26.24 43.482 27.167 42.628 28.249 40.653 C 28.399 40.378 28.621 40.147 28.818 39.916 C 29.243 39.419 29.724 39.11 30.277 38.763 C 30.94 38.347 31.628 37.85 32.457 37.886 C 32.816 37.902 33.166 38.023 33.509 37.845 C 34.45 37.356 35.307 37.083 36.307 37.495 C 36.631 37.629 37.014 37.725 37.288 37.946 C 38.185 38.675 38.33 37.695 40.303 38.345 C 40.902 38.542 41.552 38.35 42.082 38.032 L 43.235 37.341 C 43.428 37.225 43.918 37.017 43.968 37.415 C 44.007 37.721 43.651 38.14 43.531 38.44 C 42.85 40.145 41.338 39.665 40.651 41.7 C 40.504 42.135 40.266 42.474 39.929 42.777 C 39.028 43.583 38.511 43.379 37.934 43.655 C 37.409 43.906 37.01 44.303 36.563 44.663 C 36.252 44.914 35.816 44.968 35.425 45.037 C 34.766 45.152 34.119 45.267 33.464 45.125 C 32.999 45.024 32.587 44.778 32.143 44.618 C 31.554 44.407 30.978 44.234 30.361 44.072 C 29.967 43.969 29.502 44.113 29.108 44.156 C 28.549 44.217 28.088 44.417 27.641 44.738 C 26.921 45.254 26.292 45.604 25.733 46.29 L 25.069 47.107 L 25.069 47.108 Z M 31.52 41.775 C 32.074 41.576 32.626 41.513 33.207 41.476 C 34.712 41.38 34.259 41.167 35.964 41.651 C 36.039 41.581 35.964 41.356 35.857 41.295 C 35.182 40.914 34.424 40.777 33.639 40.861 C 31.561 41.083 32.358 40.969 30.545 41.57 C 29.963 41.763 29.451 42.019 28.951 42.369 C 28.208 42.891 27.444 43.396 26.907 44.169 C 27.459 44.094 27.81 43.736 28.222 43.461 C 29.26 42.767 30.341 42.199 31.52 41.775 Z" fill="currentColor" fill-rule="nonzero"></path>
  <path d="M 11.046 44.726 C 10.505 44.968 9.559 44.896 8.968 44.384 C 8.454 43.94 8.279 43.216 8.82 42.65 C 9.207 42.244 9.916 41.989 10.492 42.103 C 11.305 42.264 12.08 42.393 12.86 42.622 C 13.364 42.77 13.782 43.084 14.408 42.955 C 14.252 42.373 12.233 41.305 11.63 40.979 C 11.468 40.891 11.279 40.851 11.097 40.786 C 9.967 40.382 9.62 39.985 8.361 39.77 C 7.908 39.692 7.44 39.546 6.995 39.522 C 6.191 39.479 5.512 39.317 4.87 38.801 C 4.28 38.326 3.846 37.576 3.907 36.752 C 3.925 36.514 4.112 36.19 4.221 35.983 C 4.393 35.657 4.709 35.491 5.085 35.535 C 5.405 35.572 5.795 35.619 6.092 35.749 C 6.747 36.035 7.37 36.419 7.794 36.98 L 8.767 38.266 C 9.029 38.611 11.08 40.215 11.585 40.339 C 11.838 40.402 12.029 40.496 12.248 40.616 L 11.986 40.278 L 12.433 40.216 C 11.853 39.902 12.107 40.294 11.762 39.889 C 11.03 39.029 9.98 37.656 9.437 36.678 C 9.068 36.012 8.679 35.374 8.379 34.682 C 8.012 33.833 8.5 32.877 9.175 32.47 C 9.583 32.224 9.951 32.289 10.335 32.511 C 11.295 33.067 11.778 34.23 11.721 35.334 L 11.633 37.042 C 11.616 37.368 12.07 39.231 12.272 39.453 L 13.795 41.138 C 14.365 41.769 15.051 42.234 15.804 42.695 C 15.577 42.076 15.369 41.497 14.998 41.014 L 13.9 39.586 C 13.092 38.534 13.36 36.907 14.195 36.668 C 14.504 36.58 14.975 36.713 15.241 36.884 C 15.565 37.093 15.755 37.448 15.937 37.784 C 16.144 38.17 16.113 38.636 16.096 39.074 C 16.029 40.837 15.741 40.685 16.462 42.285 L 17.099 43.701 L 18.123 45.126 C 18.406 45.518 19.151 47.836 18.355 48.141 C 17.842 48.337 17.956 47.055 17.888 46.835 C 17.614 45.939 17.167 45.093 16.495 44.44 C 16.102 44.058 15.556 43.827 15.041 43.652 C 14.25 43.384 12.747 43.963 11.99 44.302 L 11.044 44.725 L 11.046 44.726 Z M 9.658 43.08 C 9.566 43.05 9.315 43.128 9.271 43.234 C 9.148 43.525 9.23 43.842 9.501 43.931 C 9.424 43.781 9.328 43.611 9.316 43.48 C 9.304 43.35 9.491 43.198 9.658 43.081 L 9.658 43.08 Z" fill="currentColor" fill-rule="nonzero"></path>
</svg>