<svg xmlns="http://www.w3.org/2000/svg" width="58.762" height="39.277" viewBox="0 0 58.762 39.277" fill="none">
  <path d="M 27 34.387 C 25.786 34.489 22.37 34.944 21.631 34.083 C 21.279 33.673 22.522 32.638 22.851 32.332 C 23.349 31.87 23.847 31.648 24.53 31.595 L 26.284 31.457 C 27.013 31.4 27.567 31.81 28.113 32.19 C 28.55 32.495 29.776 33.268 29.308 33.877 C 29.053 34.207 27.525 34.344 27.002 34.387 L 27 34.387 Z" fill="currentColor" fill-rule="nonzero"></path>
  <path d="M 8.737 31.895 C 8.268 31.436 8.119 30.832 7.969 30.241 C 7.767 29.454 7.775 28.758 8.086 27.987 C 8.322 27.403 8.428 26.624 8.899 26.162 C 9.591 25.484 10.365 24.94 11.129 24.35 C 11.437 24.113 11.481 23.824 11.425 23.464 C 11.315 22.76 11.029 22.32 10.455 21.914 C 10.193 21.728 9.888 21.261 9.554 21.177 L 7.175 20.583 C 6.025 20.296 5.743 18.477 5.555 17.429 C 5.681 17.222 5.941 16.937 6.104 16.76 C 6.374 16.465 6.605 15.995 7.016 15.887 C 8.901 15.392 9.934 16.673 10.691 18.133 L 11.332 19.37 C 11.924 19.126 11.313 17.385 11.166 16.899 C 10.949 16.179 10.534 15.689 10.101 15.103 C 9.364 14.107 9.82 12.628 10.76 11.965 C 11.763 11.258 12.944 11.179 13.943 12.012 C 14.369 12.368 14.689 13.167 14.761 13.777 C 15.027 16.04 14.291 16.294 13.69 17.829 C 13.495 18.325 13.665 18.925 14.093 19.346 C 14.424 18.716 14.593 18.108 14.636 17.417 C 15.032 16.891 15.433 16.386 15.871 15.871 C 16.08 15.626 16.407 15.598 16.695 15.581 C 17.4 15.54 17.981 15.612 18.587 16.007 C 18.852 16.18 19.306 16.455 19.303 16.839 C 19.298 17.495 19.225 18.178 18.965 18.784 C 18.614 19.602 17.746 20.344 16.871 20.491 C 15.619 20.702 14.707 21.256 13.947 22.253 C 13.482 22.865 13.204 23.741 13.899 24.326 C 14.377 24.728 15.027 25.034 15.438 25.543 C 16.068 26.324 16.572 27.349 16.633 28.377 C 16.763 30.545 16.601 30.654 14.986 31.885 C 14.282 31.737 13.737 31.44 13.073 31.364 C 12.239 31.268 11.371 31.208 10.519 31.258 C 9.922 31.294 9.34 31.727 8.735 31.894 L 8.737 31.895 Z" fill="currentColor" fill-rule="nonzero"></path>
  <path d="M 19.868 25.918 L 17.771 27.231 C 17.518 27.389 17.18 27.212 17.08 26.989 L 16.623 25.963 C 17.039 25.479 17.489 24.94 18.059 24.588 C 18.961 24.031 20.196 24.368 20.745 23.304 C 21.261 22.304 21.855 21.392 22.587 20.523 C 22.906 20.144 23.102 19.708 23.283 19.245 L 25.085 14.614 C 25.323 14.001 25.548 13.464 25.603 12.784 C 25.63 12.437 25.693 11.802 25.972 11.603 C 26.561 11.182 27.319 11.639 27.545 12.228 L 28.155 13.824 C 28.93 15.848 27.356 17.884 26.535 19.622 C 26.345 20.022 26.114 20.371 25.888 20.743 C 25.468 21.433 25.053 22.042 24.481 22.614 L 22.113 24.979 C 21.251 25.839 20.716 25.389 19.869 25.92 L 19.868 25.918 Z" fill="currentColor" fill-rule="nonzero"></path>
  <path d="M 16.447 36.962 C 15.483 36.453 14.787 37.285 12.91 36.576 C 12.196 36.306 11.562 36.173 10.804 36.358 C 9.606 36.651 9.133 36.226 8.155 36.65 C 6.499 37.368 6.474 36.214 4.641 37.396 C 2.946 38.489 3.218 37.594 2.018 38.63 C 1.535 39.045 0.23 39.514 0.03 39.034 C -0.218 38.441 1.141 37.739 1.599 37.499 C 1.829 37.2 1.941 36.604 2.204 36.34 L 3.586 34.953 C 4.467 34.069 4.938 34.64 5.877 33.626 C 6.811 32.617 7.91 33.064 9.495 32.595 C 10.777 32.215 11.987 32.017 13.23 32.674 C 14.042 33.103 15.053 32.653 15.821 33.053 L 17.467 33.912 C 18.796 34.605 17.759 34.519 20.282 35.382 C 20.679 35.518 21.049 35.74 21.247 36.117 C 22.028 37.607 23.486 36.225 24.575 37.702 C 25.281 37.91 25.98 38.173 26.696 38.157 C 27.822 38.131 28.173 38.969 28.017 39.117 C 27.604 39.51 27.104 39.053 26.695 39.081 C 25.298 39.177 24.043 39.081 22.73 38.569 C 22.4 38.44 21.848 38.529 21.493 38.42 C 20.641 38.157 19.864 37.679 19.005 37.504 C 18.147 37.33 17.255 37.391 16.447 36.964 L 16.447 36.962 Z" fill="currentColor" fill-rule="nonzero"></path>
  <path d="M 47.872 36.711 C 46.204 36.176 45.937 37.228 43.172 37.128 C 42.72 37.112 42.133 37.111 41.748 37.31 C 41.081 37.656 40.471 38.06 39.721 38.126 L 37.963 38.278 C 37.449 38.323 36.933 38.733 36.432 38.885 C 35.804 39.075 34.259 39.205 33.901 39.08 C 33.817 39.052 33.912 38.762 33.984 38.705 C 34.494 38.29 35.277 38.124 35.832 37.81 C 36.453 37.459 36.927 37.022 37.661 36.861 C 38.039 36.778 38.427 36.485 38.622 36.17 C 39.566 34.648 40.967 34.821 42.099 34.28 C 43.601 33.561 43.818 33.164 45.798 33.185 C 46.744 32.653 47.65 32.708 48.667 32.837 C 49.568 32.952 50.43 33.044 51.254 33.547 C 52.193 33.634 53.257 33.708 53.987 34.343 L 55.667 35.803 C 56.101 36.179 56.724 36.331 57.048 36.807 C 57.237 37.084 57.381 37.489 57.615 37.686 C 58.103 38.095 58.574 38.446 58.762 39.109 C 58.007 39.131 57.409 38.855 56.826 38.484 C 55.834 37.852 56.044 38.457 54.361 37.537 C 52.977 36.78 53.024 37.64 51.032 36.89 C 49.268 36.225 49.367 37.188 47.872 36.71 L 47.872 36.711 Z" fill="currentColor" fill-rule="nonzero"></path>
  <path d="M 33.919 36.922 C 32.36 37.254 30.824 36.92 29.267 36.996 C 28.589 37.029 26.822 37.285 26.575 36.917 C 26.278 36.476 28.788 35.443 29.165 35.299 C 30.931 34.632 29.851 34.385 32.344 34.307 C 32.736 34.295 33.624 34.944 33.833 35.071 L 35.423 36.03 C 35.501 36.077 35.584 36.318 35.556 36.403 C 35.529 36.488 35.367 36.614 35.272 36.635 L 33.919 36.922 Z" fill="currentColor" fill-rule="nonzero"></path>
  <path d="M 38.561 17.892 C 38.442 17.679 37.922 17.451 37.692 17.501 C 36.962 17.657 36.084 17.832 35.415 17.54 C 34.868 17.3 34.794 16.754 35.024 16.313 C 35.492 15.415 35.655 14.489 35.72 13.503 C 35.778 12.625 35.967 11.827 35.752 10.895 C 35.603 10.984 35.48 11.217 35.472 11.407 C 35.399 12.999 34.79 14.792 34.158 16.227 L 33.292 18.195 C 32.645 19.664 31.845 20.928 30.935 22.242 C 29.753 23.952 28.26 25.292 26.547 26.457 C 25.711 27.025 24.958 27.481 24.005 27.897 C 23.641 28.056 23.214 28.695 23.081 29.061 C 22.777 29.9 22.358 30.443 21.714 31.018 C 21.07 31.594 20.376 32.319 19.395 32.426 C 18.977 32.472 18.476 32.353 18.019 32.355 C 17.687 32.356 17.19 32.264 17.093 31.906 L 16.861 31.058 C 18.05 29.29 19.142 30.392 19.379 28.719 C 18.809 28.803 18.259 29.058 17.662 28.639 L 18.378 27.958 C 19.398 26.987 20.813 26.126 22.228 26.06 C 22.719 25.682 23.412 25.209 23.848 24.752 L 25.782 22.722 C 26.17 22.314 26.709 21.871 26.929 21.357 C 27.414 20.224 27.828 19.178 28.513 18.16 C 28.932 17.538 29.809 12.111 30.598 10.768 L 31.312 9.554 C 30.113 9.657 29.282 12.128 28.828 12.163 C 28.746 12.17 28.516 12.073 28.467 12.001 L 27.64 10.795 C 27.42 10.476 27.125 10.233 26.699 10.314 C 25.152 10.609 24.684 11.721 23.547 11.793 C 22.956 11.831 22.611 11.281 22.278 10.925 L 22.069 10.701 C 21.944 10.567 21.612 11.318 21.131 11.346 C 20.842 11.362 20.451 11.192 20.3 10.93 C 19.703 9.9 19.054 9.013 18.27 8.124 C 17.785 7.574 17.599 6.815 17.45 6.096 L 17.775 6.282 C 17.685 5.9 17.523 5.523 17.375 5.167 C 17.454 4.64 17.617 4.038 17.792 3.495 C 17.941 3.034 18.337 2.638 18.569 2.229 C 18.962 1.542 19.407 1.046 20.164 0.747 C 20.498 0.614 20.882 0.248 21.234 0.161 C 22.18 -0.074 23.129 -0.027 24.081 0.144 C 24.429 0.206 24.695 0.626 24.974 0.813 C 25.792 1.36 26.612 1.865 27.066 2.782 C 27.572 3.801 27.277 4.603 28.086 5.323 C 29.505 5.42 32.701 4.513 33.692 4.645 L 36.236 4.984 C 37.096 5.099 37.995 5.384 38.787 5.736 C 39.2 5.919 39.561 6.186 39.983 6.339 C 40.5 6.528 41.066 6.732 41.445 7.118 C 42.622 8.31 44.115 8.833 45.419 10.448 L 47.455 12.969 C 47.742 13.324 47.897 13.843 48.146 14.241 C 49.239 15.99 48.507 15.922 49.314 17.913 C 49.497 18.366 49.587 18.835 49.515 19.327 C 49.39 20.186 49.304 20.987 49.239 21.86 C 49.206 22.3 48.965 22.692 48.716 23.063 L 47.289 25.186 L 43.148 27.476 C 42.896 27.615 42.723 27.766 42.43 28.027 C 43.416 27.944 43.906 27.847 44.941 27.763 C 45.757 27.697 46.416 28.006 47.179 28.186 C 47.943 28.365 48.947 27.758 49.424 27.177 C 49.982 26.5 50.611 26.349 51.44 26.543 C 52.146 26.709 52.753 27.12 52.795 27.944 C 52.877 29.564 54.364 30.688 55.639 31.512 C 56.439 32.029 57.176 33.095 56.6 33.567 C 56.48 33.666 56.148 33.713 55.978 33.658 C 54.109 33.052 53.353 32.602 51.383 32.286 C 50.923 32.212 50.471 31.944 50.017 31.809 C 49.273 31.588 48.485 31.752 47.705 31.667 L 46.263 31.508 C 45.85 31.462 42.361 32.768 41.67 32.794 L 40.234 32.846 C 39.573 32.87 38.98 33.43 38.301 33.459 C 37.139 33.506 36.042 33.273 34.881 33.113 C 34.415 33.049 33.827 33.032 33.513 32.603 C 32.847 31.697 32.453 30.394 32.811 29.259 C 33.062 28.466 33.338 27.429 33.884 26.814 C 35.192 25.346 36.693 24.179 38.067 22.793 C 38.585 22.27 39.151 21.834 39.511 21.166 C 39.96 20.333 39.002 18.689 38.558 17.895 L 38.561 17.892 Z" fill="currentColor" fill-rule="nonzero"></path>
  <path d="M 31.764 31.518 C 31.674 31.884 30.715 31.595 30.053 31.049 C 29.791 30.833 29.346 30.557 29.21 30.267 C 28.735 29.256 29.052 28.231 29.265 27.218 C 29.407 26.545 29.576 26.018 30.007 25.457 L 30.94 24.243 C 31.498 23.516 32.219 22.969 32.889 22.338 C 33.966 21.323 34.455 21.657 35.285 21.005 L 37.29 19.431 C 37.49 19.274 37.918 18.879 38.193 19.193 C 38.432 19.658 38.568 20.6 38.246 21.106 C 37.634 22.07 36.623 22.621 35.844 23.412 L 34.567 24.71 C 34.137 25.147 33.931 25.752 33.314 26.021 C 30.718 29.286 31.975 30.655 31.764 31.517 L 31.764 31.518 Z" fill="currentColor" fill-rule="nonzero"></path>
</svg>