<svg xmlns="http://www.w3.org/2000/svg" width="73.774" height="66.925" viewBox="0 0 73.774 66.925" fill="none">
  <path d="M 38.364 63.081 C 37.062 63.674 36.235 64.098 34.896 63.576 C 33.498 63.031 32.061 63.42 31.097 64.561 C 30.681 65.053 30.276 65.629 29.774 66.033 C 28.835 66.79 27.618 66.879 26.456 66.924 C 24.983 66.979 25.105 65.719 24.025 65.142 C 23.527 64.876 22.846 64.662 22.27 64.671 C 19.919 64.71 19.492 66.048 17.263 65.118 C 16.56 64.825 15.967 64.468 15.393 63.942 C 13.702 62.395 15.514 62.114 13.701 59.78 C 13.264 59.217 12.915 58.748 12.232 58.474 C 9.675 57.448 9.362 54.26 9.825 53.45 L 11.002 51.386 C 11.817 49.961 12.662 48.733 13.852 47.64 C 14.803 46.767 15.72 45.962 16.846 45.31 C 17.847 44.732 18.802 44.176 19.859 43.668 C 21.273 42.989 22.858 43.188 24.154 42.879 C 25.693 42.513 27.246 42.549 28.654 43.327 C 28.869 43.446 29.165 43.724 29.276 43.945 C 29.143 44.28 28.759 44.808 28.434 44.869 C 27.175 45.106 26.336 45.786 25.297 46.382 C 23.917 47.172 22.716 48.223 22.572 49.961 C 22.546 50.269 22.752 50.698 23.038 50.785 C 24.067 51.1 23.736 49.666 26.278 47.95 C 27.152 47.36 27.98 46.646 29.066 46.45 L 31.37 46.035 C 31.452 46.021 31.764 46.083 31.732 46.15 L 31.581 46.459 C 31.247 47.146 30.811 47.675 30.324 48.247 C 29.263 49.495 29.302 52.004 30.352 51.998 C 30.546 51.997 30.854 51.736 30.957 51.496 C 31.663 49.855 32.532 48.374 33.807 47.121 C 34.562 46.38 35.031 45.538 35.646 45.583 C 35.853 45.599 36.26 45.802 36.379 45.996 L 37.636 48.046 C 38.126 48.845 38.674 49.548 39.11 50.393 C 39.711 51.556 40.244 52.725 40.429 54.035 C 40.526 54.725 40.399 55.376 40.289 56.063 C 40.192 56.678 40.276 57.335 40.298 57.98 C 40.335 59.017 40.091 60.02 39.908 61.02 C 39.724 62.02 39.289 62.66 38.362 63.082 L 38.364 63.081 Z" fill="currentColor" fill-rule="nonzero"></path>
  <path d="M 42.05 54.004 C 41.212 50.906 42.077 51.316 40.714 48.949 C 40.168 48.001 39.67 47.126 38.776 46.427 C 38.569 46.265 38.381 45.902 38.38 45.631 C 40.46 44.827 40.362 45.042 42.022 45.651 C 42.884 45.968 43.626 46.339 44.385 46.83 C 45.951 47.845 45.523 47.984 46.771 49.556 C 47.086 49.953 47.671 50.191 48.167 50.282 C 48.541 50.351 48.902 50.03 48.908 49.687 C 48.923 48.807 48.534 48.074 47.926 47.471 C 46.827 46.385 47.049 46.017 45.904 45.399 C 45.74 45.31 45.581 45.031 45.615 44.868 L 47.262 45.402 L 50.893 46.45 C 51.056 46.496 51.467 46.397 51.557 46.261 C 51.704 46.039 51.702 44.924 50.612 44.568 C 50.073 44.391 49.564 44.197 49.029 43.975 C 46.131 42.773 46.242 43.503 43.148 43.057 C 43.952 42.087 45.089 41.895 46.206 41.737 C 46.601 41.682 47.034 41.524 47.42 41.39 C 48.333 41.069 49.24 41.001 50.198 40.87 C 53.313 40.444 54.967 40.296 58.019 41.223 C 59.842 41.777 60.379 42.214 62.181 42.883 C 63.973 43.549 65.127 44.782 65.994 46.418 C 66.478 47.33 66.884 48.151 66.178 49.231 C 65.626 50.074 64.949 51.411 65.445 52.371 L 66.565 54.534 C 66.878 55.136 66.704 56.109 66.404 56.754 C 65.961 57.703 65.163 58.535 64.246 58.989 C 63.397 59.409 62.57 58.405 60.925 60.525 C 60.232 61.418 60.557 62.759 58.871 63.82 C 58.539 64.029 58.144 64.379 57.751 64.45 C 57.24 64.543 56.47 64.626 56.013 64.425 L 53.079 63.132 C 52.416 62.84 51.84 62.887 51.182 63.145 C 50.593 63.377 49.948 63.488 49.312 63.642 C 48.689 63.793 48.052 64.184 47.387 64.131 C 46.176 64.035 44.946 63.392 44.176 62.44 C 41.27 58.842 43.165 58.13 42.047 54.001 L 42.05 54.004 Z M 51.805 62.439 C 51.045 62.252 50.189 62.396 49.686 63.081 L 51.805 62.439 Z" fill="currentColor" fill-rule="nonzero"></path>
  <path d="M 45.192 39.528 C 45.945 38.826 46.728 38.4 47.566 37.924 C 48.76 37.247 49.952 36.593 51.277 36.193 C 51.718 36.059 52.095 35.924 52.516 35.737 C 54.035 35.065 56.06 35.871 56.114 34.513 C 56.136 33.968 55.791 33.606 55.255 33.468 C 53.848 33.106 52.523 33.565 51.15 33.87 C 49.899 34.147 48.727 34.371 47.557 34.937 L 45.174 36.087 C 45.583 35.487 46.094 34.914 46.686 34.426 C 47.402 33.836 48.047 33.246 48.701 32.589 C 49.224 32.062 49.778 31.627 50.418 31.242 C 50.789 31.019 51.022 30.328 50.674 30.046 C 49.636 29.747 48.599 30.067 47.679 30.564 C 47.274 30.784 46.653 30.931 46.353 31.249 C 44.75 32.955 44.448 32.734 43.09 34.109 C 42.335 34.873 41.622 36.094 41.083 36.023 C 40.499 35.946 41.406 34.284 41.462 33.546 C 41.531 32.623 41.646 31.873 42.1 31.078 L 43.539 28.558 C 44.015 27.724 44.829 27.128 45.467 26.421 C 46.345 25.449 47.387 24.823 48.395 24.021 L 50.72 22.172 C 51.836 21.285 53.164 20.708 54.645 20.969 C 55.726 21.159 56.992 22.174 58.504 21.773 C 59.539 21.498 60.54 20.969 61.627 21.136 C 62.929 21.335 63.747 22.368 64.132 23.56 C 65.259 27.053 67.802 24.608 70.085 26.671 C 70.906 27.413 70.112 28.967 70.719 29.896 C 71.548 31.164 73.763 30.914 73.774 33.43 C 73.785 36.12 71.159 35 70.729 38.008 C 70.665 38.458 70.579 39.096 70.326 39.479 C 69.877 40.163 69.345 40.792 68.735 41.3 C 68.057 41.865 67.113 41.85 66.285 41.917 C 63.145 42.176 62.302 40.544 59.497 39.894 L 56.26 39.143 C 54.79 38.802 53.185 38.763 51.693 38.982 L 49.824 39.256 C 49.02 39.374 48.222 39.366 47.423 39.488 C 46.692 39.6 46.035 39.795 45.191 39.527 L 45.192 39.528 Z" fill="currentColor" fill-rule="nonzero"></path>
  <path d="M 41.25 40.066 C 42.046 41.18 40.13 43.245 39.644 43.434 C 38.926 43.714 38.182 43.581 37.417 43.561 C 36.826 43.545 36.262 43.907 35.686 43.987 C 34.756 44.115 33.76 44.051 32.834 43.922 L 31.355 42.353 C 30.747 41.708 30.62 41.182 30.931 40.381 C 31.243 39.579 31.803 38.87 32.825 39.101 C 32.587 39.77 32.768 42.262 33.706 41.691 C 33.846 41.606 34.032 41.322 34.046 41.129 C 34.126 39.977 34.297 38.948 34.42 37.805 L 34.882 33.506 C 35.079 31.669 35.152 29.888 35.439 28.06 C 35.644 26.757 35.867 25.472 35.917 24.155 L 36.036 20.976 C 36.07 20.074 36.055 18.125 35.26 17.62 C 34.649 17.232 34.037 17.011 33.36 16.765 C 32.803 16.564 32.412 15.916 32.397 15.346 C 32.391 15.129 32.648 14.694 32.844 14.629 C 33.307 14.476 33.996 14.688 34.217 15.116 C 34.536 15.734 35.203 16.029 35.81 15.633 C 35.854 12.152 30.955 14.884 31.248 11.684 C 31.285 11.293 31.577 10.667 32.073 10.556 C 32.978 10.352 33.662 11.135 33.903 11.93 C 34.045 12.396 34.437 12.829 34.935 12.749 C 35.353 12.684 35.601 12.236 35.626 11.869 C 35.654 11.444 35.374 11.092 35.037 10.804 C 33.503 9.494 32.528 9.567 32.149 8.832 C 31.839 8.231 32.17 7.247 32.786 7.012 C 33.205 6.851 33.809 7.074 34.046 7.314 C 34.832 8.113 34.211 9.004 34.938 9.16 C 35.195 9.216 35.662 9.192 35.818 8.996 C 35.877 7.844 35.398 6.026 34.623 5.347 C 34.145 4.929 33.288 4.711 32.685 4.636 C 31.826 4.528 30.332 4.67 30.268 3.276 C 30.238 2.649 30.683 2.206 31.306 2.061 C 32.72 1.731 31.733 0.249 33.355 0.028 C 34.354 -0.108 35.37 0.255 35.896 1.149 C 36.558 2.269 36.097 3.312 36.425 3.625 C 36.514 3.709 36.858 3.731 36.967 3.676 C 37.901 3.196 37.578 1.514 38.929 0.536 C 39.648 0.015 40.735 -0.08 41.493 0.245 C 42.132 0.519 42.182 1.022 42.029 1.562 C 41.876 2.102 42.465 2.324 42.798 2.576 C 43.303 2.957 43.195 3.64 42.964 4.069 C 42.118 5.642 40.582 3.489 38.892 5.486 C 38.087 6.439 37.685 7.462 37.653 8.775 L 37.644 9.156 C 37.64 9.285 38.49 9.254 38.688 9.091 C 38.793 9.004 38.901 8.698 38.909 8.519 C 38.949 7.643 39.809 6.673 40.759 7.082 C 41.577 7.433 41.587 8.986 40.801 9.381 C 39.747 9.911 37.031 11.2 38.147 12.668 C 38.89 12.739 39.523 12.052 39.827 11.396 C 40.113 10.783 41.156 10.319 41.72 10.823 C 42.343 11.379 42.151 12.613 41.635 13.171 C 41.337 13.492 40.787 13.521 40.382 13.501 C 39.956 13.481 39.682 13.661 39.314 13.804 C 38.474 14.129 37.571 14.797 37.732 15.828 C 37.899 16.036 38.462 15.953 38.668 15.789 L 39.637 15.019 C 39.936 14.781 40.561 14.603 40.855 14.961 C 41.148 15.319 41.236 16.094 40.986 16.499 C 40.274 17.655 37.577 16.8 37.629 18.713 L 37.773 24.043 C 37.834 26.328 37.874 28.539 37.626 30.81 C 37.542 31.573 37.344 32.317 37.348 33.082 C 37.354 34.087 37.373 35.04 37.202 36.028 C 36.935 37.569 36.98 39.051 37.434 40.553 C 37.527 40.86 37.898 41.114 38.155 41.127 C 38.389 41.138 38.937 40.86 38.879 40.587 L 38.51 38.852 C 39.156 38.442 40.856 39.607 41.254 40.07 L 41.25 40.066 Z" fill="currentColor" fill-rule="nonzero"></path>
  <path d="M 40.425 30.111 C 39.912 31.054 39.754 32.131 39.007 32.908 C 38.617 32.787 38.755 32.387 38.784 32.079 L 39.071 29.109 L 39.065 26.756 L 39.235 21.773 L 39.302 19.522 C 39.618 19.216 39.977 18.751 40.372 18.492 C 41.184 17.962 42.192 17.498 43.188 17.54 C 43.873 17.569 44.715 17.714 45.334 17.98 C 45.952 18.247 46.586 18.772 47.056 19.286 C 47.818 20.119 47.737 21.781 46.97 22.564 C 46.294 23.253 45.395 23.567 44.822 24.302 L 43.177 26.409 C 42.236 27.614 41.183 28.716 40.424 30.112 L 40.425 30.111 Z" fill="currentColor" fill-rule="nonzero"></path>
  <path d="M 21.362 38.53 C 22.272 38.751 23.086 38.92 23.889 39.27 L 25.693 40.056 C 25.814 40.108 25.988 40.287 26.026 40.387 C 26.27 41.025 23.297 40.925 22.819 40.947 C 21.415 41.011 20.047 41.319 18.716 41.76 C 17.949 42.015 17.313 42.548 16.626 42.934 C 14.775 43.975 14.767 44.676 12.893 45.879 C 12.327 46.241 11.854 46.621 11.47 47.2 C 10.358 48.873 9.454 49.348 7.376 49.628 C 5.871 49.83 4.555 48.777 4.127 47.388 C 3.779 46.26 2.852 44.992 1.875 44.397 C -0.62 42.873 -0.204 40.079 0.719 39.273 L 1.761 38.362 C 2.3 37.892 2.557 36.913 2.396 36.194 C 1.976 34.32 1.175 33.085 3.165 31.067 C 3.725 30.499 5.446 30.591 6.473 29.992 C 7.675 29.292 8.049 28.073 8.72 26.932 C 9.131 26.232 10.316 25.496 11.158 25.434 C 12.267 25.351 13.391 25.413 14.447 25.654 L 17.769 26.412 L 20.078 27.029 C 20.992 27.274 21.79 27.846 22.577 28.362 C 22.926 28.591 23.282 28.72 23.663 28.906 C 24.786 29.454 25.804 30.248 26.671 31.152 C 27.035 31.533 27.145 32.233 27.536 32.551 C 28.049 32.969 28.316 33.339 28.554 33.943 C 28.886 34.79 29.219 35.621 29.384 36.538 C 28.75 36.76 28.29 36.468 27.883 36.052 C 26.67 34.811 25.374 33.596 23.8 32.82 C 22.94 32.396 22.06 32.161 21.137 31.81 C 20.846 31.699 20.28 31.793 20.006 31.959 C 19.901 32.024 19.796 32.33 19.813 32.453 C 19.833 32.597 20.027 32.857 20.177 32.918 C 21.01 33.259 21.591 33.878 22.294 34.401 C 23.034 34.952 25.656 36.675 25.351 37.772 L 24.602 37.341 L 21.319 36.268 L 19.675 36.451 C 18.568 36.574 17.503 36.294 16.487 36.844 C 16.22 36.989 16.181 37.561 16.318 37.831 C 16.462 38.116 16.901 38.404 17.263 38.318 C 18.679 37.983 19.973 38.191 21.364 38.529 L 21.362 38.53 Z" fill="currentColor" fill-rule="nonzero"></path>
  <path d="M 31.619 34.717 L 30.694 33.37 C 30.194 32.644 29.66 31.916 29.011 31.327 C 28.64 30.991 28.263 30.719 27.99 30.306 C 27.61 29.728 27.131 29.302 26.568 28.902 C 24.336 27.315 22.197 26.137 19.578 25.242 C 18.462 24.862 17.236 24.737 16.218 24.065 C 16.127 23.135 17.805 23.662 18.313 21.659 C 18.538 20.769 19.171 20.071 20.069 19.821 C 22.514 19.141 23.178 20.458 24.016 19.893 C 24.92 19.283 25.453 16.743 27.17 16.617 C 28.425 16.524 29.841 16.794 30.953 17.39 C 31.56 17.717 32.135 17.975 32.68 18.377 L 33.873 19.256 C 34.097 19.98 34.182 20.843 34.185 21.648 L 34.201 26.17 C 34.204 27.111 34.194 27.96 34.045 28.902 C 33.902 29.796 33.876 31.425 33.151 31.455 C 33.012 31.461 32.826 31.195 32.791 31.033 C 32.597 30.149 32.314 29.403 31.965 28.582 C 31.075 26.485 31.4 26.164 29.132 25.053 C 28.893 24.936 28.581 24.953 28.41 25.149 C 28.29 25.287 28.331 25.631 28.473 25.844 C 29.236 26.996 30.062 28.084 30.601 29.359 C 31.255 30.907 31.35 32.544 31.589 34.176 C 31.615 34.356 31.751 34.614 31.619 34.716 L 31.619 34.717 Z" fill="currentColor" fill-rule="nonzero"></path>
</svg>