<svg xmlns="http://www.w3.org/2000/svg" width="63.449" height="91.603" viewBox="0 0 63.449 91.603" fill="none">
  <path d="M 12.143 78.993 C 10.56 80.006 11.302 81.476 9.293 82.495 C 7.854 83.224 6.178 83.499 4.659 82.701 C 3.965 82.338 3.43 81.247 3.663 80.449 C 3.988 79.333 4.991 78.552 6.029 78.133 C 7.328 77.612 8.718 77.578 10.065 77.862 C 10.54 77.962 10.95 78.397 11.489 77.972 C 9.4 76.394 7.323 77.071 5.846 74.055 C 5.326 72.993 4.881 71.884 5.289 70.689 C 5.403 70.356 5.661 69.91 5.918 69.776 C 6.809 69.313 7.799 70.133 8.528 70.724 C 12.755 74.158 9.654 76.602 11.309 77.414 C 12.225 77.863 13.167 78.186 14.195 78.396 C 12.265 76.132 11.294 74.894 11.079 71.848 C 11.039 71.282 11.231 70.672 11.517 70.216 C 11.853 69.678 12.633 69.551 13.125 70.009 C 14.737 71.508 15.89 73.354 15.318 75.64 C 15.076 76.602 14.915 77.501 15.06 78.48 C 16.461 78.984 17.839 79.143 19.276 78.781 C 18.987 77.605 17.894 77.933 17.065 76.352 C 16.638 75.538 16.381 74.674 16.15 73.771 C 15.821 72.483 15.652 69.808 17.359 69.792 C 17.786 69.788 18.315 70.005 18.666 70.354 C 20.256 71.94 20.72 74.261 20.303 76.445 C 20.205 76.956 20.165 77.474 20.106 78.004 C 20.033 78.663 20.473 79.179 21.205 79.206 C 21.502 79.217 25.355 79.424 23.88 78.477 C 22.731 77.739 21.864 76.63 21.281 75.364 C 20.698 74.099 20.704 72.735 20.984 71.416 C 21.178 70.498 22.188 69.885 22.875 70.057 C 23.12 70.118 23.52 70.453 23.649 70.723 C 24.913 73.398 25.666 75.427 24.942 78.414 C 24.862 78.743 25.108 79.399 25.437 79.454 C 26.696 79.665 27.821 79.741 29.146 79.314 L 27.946 78.179 C 26.561 76.867 25.712 75.189 25.644 73.26 C 25.612 72.347 25.575 71.195 26.218 70.478 C 26.804 69.825 27.977 70.207 28.4 70.882 C 28.963 71.78 29.461 72.715 29.7 73.718 C 30.105 75.419 30.133 76.986 29.703 78.691 C 29.617 79.028 30.05 79.571 30.41 79.619 L 32.811 79.938 C 32.94 79.955 33.251 79.887 33.358 79.832 C 33.494 79.764 33.574 79.357 33.527 79.209 L 32.757 76.709 L 31.607 72.644 L 30.936 70.378 C 30.595 69.225 30.303 68.096 29.727 67.034 C 29.127 65.931 29.022 64.8 28.863 63.561 L 28.568 61.267 C 28.477 60.563 28.277 59.99 27.795 59.459 C 27.249 58.857 26.431 58.296 25.573 58.628 C 24.724 59.5 25.176 62.017 24.747 63.287 C 24.019 65.442 22.237 67.071 20.175 67.895 C 18.441 68.588 18.718 64.869 19.072 63.969 C 19.538 62.792 20.168 61.544 21.055 60.634 C 21.962 59.705 23.358 59.576 24.479 59.092 L 24.798 58.954 C 24.883 58.917 24.847 58.597 24.731 58.585 L 21.72 58.267 C 21.142 58.205 20.798 58.367 20.559 58.819 C 19.855 60.15 19.137 61.434 18.271 62.65 C 17.572 63.633 16.691 64.313 15.607 64.793 C 15.023 65.051 14.444 65.311 13.816 65.436 C 12.982 65.604 12.17 65.129 11.998 64.286 C 11.706 62.87 12.281 61.489 13.284 60.458 C 14.288 59.426 15.183 58.379 16.448 57.774 C 17.826 57.116 19.716 58.192 19.975 58.118 C 20.042 58.1 20.147 57.942 20.105 57.886 C 20.064 57.829 19.87 57.658 19.776 57.625 C 18.749 57.261 17.449 56.726 16.457 56.151 C 16.064 55.922 15.443 55.822 15.118 56.022 C 13.761 58.928 11.571 61.058 8.339 61.576 C 7.547 61.703 6.607 61.367 6.347 60.581 C 6.158 60.004 6.409 59.25 6.734 58.727 C 7.654 57.25 8.997 56.084 10.673 55.482 C 11.627 55.139 12.761 55.159 13.754 55.158 C 14.219 55.158 14.45 55.721 15.009 55.348 L 12.786 53.057 C 12.654 52.922 12.333 52.766 12.165 52.764 C 11.972 52.76 11.568 53.004 11.504 53.221 C 11.21 54.214 10.184 54.616 9.391 55.102 C 7.878 56.029 6.449 56.977 4.564 56.91 C 4.068 56.893 3.247 56.781 3.155 56.121 C 3.03 55.236 3.282 54.067 3.876 53.364 C 5.283 51.703 9.209 51.081 11.25 51.95 C 10.758 51.134 10.518 51.307 9.437 50.125 C 9.071 49.723 8.283 49.303 7.765 49.634 C 6.176 52.325 4.658 52.689 1.603 52.19 C 1.021 52.095 -0.022 51.525 0 50.884 C 0.154 48.218 3.739 48.127 5.645 48.419 C 6.243 48.51 6.719 48.559 7.325 48.305 L 5.802 47.357 C 4.638 47.794 3.628 47.364 2.924 46.481 L 1.505 44.699 C 0.911 43.953 0.252 41.114 1.876 40.539 C 3.647 39.912 6.198 42.663 6.632 44.773 C 6.809 45.627 6.499 46.447 6.331 47.353 L 8.286 48.438 C 8.33 48.462 8.613 48.438 8.617 48.392 C 8.624 48.324 8.627 48.202 8.643 48.113 C 7.145 46.204 6.368 41.33 8.173 39.762 C 8.93 39.104 9.761 39.845 10.138 40.461 C 10.577 41.177 10.774 41.729 10.808 42.549 C 10.882 44.247 10.59 45.734 9.831 47.243 C 9.375 48.149 9.407 49.252 10.142 49.963 C 10.878 50.673 11.662 51.315 12.621 51.93 C 12.537 51.272 12.348 50.796 12.087 50.262 C 10.867 47.762 10.538 44.398 12.521 42.186 C 12.977 42.064 13.599 42.492 13.904 42.896 C 15.033 44.391 15.441 46.401 14.977 48.246 C 14.547 49.955 12.763 51.703 13.2 52.378 C 13.801 53.305 14.71 53.909 15.546 54.574 C 16.098 55.012 16.737 55.22 17.485 54.973 L 16.401 52.766 C 15.249 50.421 15.156 47.739 16.661 45.51 C 16.959 45.068 17.663 45.06 18.159 45.213 C 18.576 45.341 18.972 45.775 19.142 46.303 C 19.927 48.749 19.238 51.879 18.273 54.248 C 18.013 54.884 18 55.998 18.746 56.369 C 19.404 56.695 22.002 57.522 22.475 57.027 C 22.576 56.922 22.518 56.54 22.442 56.409 L 21.254 54.382 C 20.454 53.018 20.195 51.623 20.386 50.05 C 20.508 49.049 20.68 48.083 21.407 47.346 C 21.903 46.843 22.582 46.807 23.1 47.318 C 23.805 48.015 24.123 48.911 24.281 49.904 C 24.799 53.162 24.684 53.733 22.958 56.734 C 23.043 56.955 23.441 57.286 23.669 57.31 L 26.282 57.591 C 26.775 57.645 27.398 57.195 27.597 56.73 C 29.172 53.066 26.847 51.362 27.34 48.57 C 27.552 47.374 27.707 46.239 27.518 45.04 C 26.672 39.645 29.014 38.713 26.439 35.695 C 26.08 35.275 25.694 34.851 25.228 34.647 C 24.485 34.32 23.749 34.641 23.425 35.32 L 22.572 37.107 C 21.94 38.428 20.901 39.299 19.61 39.949 C 19.004 40.254 18.396 40.568 17.701 40.575 C 16.815 40.584 16.218 39.966 16.285 39.046 C 16.341 38.277 16.702 37.521 16.986 36.782 C 17.241 36.115 17.602 35.667 18.196 35.277 C 20.746 33.595 20.595 33.939 23.859 33.812 C 23.706 33.376 21.262 31.17 20.91 31.399 C 20.193 32.761 19.238 33.726 18.092 34.651 C 16.995 35.535 15.801 36.139 14.339 36.201 C 13.597 36.232 12.764 35.796 12.79 34.922 C 12.827 33.627 14.238 31.953 15.132 31.166 C 16.285 30.151 17.96 30.162 19.268 30.797 C 19.715 31.014 20.108 31.055 20.65 31.047 C 20.547 30.785 20.385 30.545 20.189 30.429 C 18.341 29.34 18.231 28.225 17.49 28.186 C 16.821 28.151 16.596 29.802 14.808 30.846 C 13.135 31.824 10.565 33.5 8.925 31.803 C 8.501 31.364 8.648 30.575 8.992 30.111 C 10.685 27.825 12.907 27.169 15.675 27.447 C 16.227 27.504 16.587 27.866 17.303 27.83 L 15.195 25.769 C 14.819 25.401 14.016 25.075 13.674 25.67 C 13.172 26.542 12.573 27.22 11.645 27.667 C 10.799 28.074 9.928 28.411 8.976 28.469 L 7.19 28.579 C 6.812 28.602 6.248 28.253 6.083 27.976 C 5.323 26.712 7.352 24.93 8.298 24.45 C 9.309 23.938 10.51 23.871 11.636 24.031 C 12.68 24.178 13.306 24.906 13.94 24.827 C 14.031 24.816 14.024 24.502 13.961 24.428 L 11.915 22.017 C 11.834 21.922 11.582 21.809 11.481 21.82 C 10.898 21.879 10.937 23.436 9.082 23.919 C 7.472 24.339 5.794 24.279 4.263 23.586 C 3.874 23.409 3.608 22.909 3.571 22.517 C 3.433 21.1 6.721 19.864 8.983 20.494 C 9.754 20.71 10.406 21.182 11.222 21.48 C 11.314 20.969 10.913 20.624 10.54 20.409 C 9.301 19.695 8.671 18.546 8.191 17.253 C 7.646 15.79 7.847 14.151 9.112 13.12 C 9.873 12.499 10.867 12.768 11.392 13.578 C 12.541 15.351 12.581 17.643 11.507 19.481 C 11.104 20.169 11.242 20.754 11.738 21.353 C 12.149 21.849 12.711 22.335 13.379 21.93 C 12.743 20.325 11.896 16.551 13.362 15.331 C 14.112 14.708 15.073 15.278 15.437 16.049 C 16.253 17.782 16.183 19.81 14.793 21.186 C 14.312 21.664 13.898 22.179 13.928 22.819 C 13.957 23.46 14.244 24.053 14.764 24.474 C 15.284 24.895 15.625 25.272 16.354 25.631 C 16.011 23.818 15.13 18.665 17.358 17.885 C 18.068 17.636 18.854 18.314 19.091 18.968 C 20.201 22.042 18.432 23.578 16.954 25.868 C 16.645 26.347 17.224 27.022 17.572 27.254 C 18.943 28.163 19.119 29.133 19.804 28.705 L 19.24 26.966 C 18.777 25.539 18.935 24.125 19.575 22.793 C 19.863 22.193 20.203 21.519 20.728 21.157 C 21.511 20.618 22.162 21.187 22.53 21.788 C 23.208 22.894 23.105 23.864 22.811 25.075 C 22.423 26.676 21.531 28.211 19.874 28.847 C 19.652 29.794 20.702 29.97 22.085 31.353 C 22.387 31.656 22.913 31.852 23.319 31.558 L 23.037 28.899 C 22.883 27.447 23.047 26.233 23.968 25.144 C 24.474 24.547 25.397 24.372 26.114 24.644 C 26.781 24.897 27.199 25.635 27.209 26.368 C 27.219 27.06 26.991 27.732 26.808 28.387 C 26.322 30.128 25.176 31.364 23.311 31.99 C 25.005 33.142 26.425 34.192 27.619 35.722 C 27.77 35.916 28.142 35.828 28.342 35.665 C 29.248 33.789 28.608 32.651 29.348 30.785 C 29.795 29.659 30.543 28.692 30.919 27.545 C 31.344 26.25 31.507 24.914 32.2 23.728 L 33.515 21.474 C 34.189 20.318 34.153 19.09 33.428 17.972 C 33.037 17.37 32.14 16.305 31.488 16.804 C 31.357 16.904 31.233 17.169 31.189 17.395 C 30.761 19.574 29.352 21.364 27.189 21.955 C 26.512 22.14 25.464 22.049 25.145 21.357 C 24.771 20.543 25.337 19.637 25.821 19.012 C 26.384 18.286 26.858 17.509 27.641 17.037 C 29.236 16.078 31.268 16.653 31.404 16.095 C 31.431 15.983 31.285 15.789 31.173 15.707 L 29.371 14.412 C 29.188 14.281 28.701 14.2 28.5 14.237 C 28.299 14.274 28.051 14.62 27.974 14.844 C 27.621 15.884 26.951 16.511 26.171 17.188 C 24.146 18.948 21.528 18.959 21.413 17.834 C 21.259 16.34 23.263 14.764 24.427 13.941 C 24.839 13.65 25.458 13.515 25.963 13.567 L 28.57 13.833 L 26.813 12.557 C 26.356 12.225 25.809 11.79 25.327 11.524 C 24.728 11.574 24.673 12.291 24.451 12.675 C 23.705 13.965 22.366 14.656 20.916 14.884 C 19.994 15.03 18.814 15.382 17.992 14.793 C 17.271 14.277 17.724 13.03 18.281 12.526 C 20.117 10.859 21.593 11.135 23.988 11.364 C 24.159 11.38 24.657 11.267 24.662 11.096 C 24.673 10.74 24.063 10.256 23.726 10.248 C 22.767 10.607 21.845 11.198 20.758 11.007 C 19.514 10.787 18.35 10.082 17.471 9.215 C 16.788 8.543 16.899 7.165 17.783 6.813 C 19.191 6.253 20.668 6.963 21.538 8.046 C 22.047 8.682 22.653 9.218 23.499 9.142 C 23.049 8.355 22.518 7.737 21.944 7.147 C 20.861 6.029 20.603 4.558 21.441 3.211 C 21.651 2.875 22.023 2.542 22.375 2.48 C 23.821 2.229 25.133 4.848 25.06 6.428 C 25.02 7.304 24.585 8.093 24.368 8.933 C 24.069 10.09 26.367 11.556 27.536 11.532 C 26.302 8.793 26.157 7.323 27.776 4.868 C 27.909 4.667 28.373 4.475 28.588 4.495 C 28.804 4.515 29.19 4.758 29.311 4.999 C 30.416 7.196 30.821 9.953 28.604 11.595 C 28.5 11.671 28.344 11.883 28.318 11.996 C 28.293 12.11 28.393 12.416 28.488 12.51 L 30.16 14.157 C 30.484 14.475 31.01 14.792 31.337 14.309 C 30.812 12.398 29.823 11.714 30.892 9.344 C 31.238 8.575 31.599 7.901 32.307 7.394 C 32.72 7.098 33.475 6.937 33.824 7.394 C 34.546 8.339 34.524 9.506 34.336 10.607 C 33.88 13.293 31.931 13.927 32.413 14.958 C 32.834 15.86 34.815 17.922 35.394 17.128 C 36.497 15.617 36.083 14.895 38.142 12.157 L 39.799 9.953 L 40.952 8.014 C 41.399 7.263 47.053 1.865 47.83 1.471 C 48.665 1.046 49.489 0.717 50.416 0.45 C 51.126 0.245 51.883 -0.2 52.673 0.102 C 53.182 0.297 53.804 1.052 53.925 1.6 C 54.132 2.543 53.234 3.163 52.414 3.32 C 51.121 3.571 49.92 3.888 48.768 4.599 C 47.418 5.434 46.12 6.372 44.977 7.482 C 44.357 8.085 44.009 8.916 43.428 9.559 C 42.369 10.731 41.192 11.829 40.483 13.254 C 39.905 14.415 39.45 15.514 38.59 16.504 C 38.289 16.851 38.021 17.338 37.869 17.78 C 37.333 19.333 36.526 20.666 35.829 22.138 L 35.083 23.714 C 34.596 24.741 33.865 25.882 34.121 27.082 C 34.704 27.881 37.531 28.152 38.055 27.529 C 38.214 27.34 38.357 26.775 38.256 26.51 C 37.424 24.352 37.716 21.981 39.239 20.212 C 39.703 19.673 40.429 19.157 41.107 19.044 C 42.334 18.841 42.992 19.888 43.072 20.914 C 43.407 25.184 39.74 26.185 39.319 27.379 C 39.006 28.27 43.317 28.234 44.013 28.065 L 43.668 25.959 C 43.312 23.785 45.397 19.44 48.483 19.604 C 50.34 21.599 48.979 25.381 46.66 26.825 L 44.209 28.352 C 44.722 29.311 48.66 29.186 49.549 29.114 C 49.941 28.341 49.056 27.267 49.168 26.383 C 49.382 24.691 50.043 23.136 51.288 21.935 C 51.949 21.298 53.49 20.878 54.248 21.508 C 54.988 22.121 54.806 23.57 54.519 24.39 C 54.152 25.434 53.699 26.359 53.054 27.216 C 52.293 28.227 50.515 28.567 50.519 29.22 C 50.526 30.25 53.715 29.673 54.319 29.487 C 54.242 28.689 53.764 27.928 54.049 27.239 C 54.523 26.088 56.299 23.4 57.468 23.079 C 58.111 22.902 58.878 22.825 59.525 22.961 C 59.887 23.037 60.385 23.689 60.511 24.022 C 60.908 25.075 60.313 26.019 59.77 26.824 C 57.738 29.838 56.35 28.341 55.297 29.858 L 58.479 30.56 C 59.108 30.699 59.65 31.388 60.187 31.741 C 60.725 32.094 61.246 32.529 61.324 33.186 C 61.46 34.315 60.55 35.257 59.436 35.366 C 58.775 35.432 58.107 35.29 57.48 35.16 C 55.123 34.672 54.227 32.742 53.679 30.655 C 52.616 30.418 51.384 30.231 50.329 30.764 C 51.231 31.387 52.163 31.728 52.888 32.37 C 53.396 32.821 53.971 33.294 54.363 33.843 C 55.145 34.936 56.219 37.878 54.932 38.975 C 53.949 39.814 52.473 39.336 51.783 38.285 C 50.993 37.08 50.257 35.845 49.688 34.51 C 49.219 33.407 49.492 32.073 49.58 30.967 C 48.578 30.18 47.246 29.887 45.895 29.874 C 46.853 31.311 48.824 32.745 49.137 34.493 C 49.333 35.587 49.223 36.721 49.196 37.818 C 49.164 39.165 47.096 39.058 46.734 38.812 C 44.334 37.172 43.836 33.99 44.433 31.295 C 44.521 30.897 44.561 30.45 44.375 30.119 C 44.189 29.787 43.783 29.614 43.356 29.457 C 42.718 29.219 40.804 28.427 40.456 28.982 C 40.207 29.378 41.649 29.376 42.524 31.525 C 43.324 33.49 43.357 36.109 42.157 37.868 C 41.828 38.351 41.217 38.447 40.653 38.381 C 39.273 38.221 38.661 36.218 38.48 35.001 C 38.056 32.145 37.738 32.144 39.819 29.3 C 38.86 28.131 35.307 28.729 34.002 29.181 C 33.369 29.4 32.799 29.894 32.555 30.535 C 31.971 32.06 31.221 33.555 30.928 35.16 C 30.699 36.418 30.71 37.615 30.299 38.838 C 29.646 40.786 30.116 42.45 29.988 44.7 C 29.871 46.734 29.796 48.672 29.798 50.714 C 29.798 51.442 30.009 52.229 30.437 52.817 C 31.149 52.768 31.86 52.445 32.486 52.111 C 33.302 51.676 34.11 51.466 35 51.243 C 35.536 51.108 35.468 50.15 35.303 49.747 C 34.993 48.992 34.659 48.372 34.434 47.606 C 34.112 46.506 34.141 45.102 34.581 44.028 C 35.084 42.798 36.086 41.89 37.041 41.041 C 38.464 39.774 40.138 43.767 39.184 46.489 C 37.93 50.063 35.829 50.454 35.921 51.165 C 36.032 52.027 39.512 51.735 40.275 51.484 C 39.574 47.505 39.501 48.218 40.897 45.004 C 41.519 43.573 42.666 42.497 44.287 42.365 C 45.296 42.283 45.794 44.434 45.531 45.229 C 44.977 46.898 44.3 48.51 43.216 49.886 C 42.548 50.734 41.596 51.203 40.687 51.834 C 41.269 52.456 44.343 52.278 45.349 52.263 C 44.93 49.325 45.11 48.563 46.205 45.95 C 46.897 44.299 48.545 42.505 50.574 42.98 C 51.067 43.887 51.394 45.039 51.161 46.086 C 50.639 48.426 49.844 48.945 48.573 50.559 C 47.302 52.174 46.231 51.97 45.955 52.512 C 45.906 52.609 46.177 52.887 46.303 52.909 L 48.519 53.312 C 49.291 53.453 50.031 53.465 50.803 53.305 C 51.029 52.004 50.302 50.821 50.649 49 C 50.936 47.489 51.813 46.079 53.027 45.142 C 53.503 44.774 55.739 43.822 56.106 44.708 C 56.474 45.595 56.359 46.728 55.961 47.631 L 54.814 50.228 C 53.986 52.103 52.221 52.154 51.423 53.57 L 55.096 52.916 C 56.207 52.718 54.876 51.482 56.195 48.915 L 57.049 47.251 C 57.4 46.57 59.689 44.349 61.061 45.282 C 62.812 46.473 60.832 49.824 59.519 51.077 C 59.22 51.362 57.221 52.651 56.731 52.843 L 58.289 53.043 C 59.916 53.252 61.191 54.087 62.102 55.376 C 62.684 56.2 62.863 57.021 62.427 57.998 C 62.191 58.524 61.818 59.001 61.183 59.158 C 59.888 59.477 58.461 59.313 57.346 58.533 C 55.328 57.119 55.122 53.871 54.836 53.625 C 54.737 53.54 54.397 53.513 54.266 53.548 L 51.397 54.329 C 51.307 54.627 51.639 54.992 51.906 54.999 L 52.861 55.02 L 54.18 56.104 C 55.305 57.027 55.875 58.533 56.24 59.915 C 56.584 61.22 55.995 63.101 54.988 63.367 C 54.509 63.494 54.06 63.437 53.675 63.15 C 53.114 62.734 52.449 62.395 51.984 61.904 C 50.377 60.208 51.212 56.965 50.732 55.582 C 50.265 54.236 47.654 53.993 46.386 54.087 C 47.317 54.849 48.158 55.27 48.756 56.18 C 49.583 57.439 50.227 58.849 50.399 60.38 C 50.486 61.152 50.213 62.028 49.876 62.734 C 49.684 63.134 48.898 63.584 48.49 63.576 C 46.193 63.529 45.143 59.535 45.045 57.72 C 44.991 56.699 45.314 55.652 45.538 54.614 C 45.277 54.275 44.831 53.965 44.43 53.823 L 41.134 52.661 C 40.938 52.591 40.614 52.926 40.591 53.114 C 40.476 54.045 41.848 53.887 42.548 54.741 C 43.611 56.037 44.184 57.597 44.489 59.238 C 44.664 60.177 44.431 62.966 42.699 62.765 C 41.721 62.653 40.892 61.96 40.507 61.046 C 39.397 58.415 38.997 56.818 39.865 53.934 C 39.904 53.806 40.164 53.572 40.176 53.449 C 40.191 53.301 39.891 53.021 39.736 52.992 L 36.818 52.469 C 36.621 52.435 36.186 52.638 36.119 52.812 C 36.052 52.986 36.258 53.376 36.427 53.485 L 37.539 54.203 C 37.845 54.401 38.159 55.032 38.235 55.424 L 38.741 58.038 C 38.998 59.365 38.891 60.795 38.131 61.957 C 37.857 62.377 36.899 62.689 36.412 62.502 C 35.59 62.183 34.671 61.581 34.279 60.78 C 33.131 58.439 33.625 55.724 35.077 53.651 C 35.254 53.399 35.345 53.109 35.207 52.81 C 33.056 53.279 32.423 53.494 30.977 54.927 C 30.63 55.272 30.592 55.848 30.646 56.335 C 30.804 57.748 30.996 59.059 31.226 60.443 L 31.665 63.08 C 32.045 65.366 32.423 67.569 33.138 69.788 L 34.918 75.323 C 35.095 75.871 35.663 76.112 36.222 75.917 L 39.397 74.812 C 39.524 74.768 39.716 74.546 39.716 74.431 C 39.716 73.688 38.484 73.652 38.274 71.842 C 38.075 70.121 38.134 68.489 39.03 66.927 C 39.532 66.052 41.018 65.099 42.026 65.601 C 43.721 66.446 43.225 70.442 41.737 72.339 L 40.35 74.107 L 40.559 74.318 L 44.179 74.211 C 44.279 74.209 44.524 74.141 44.597 74.087 C 44.937 73.832 43.452 73.115 44.044 69.704 C 44.344 67.962 45.313 66.354 47.059 65.796 C 47.755 65.574 48.795 65.824 49.084 66.547 C 49.442 67.444 49.395 68.596 49.062 69.51 C 48.151 72.004 47.627 72.121 45.916 73.992 C 45.823 74.094 46.174 74.364 46.328 74.342 L 50.436 73.742 L 50.04 70.894 C 49.841 69.46 50.784 67.911 51.433 66.691 C 51.87 66.525 52.278 66.354 52.653 66.124 C 53.506 65.598 54.664 65.681 55.273 66.504 C 55.789 67.201 55.67 68.053 55.492 68.854 C 55.182 70.252 54.648 71.567 53.483 72.478 L 52.396 73.329 C 51.573 73.972 55.607 73.105 55.792 73.068 C 56.647 72.895 54.844 71.928 56.097 69.605 C 56.651 68.579 57.049 67.522 57.857 66.664 C 59.026 65.424 60.852 65.111 62.391 65.798 C 64.131 66.573 62.358 70.459 59.695 71.682 C 58.79 72.098 57.899 72.34 57.108 73.061 C 59.148 72.852 60.866 73.327 62.352 74.511 C 62.721 74.805 63.003 75.102 63.221 75.517 C 63.607 76.254 63.521 77.014 62.827 77.519 C 62.024 78.105 61.092 78.235 60.071 78.25 C 58.008 78.282 56.078 77.034 55.593 74.974 C 55.524 74.686 55.59 74.189 55.161 74.199 L 53.109 74.252 C 51.28 74.298 50.867 75.03 51.285 75.1 C 51.704 75.169 52.599 75.125 53.008 75.315 C 55.207 76.333 55.197 77.311 56.068 78.783 C 56.669 79.803 57 80.918 56.691 82.094 C 56.469 82.941 55.585 83.545 54.742 83.214 C 53.4 82.684 52.516 81.598 51.706 80.469 C 50.678 79.039 50.195 77.521 50.289 75.703 C 50.309 75.322 49.607 74.82 49.219 74.827 L 46.577 74.872 C 46.445 74.875 46.173 75.019 46.12 75.122 C 46.053 75.252 46.256 75.585 46.391 75.647 C 48.384 76.544 48.803 76.473 49.837 78.468 C 50.369 79.496 50.993 81.027 50.923 82.196 C 50.868 83.115 50.247 84.186 49.247 84.344 C 48.246 84.502 47.422 83.687 46.811 82.982 C 45.441 81.403 44.656 79.474 45.015 77.343 C 45.122 76.71 45.839 75.613 45.532 75.352 C 45.226 75.092 41.803 74.952 40.865 75.203 C 41.74 75.925 42.585 76.385 43.213 77.213 C 44.347 78.711 44.655 80.544 44.406 82.383 C 44.299 83.17 44.144 84.012 43.468 84.515 C 42.156 85.493 40.58 83.198 40.204 82.263 C 39.751 81.136 39.554 79.88 39.593 78.664 C 39.625 77.659 40.059 76.848 40.364 75.744 C 39.582 75.823 38.742 76.075 38.114 76.476 C 36.618 77.428 36.196 79.04 36.503 80.678 C 36.811 82.315 37.119 83.715 37.884 85.136 C 38.499 86.278 39.029 87.414 39.569 88.595 C 39.925 89.372 40.299 90.057 40.134 90.972 C 40.093 91.193 39.853 91.553 39.663 91.597 C 39.445 91.648 39.013 91.397 38.898 91.157 C 37.008 87.24 36.17 88.353 35.402 84.562 C 35.216 83.647 34.705 82.728 34.275 81.891 C 33.972 81.302 33.31 81.231 32.72 81.122 C 32.299 81.044 31.662 81.25 31.706 81.69 C 32.27 82.4 32.446 83.219 32.51 84.139 C 32.629 85.862 32.101 87.319 30.96 88.61 C 30.618 88.998 30.287 89.447 29.847 89.721 C 29.253 90.091 28.48 89.938 28.191 89.309 C 27.013 86.74 28.333 83.131 30.408 81.638 C 30.548 81.536 30.648 81.08 30.553 81.009 C 30.458 80.938 30.286 80.881 30.12 80.872 L 27.437 80.727 C 26.127 80.656 27.795 81.885 27.081 84.697 C 26.527 86.874 26.296 87.665 24.415 88.888 C 24.174 89.044 23.512 89.038 23.253 88.879 C 23.021 88.737 22.759 88.361 22.637 88.01 C 21.742 85.426 23.302 82.035 25.532 80.83 C 26.9 80.09 21.515 79.838 21.468 79.843 C 21.318 80.14 21.268 80.508 21.31 80.797 C 21.75 83.821 21.285 86.766 18.699 88.643 C 18.218 88.992 17.645 89.275 16.99 89.113 C 16.539 89.002 15.94 88.559 15.743 87.998 C 15.088 86.132 15.657 84.364 16.839 82.883 C 18.59 80.691 19.848 80.373 20.092 79.941 C 20.335 79.508 17.14 79.665 16.695 80.06 L 15.379 84.129 C 15.126 84.909 13 87.938 10.644 87.328 C 9.685 87.08 9.397 86.012 9.613 85.191 C 10.368 82.316 10.098 83.27 11.891 81.551 C 12.945 80.541 14.459 79.886 15.913 80.035 C 15.996 80.044 16.119 79.684 16.023 79.654 L 13.785 78.953 C 13.321 78.808 12.541 78.731 12.145 78.984 L 12.143 78.993 Z M 39.401 31.999 L 39.454 31.454 C 39.461 31.387 39.221 31.357 39.229 31.383 C 38.952 32.052 38.993 32.496 39.351 33.202 C 39.41 33.09 39.569 32.767 39.648 32.592 C 39.71 32.457 39.386 32.149 39.401 31.999 Z M 23.361 52.687 L 23.182 53.251 L 22.787 52.554 L 22.685 53.015 C 22.665 53.106 22.33 53.03 22.259 53.033 C 22.505 53.321 23.096 53.428 23.445 53.255 C 23.536 53.14 23.441 52.691 23.361 52.686 L 23.361 52.687 Z M 34.946 76.647 L 34.144 76.178 L 34.264 77.367 L 34.946 76.647 Z" fill="currentColor" fill-rule="nonzero"></path>
</svg>