<svg width="89" height="127" viewBox="0 0 89 127" fill="none" xmlns="http://www.w3.org/2000/svg">
<path d="M61.6225 108.95C60.9434 108.935 60.2271 109.365 59.6341 109.501C58.0528 109.86 56.9006 110.71 55.5034 111.47L53.5318 112.543C52.8966 112.89 52.6533 113.778 52.3915 114.533C53.8748 114.788 53.5234 113.329 55.9646 112.925C59.1424 112.401 57.3145 111.695 60.5176 112.631C61.5364 112.928 62.5669 113.248 63.5333 113.619C64.8764 114.136 65.4694 114.895 65.7887 116.248C66.037 117.299 66.211 118.09 65.3089 118.946C64.5621 119.656 63.5333 119.911 62.5889 119.161C61.6445 118.411 60.6596 117.878 59.5412 117.368C57.502 116.437 59.4651 116.086 54.586 116.814C53.547 116.97 52.6162 117.441 51.8981 118.174L49.7171 120.402C49.0835 121.05 48.6004 121.661 48.2794 122.521L47.1745 125.486C46.7454 126.635 44.3345 126.476 43.1519 126.275C43.0083 123.721 41.8021 121.788 40.2495 119.967C39.5365 119.13 38.9385 118.841 37.8961 118.515L34.5662 117.475C33.681 117.198 32.8683 117.179 31.9594 117.264C30.8647 117.365 30.2345 117.853 29.3966 118.465C28.4538 119.152 27.5956 119.713 26.9097 120.739C26.6766 121.088 25.9298 121.376 25.5227 121.267C25.1696 121.173 24.7928 120.563 24.6171 120.228C24.036 119.117 24.384 118.446 24.9736 117.593C25.9501 116.176 27.1581 115.338 28.8796 114.886C29.8696 114.626 30.9255 113.989 31.9898 114.545C34.1624 115.682 33.9276 114.371 35.9397 115.616C35.4971 113.782 32.8362 113.988 32.0743 113.307C31.1705 112.498 30.2666 112.501 29.1381 112.417C28.3356 112.356 27.4267 112.079 26.5988 112.082C25.1814 112.087 23.9853 112.792 22.7554 113.288C21.789 113.68 20.9139 114.076 20.4223 115.121C19.787 116.475 18.7092 117.5 17.3036 118.056C16.4166 118.407 15.7865 118.122 15.1141 117.514C14.2677 116.748 13.8673 115.67 14.5312 114.528C14.9671 113.778 15.4232 112.857 15.9622 112.121C16.8593 110.894 18.4845 110.409 19.7262 109.634C20.5439 109.124 21.3836 109.174 22.2604 108.958C24.1627 108.489 25.847 108.272 27.8 108.756C28.6431 108.963 29.4743 108.859 30.1348 109.649C30.9627 110.643 31.5083 109.654 33.6911 110.965C34.1185 111.222 34.9852 111.337 35.3704 111.607L37.4889 113.381C40.562 115.954 39.0567 117.377 40.5502 117.311C40.8864 116.419 40.5958 115.158 39.9707 114.449C38.3894 112.658 39.5906 112.628 36.7861 109.208L34.5679 106.503C34.0172 105.831 32.892 105.542 32.4544 104.741C32.1638 104.209 31.8445 103.777 31.2803 103.593C28.415 102.66 29.3019 101.305 26.8472 101.733C25.5311 101.962 24.3772 102.108 23.0426 102.221C22.3736 102.277 21.6843 102.579 21.0947 102.919C19.3596 103.915 18.128 103.133 16.7714 103.611C15.5651 104.037 14.6816 103.952 13.5446 103.31L11.5325 103.165C11.0983 101.579 12.1609 100.177 13.4939 99.3774C15.3759 98.2489 15.9351 98.7051 15.9858 98.0073C16.0027 97.7809 15.5635 97.4819 15.2948 97.4735C14.1021 97.4346 13.0479 97.3721 11.894 97.2234L7.87483 96.7014C7.09769 96.6 6.56721 96.2486 6.03166 95.6877C4.98421 94.5879 3.91479 94.2179 4.09894 93.3056C4.15807 93.0117 4.58212 92.6552 4.91325 92.4609C7.60621 90.8813 8.54723 92.0926 9.12839 91.3577C9.9106 90.366 5.99111 89.0685 5.29506 88.8388C2.8589 88.0346 3.49244 86.803 2.54804 86.2066C1.25731 85.3923 0.959972 84.2469 0.763997 82.8125L0.0223352 81.0961C-0.052 80.9237 0.0730182 80.3933 0.194658 80.275C0.657563 79.8205 1.7388 80.4169 2.74233 80.3493C3.58367 80.2936 4.34053 80.0216 5.0805 80.4017C7.35111 81.5691 7.37476 80.2784 8.71279 82.2432C9.25341 83.0372 9.76531 83.7654 9.88695 84.7672C9.95284 85.2994 10.3178 85.688 10.8989 85.7876C11.1591 85.8316 11.6727 85.7792 11.8535 85.6457C12.438 85.2183 11.7994 84.1235 12.3079 83.3971C12.5225 83.0913 13.205 83.0575 13.5294 83.0507C15.261 83.017 16.0145 83.914 16.7663 85.1575C17.3576 86.1373 17.9675 86.8621 17.8408 88.1748C17.7563 89.0482 18.3493 90.1447 19.1924 90.4065C19.4846 90.4978 20.0202 90.4876 20.1959 90.3407C20.3716 90.1937 20.4966 89.6632 20.424 89.4368L19.7634 87.3605C19.5877 86.8081 19.76 85.8265 20.3885 85.6119C21.2231 85.3264 22.6236 85.59 23.1946 86.3147L25.5041 89.2493C26.9874 91.1347 27.9419 93.1755 27.8423 95.6489C28.9911 97.8823 28.7546 99.7255 31.1806 100.835C32.0844 101.249 32.8278 101.95 33.5357 102.665C34.1354 103.27 34.9328 103.807 35.3856 104.485C35.8097 105.118 36.0529 105.579 36.8047 105.843C37.1781 105.975 37.7035 106.345 37.9231 106.683C39.0432 108.406 39.371 109.188 40.9574 110.894C41.0182 108.666 40.0484 106.743 39.1446 104.789C38.8135 104.072 38.8641 103.201 38.6479 102.42C38.4485 101.699 37.6545 101.091 37.516 100.354L37.0328 97.7961L34.4328 91.9169C33.953 90.8306 33.0778 90.0991 32.794 88.7762C32.6774 88.2339 31.7989 87.521 31.3867 87.0969L29.0435 84.6946C28.241 83.8718 26.9384 83.642 26.0565 82.7602C25.6291 82.3327 24.9753 81.983 24.4279 81.7212L21.8127 80.4727L16.8491 78.8069C16.2595 78.6092 15.4452 78.616 14.8252 78.469L12.7843 77.9858C12.0427 77.8101 11.7284 77.4384 11.6896 76.6326C11.6592 76.0024 11.9413 75.352 12.7438 75.2675C17.7175 74.7387 16.3254 75.504 18.8004 75.8757C19.9695 76.0514 20.5574 77.6716 21.3988 77.0364C21.8245 76.7154 21.3886 76.1578 21.1487 75.8622L20.1621 74.6407L18.4068 72.8465C17.2563 71.6707 15.5651 71.1588 14.1916 70.3056C13.0901 69.6214 12.0207 69.3055 10.7587 68.9659C9.75855 68.6956 8.79388 68.3628 7.74812 68.1381C5.85596 67.7309 5.62281 67.6617 4.04319 66.2831C3.41641 65.7357 3.69348 64.6274 4.01954 64.1358C5.03827 62.6052 6.54018 63.558 9.15373 63.8689C11.3568 64.1308 10.9175 65.3556 13.45 66.0094C14.8843 66.3811 14.6444 67.0197 16.665 68.1296C16.8576 68.2361 17.4353 67.9438 17.3813 67.7478C16.9387 66.1699 15.7881 64.8505 15.0076 63.4212C14.2947 62.1153 13.901 60.6978 13.3469 59.2601C13.2118 58.9087 13.5108 58.0893 13.7676 57.8613C14.864 56.8881 16.964 59.1604 17.0907 59.4324C17.5722 60.4613 18.0959 61.3956 18.4963 62.4092C19.2684 64.3588 19.5657 66.452 20.6267 68.3273C21.343 69.5927 21.8634 71.6166 23.1473 73.8518C23.6913 74.7979 24.357 75.6138 24.808 76.6123C25.1814 77.4367 25.6832 78.148 26.3049 78.8018C27.1327 79.6719 27.7696 80.5521 28.5383 81.5083C28.7613 81.787 30.7701 83.4782 31.0674 83.0727C31.4999 82.4797 30.3916 81.1788 30.0757 80.0892C29.6027 78.4605 29.3763 76.8049 28.5755 75.3064C26.9536 72.2738 27.8186 70.3969 26.7543 68.1736C26.3691 67.3694 25.7626 66.6953 25.6477 65.7644C25.5125 64.6798 24.8553 63.8706 24.5648 62.8451L23.1 57.6788L21.2754 52.2152C21.0879 51.6543 20.277 51.1576 20.3023 50.4801C20.4628 46.3173 18.792 47.0877 18.8055 44.7242C18.8274 40.8486 17.2833 40.4956 17.0637 38.3871C16.8745 36.5778 16.2037 35.086 15.2239 33.5773C14.9333 33.1296 14.8319 32.295 14.788 31.7324C14.6765 30.3235 14.1916 29.2203 13.6274 27.9616C13.2979 27.2233 13.4297 26.1708 13.1357 25.4038L12.1525 22.8359C11.7943 21.8982 11.3466 21.1397 11.4412 20.0466C11.5916 18.3318 10.7638 18.6005 10.2755 15.7571C9.84302 13.245 8.62156 14.3313 9.28213 11.8917C8.51344 10.0215 9.35816 9.14807 8.19751 8.87438C5.87454 8.32701 4.71052 8.53988 3.8979 5.12384C3.74416 4.48016 3.94183 3.48002 4.20538 2.92757C4.70545 1.88012 5.78669 1.5152 6.68209 1.02527C7.63662 0.503232 8.37997 0.368077 9.3345 0.989789C10.9547 2.04569 11.6575 1.60136 12.4279 4.68796C12.5884 5.32995 12.0781 6.12398 11.9329 6.72711C11.3889 8.98082 9.96804 8.09893 10.2198 9.44879C10.4715 10.7987 11.8315 9.65659 12.9347 10.2209C14.0379 10.7851 15.0059 10.8324 16.1514 11.1281C16.9049 11.3224 17.7124 11.689 18.4811 11.9576C19.1957 12.2076 19.907 12.7905 20.6233 12.9746L23.1558 13.6268C24.112 13.8734 24.7776 14.1893 25.5041 14.9141C25.7812 15.1912 26.6647 15.203 27.0415 15.4074C28.54 16.2234 29.7429 17.3131 31.2296 18.1004L33.2434 19.1647L36.6493 21.7969C37.5954 22.5284 40.4792 23.2397 43.0776 25.2214C43.6469 25.6555 44.267 25.9411 45.0188 26.0002C49.2356 26.3398 48.4365 27.6204 50.925 27.7082C51.9167 27.742 52.7834 28.0562 53.7143 28.4093C54.8817 28.8536 56.1741 28.6763 57.4479 28.7844C57.8973 30.2322 56.2755 29.3453 54.3681 32.1109C53.6315 33.1786 52.5368 33.8645 51.5687 34.7261C51.1024 35.1417 50.8659 35.9983 50.4554 36.4798L46.1017 41.5869C45.5813 42.1985 44.7349 42.6732 44.3633 43.376C43.7415 44.5502 42.8867 45.3392 42.0572 46.3258C40.6178 48.0372 39.2578 49.6438 37.4754 51.0444C36.7118 51.6441 36.0816 52.5176 35.2589 53.0295C34.2587 53.6529 33.5627 54.3236 32.9646 55.3389C31.7635 57.3798 30.7076 56.7158 29.4151 58.5016C28.7377 59.4358 27.9943 60.1521 27.0719 60.9833C27.5145 62.2065 27.8828 63.5547 28.4403 64.6714C28.9843 65.7611 29.3526 66.5788 29.3898 67.8712C29.4134 68.7007 30.15 69.5961 30.2227 70.4476C30.3139 71.5187 30.6535 72.3414 30.9491 73.35L31.7955 76.2271C32.2247 77.6834 32.5778 78.9809 33.0761 80.3865L34.9142 85.5832C35.0646 86.0089 35.3417 86.4279 35.7049 86.6898C36.5969 85.3687 36.7625 84.0813 36.4567 82.6537C36.129 81.1299 36.1931 79.5857 36.085 78.0534C35.9921 76.7103 35.9144 75.4652 35.9685 74.1069C36.0664 71.6775 36.1982 69.7279 38.0296 67.7782C38.609 67.1616 39.523 66.4436 40.388 66.648C40.8915 66.768 41.7058 67.6617 41.5943 68.1685C41.3257 69.3984 40.6009 72.4039 40.089 73.274C39.4115 74.4262 38.8236 75.2709 38.5651 76.6495C38.4722 77.1479 37.8167 77.9959 38.5786 78.4132C39.6007 78.6143 40.0738 75.8048 41.8933 76.4603C42.4677 76.6664 43.0218 77.7983 42.7313 78.4284C42.0927 79.8155 41.0807 81.0116 40.5468 82.4307C40.2546 83.2062 40.1684 83.9647 39.6632 84.6253C39.202 85.2301 39.099 85.9363 39.0061 86.6898C38.6175 89.871 37.8049 90.5772 38.4063 93.5371C38.8405 95.6759 39.4335 97.9735 40.5722 99.8505C41.8088 101.891 40.7648 102.255 42.2667 104.417L42.6417 106.409L43.2364 107.894C43.2972 108.044 43.4425 108.338 43.5726 108.31C43.7027 108.281 43.9037 107.982 43.9257 107.823L44.37 104.491L44.8481 100.3C44.9326 99.5599 44.6876 98.5564 44.9731 97.8857C45.5492 96.5358 45.4817 95.3008 45.6185 93.8868C45.7199 92.8275 46.1456 91.7986 45.9969 90.6752C45.708 88.4992 47.4042 88.1917 47.188 86.7878C47.0444 85.8485 47.634 85.1271 47.9381 84.3009C48.3385 83.2129 47.8773 81.6046 47.2995 80.6365C46.8619 79.905 46.5274 79.3745 46.5781 78.4977C46.6997 76.3589 45.1725 77.6868 45.9885 73.5916C46.4987 71.0355 45.311 72.6776 47.3755 68.3476C47.6594 67.7512 48.9974 66.8778 49.4907 67.5688C50.1884 68.5469 50.425 69.8613 51.0805 70.9341C52.8594 69.2734 50.7544 67.8408 52.5503 64.6274C53.0064 63.8131 54.5539 61.2317 55.6183 61.9007C56.5154 62.4633 55.3057 63.678 56.7215 64.0395L57.8348 62.5866C58.8688 61.2368 59.9196 59.799 61.4147 58.9172C62.1175 58.5032 62.9606 58.3546 63.7242 58.0065C63.9675 57.8967 64.5469 57.819 64.7446 57.9592C64.9423 58.0995 65.1602 58.5725 65.1737 58.8242L65.2954 61.1168C65.3376 61.9142 65.047 62.5562 64.748 63.2691C64.2158 64.5379 63.5113 65.511 62.6463 66.5602C61.7813 67.6093 61.0904 68.4658 59.8486 69.0352C59.3756 69.2514 58.933 69.8799 59.2844 70.3732C60.1933 70.1097 63.8864 68.6753 64.3763 69.5657C64.7007 70.157 63.856 70.826 63.3643 71.6234C62.92 72.3448 62.5636 73.0881 61.8472 73.5325C59.3942 75.0563 57.6051 74.0038 56.6488 75.6493C56.5694 75.7845 56.5559 76.1511 56.6353 76.2829C57.0002 76.8877 57.5882 75.7372 59.2658 76.2271C60.5582 76.6055 61.533 76.5565 61.7611 76.8269C61.8591 76.9417 61.8219 77.3742 61.7205 77.4959C58.4903 81.3833 59.5682 79.4066 57.1354 81.1772C54.3157 83.2298 52.2968 81.6874 50.5196 85.7285C50.234 86.3755 49.4873 86.9956 49.3454 87.7187C48.5362 91.8544 48.2726 88.0886 47.8317 95.1572C47.6188 98.5581 46.5494 97.5089 47.313 101.881C49.2998 101.526 48.8234 99.5312 50.6632 98.5243C53.4761 96.9835 51.567 96.2368 55.3125 94.1672C55.968 93.8057 56.5103 92.961 57.1438 92.5319C58.9194 91.3341 57.1286 90.7512 59.1222 88.3505C60.1848 87.0716 59.21 85.1051 62.3473 83.1622C63.6026 82.3851 64.8088 81.7904 66.2364 81.3056C66.5101 81.2126 67.3126 81.2532 67.2112 81.5319C66.1553 84.4057 67.4257 83.1572 66.0658 85.1896C65.9576 85.3501 66.0015 85.8805 66.1519 85.9785C66.3023 86.0765 66.7567 86.0005 66.8817 85.8687C68.7486 83.8955 68.3093 83.7214 70.7016 81.8901C71.4652 81.3055 72.7019 80.6906 73.7324 80.7396C74.3474 80.7683 75.4016 81.0116 75.8864 81.2262C76.8156 81.7009 76.1432 83.0609 75.5908 83.5289L74.1801 84.725C73.952 84.9193 73.8388 85.764 74.121 85.818C76.6129 86.2961 80.2165 82.8818 83.6325 85.5207C84.8235 86.4398 85.2003 85.84 85.8423 86.2742C85.9943 86.3772 85.9808 86.9263 85.8659 87.0919L84.68 88.8235C84.4248 89.1969 83.6882 89.4638 83.2473 89.7392C79.0541 92.3494 78.5726 89.9555 77.265 90.1835C76.9812 90.2325 76.5926 90.5468 76.5605 90.7765C76.4102 91.8358 77.6705 91.0874 78.4696 92.3764C78.6436 92.6569 78.8767 93.0488 78.9139 93.2904C78.9545 93.5624 78.6183 94.1318 78.3902 94.2939C77.3799 95.0153 76.2277 94.9275 75.0569 94.7788L72.8421 94.4984L71.6899 93.5641C69.7504 94.6048 72.3268 96.1067 72.092 97.3772C71.9703 98.031 70.1863 99.8116 68.1961 99.2474L65.2497 98.4128C64.1195 98.0918 63.1312 97.4583 61.9368 97.2336C60.9738 97.0511 60.2862 96.3466 59.7219 95.5762C59.2793 94.9714 58.3974 94.5693 57.7875 95.1522C56.9918 95.9141 56.2772 96.8281 55.4409 97.5377C53.596 99.1004 51.7512 101.579 50.5179 103.626C48.5548 106.889 49.7019 107.21 48.374 108.533C47.7269 109.178 47.759 109.762 47.759 110.626C47.759 111.991 46.9515 113.307 46.9396 114.665L46.916 117.16C46.916 117.23 46.9734 117.475 47.0241 117.466C48.1172 117.28 48.1645 115.677 48.4027 115.167C50.7274 110.175 50.278 111.557 53.4507 107.732C54.0049 107.063 54.9341 106.823 55.669 106.397C57.3111 105.444 58.8079 104.478 60.5227 103.615C61.5837 103.081 64.2648 103.476 66.5168 103.253C68.4495 103.062 69.2013 104.162 70.8232 104.517C71.8892 104.75 72.6444 105.194 73.4891 105.774C74.8812 106.728 75.4759 107.907 75.7648 109.528C75.9337 110.48 76.128 111.051 75.3424 111.91C74.8914 112.401 74.5197 112.834 73.7493 113.074C72.4704 113.469 70.7218 113.381 69.9751 112.068C69.671 111.535 69.7166 110.994 68.9125 110.839C67.8413 110.631 65.9897 108.796 64.1854 108.884C63.3289 108.926 62.6311 108.97 61.6293 108.948L61.6225 108.95ZM25.2676 57.4693C25.5092 56.9017 25.5852 56.4016 25.5598 55.8846C25.4095 52.6595 26.2339 53.3623 25.8318 50.203C25.3689 46.5623 26.4975 46.8597 25.4382 43.697C24.4668 40.7946 25.1561 40.2827 24.3654 37.8212C23.2352 34.3055 24.3367 34.0335 22.9716 31.479C22.4428 30.489 22.3398 29.3149 21.8836 28.2911C21.3548 27.1068 20.3716 26.1286 19.9306 24.8953L18.6602 21.3374C18.4727 20.8119 17.7057 20.3102 17.4235 19.7932C16.7967 18.6393 16.3034 17.455 15.5246 16.4397C14.9688 15.7149 14.4011 15.0848 13.999 14.2738C13.6645 13.5964 12.9719 13.1622 12.1846 13.4713L13.1188 16.4836C13.406 17.4111 13.3756 18.5937 13.8723 19.4131C14.5937 20.6024 14.6731 21.7276 14.9519 23.042C15.1631 24.0337 15.7223 25.0288 15.7881 26.1353C15.8709 27.5393 16.2815 28.7692 16.7545 30.0684C16.9826 30.6968 17.0383 31.5399 17.3982 32.0805C18.9896 34.4795 17.8611 34.4322 19.02 36.544C19.4424 37.3143 19.586 38.0797 19.662 38.997C19.7161 39.6424 20.054 40.2911 20.2567 40.9297C20.4932 41.6748 20.4746 42.6428 20.8852 43.2933C21.4934 44.2545 21.7113 45.1685 22.0914 46.2261L23.2656 49.5036C23.7538 50.867 23.2892 52.4855 23.9532 53.8184C25.4467 56.8206 24.1373 56.6212 25.2642 57.4693H25.2676ZM35.1271 39.2961C35.5275 38.8348 36.183 38.7521 36.6763 38.9987L39.0365 40.1813C39.6514 40.4905 40.2765 40.7202 41.0874 41.0649C40.6482 38.355 39.4774 38.1979 38.903 35.9104C38.805 35.5168 38.9317 34.6636 39.273 34.4541C40.9776 33.4134 42.3984 32.3018 43.7044 30.7289C42.4812 30.0227 40.5739 31.572 39.0162 31.109C35.8029 30.1511 36.2624 31.1158 35.5799 29.6612C34.8044 28.0072 33.8398 26.5847 32.5642 25.1639L32.1892 26.8094C30.814 28.5377 31.5016 30.2441 30.9931 31.0634C30.6265 31.6547 29.6854 32.1869 29.0435 32.1244C28.1565 32.0382 27.3827 31.6868 26.5532 31.8169C26.1849 31.8744 25.7406 32.4842 25.8133 32.7748C26.0785 33.8493 27.1834 33.432 28.0788 34.2463C28.7833 34.8866 29.4996 35.412 30.3629 35.7381C31.3647 36.1148 31.7161 36.919 31.5033 37.9901C30.89 41.07 31.5928 40.6189 31.0133 43.5872C32.1233 42.9503 32.8041 41.9755 33.5931 41.0649L35.1271 39.2961Z" fill="currentColor"/>
<path d="M72.146 51.0275C69.6828 50.247 69.9362 51.4549 65.9627 51.6289C64.6652 51.6864 63.5705 52.0733 62.6125 52.8724C60.0767 54.9892 58.0291 53.3015 55.8616 55.5923C54.6519 56.8712 53.4237 55.9302 50.4165 57.6197C47.112 59.4747 46.3889 58.0775 44.6319 59.4122C44.0389 59.8615 43.3716 59.9899 42.6367 60.0052C40.3255 60.0525 38.234 60.6792 36.0107 61.2013C34.7909 61.4868 32.0574 60.9479 30.1855 61.3111C30.0554 59.8818 32.691 59.2567 34.2131 57.4423C34.7859 56.7597 35.2336 56.209 36.0394 55.839C37.2761 55.2697 38.1951 54.3168 38.9334 53.2001C39.4909 52.3554 40.2343 51.8891 41.1297 51.4397C42.3241 50.8383 43.0624 49.5036 45.0678 48.1419C47.4026 46.5572 47.9415 48.3599 51.2747 46.5657C52.0823 46.1298 53.0892 46.0437 53.9795 45.7649C56.4393 44.9945 58.8299 43.1023 60.7035 42.8929C61.9013 42.7594 63.1194 42.9283 64.1989 42.4215C69.2385 40.058 67.9393 41.8674 72.5633 40.847C75.1144 40.2844 75.0214 40.8976 78.3175 40.705C79.7755 40.6206 80.5493 41.8285 82.5293 42.533C83.548 42.8945 84.7154 43.3034 85.6598 43.7747C86.3221 45.0486 86.9337 46.1433 87.704 47.3378C88.1416 48.0152 87.8527 49.0154 88.1484 49.7807L88.743 51.3248C89.1857 52.472 88.2142 55.7258 88.341 56.5993C88.5369 57.9491 87.9895 58.9087 87.3087 60.0102C86.9472 60.5931 86.687 61.426 86.1548 61.8534C83.8116 63.732 85.2966 63.5242 83.0547 65.0616C82.3925 65.5161 81.8721 66.0466 81.2572 66.6429C80.5054 67.3745 79.2062 66.9454 77.1822 68.6973C77.0741 68.7902 76.7818 68.8544 76.6754 68.8629C76.5318 68.873 76.5571 68.3476 76.6855 68.2259L78.5541 66.4588C79.3396 65.7154 79.561 64.8302 80.2029 64.0176L81.8349 61.9463C82.3181 61.3347 82.237 60.2957 82.5225 59.5845C83.3588 57.4963 82.6087 57.5369 82.4279 54.9183C81.8637 53.9908 80.877 53.4468 79.9884 52.847C78.2179 51.6509 78.3023 50.9092 74.7832 51.3704C73.8929 51.487 73.0043 51.2995 72.1477 51.0292L72.146 51.0275Z" fill="currentColor"/>
<path d="M50.4097 15.1523C48.1121 15.4851 47.5749 16.9414 45.8381 16.9313C44.7856 16.9262 43.8547 17.0462 42.907 17.455C40.7124 18.3994 40.2833 17.2202 38.0498 18.1376C36.9517 18.5886 36.2894 18.0024 35.4245 17.5344L32.9967 16.2217C32.3564 15.8754 31.8429 15.4277 31.1434 15.1912C29.8206 14.7418 28.4859 14.3651 27.3118 13.6133C26.6191 13.1706 26.0481 12.4019 25.2912 12.086C23.9752 11.5369 22.681 11.1078 21.2231 10.6061C21.8769 9.77654 22.9074 10.0773 23.7572 10.1854C25.4112 10.3932 26.9756 10.182 28.611 9.88636C29.9389 9.64646 31.3681 10.0519 32.6436 9.7191C33.4495 9.50961 34.1743 8.91324 35.0308 8.9521C37.9535 9.08219 39.594 6.98053 41.9676 6.97208C43.1655 6.96701 44.1673 6.98053 45.088 6.06654C46.7268 4.43962 47.7421 5.50058 50.1445 3.90913C52.0738 2.63192 52.7783 3.62362 55.7163 1.87505C56.7249 1.2753 57.6912 1.0844 58.8231 0.86815C60.2828 0.589393 61.6986 -0.0323193 63.2123 0.0301899C64.3054 0.0741152 65.466 0.391729 66.5236 0.183928C68.0407 -0.115102 69.3551 -0.0238721 70.8756 0.273469C71.8284 0.459306 72.9772 0.263332 73.8608 0.667107L75.7361 1.52534C78.103 2.60827 78.9139 1.63515 80.2908 2.99008C81.9228 4.59504 83.9535 3.79425 84.1005 4.72682C84.239 5.60871 83.8285 6.52269 83.3047 7.15623C82.5107 8.11583 82.2894 9.11091 81.987 10.28C81.7403 11.2379 81.3366 12.0843 81.3366 13.1419C81.3366 13.2956 81.2622 13.62 81.1642 13.7028C81.0426 13.8058 80.6287 13.745 80.4783 13.6504L79.2738 12.8851C78.0489 12.7297 77.0319 12.1857 75.9084 11.9204C74.7815 11.6535 73.7088 11.8005 72.6681 11.096C70.6526 11.297 69.3196 10.5114 67.7569 10.8781C66.3867 11.199 65.1788 11.1501 63.7428 11.096C60.7187 10.9845 59.8942 12.1451 56.8702 12.6705C53.2835 13.2939 53.1297 14.757 50.4131 15.1523H50.4097Z" fill="currentColor"/>
<path d="M58.6238 33.6246L54.9357 35.2684C54.7111 35.3681 54.2532 35.3276 54.1451 35.1231C54.6536 34.4744 55.3412 33.9541 55.7213 33.3628C56.2957 32.4674 56.8955 31.8997 57.6287 31.1276C58.3974 30.3167 59.4212 29.2304 60.4991 29.0665C60.6849 29.0378 60.9535 28.7269 60.9704 28.5901C60.9907 28.4195 60.7339 28.041 60.5531 27.9971L58.6424 27.5258C58.1676 27.4092 57.6743 26.9868 57.2199 26.779C55.1638 25.8363 53.2244 26.4394 51.1413 26.2435C51.5636 24.8328 52.998 25.5626 56.0542 24.1722C56.86 23.8056 57.9075 23.9577 58.737 23.6232L62.2578 22.2023C63.5029 21.7006 64.8612 21.8526 66.1705 21.5029L68.0458 21.0012C70.1491 20.4369 72.1528 20.8576 74.2426 21.1498C75.5401 21.3323 76.6957 21.0299 77.8918 21.9016C78.7923 22.5588 80.4276 22.2834 81.0967 23.0048C81.1017 24.0506 81.4193 24.9865 81.4751 25.9884L81.6474 29.1088C81.6981 30.0143 82.1745 30.9215 82.4668 31.8135C82.8013 32.834 83.7204 33.677 83.4348 34.8647C82.7692 34.2092 82.1711 34.0672 81.5258 33.6854L79.2146 32.3187C77.8073 31.4875 76.0689 31.4131 74.3947 31.0702C72.8387 30.7526 70.1964 31.7629 67.4798 31.501C65.2058 31.2814 64.699 32.8424 61.0752 32.9624C60.2271 32.9911 59.4465 33.2648 58.6272 33.6297L58.6238 33.6246Z" fill="currentColor"/>
</svg>
