<svg xmlns="http://www.w3.org/2000/svg" width="122.761" height="112.448" viewBox="0 0 122.761 112.448" fill="none">
  <path d="M 36.108 54.501 C 37.961 54.28 36.89 52.914 37.973 51.177 C 40.536 47.069 41.772 46.452 47.15 46.277 C 46.674 44.815 46.204 43.55 45.697 42.233 C 45.223 41 45.593 39.366 44.989 38.234 L 43.182 34.847 C 42.536 33.638 41.542 32.613 40.741 31.504 C 39.859 30.284 38.855 29.425 37.607 28.628 C 36.71 28.053 35.957 27.624 34.812 27.862 C 32.119 28.419 33.516 30.812 30.837 32.247 C 30.175 32.601 28.564 31.607 28.044 32.323 C 27.243 33.427 25.895 33.787 24.589 33.058 L 21.772 33.408 C 21.438 33.449 20.78 33.201 20.556 32.984 C 20.304 32.741 20.163 31.938 20.302 31.539 C 20.977 29.626 23.037 29.881 23.658 27.75 C 23.858 27.065 24.362 26.682 25.105 26.701 C 28.409 26.783 27.235 27.332 30.992 25.707 C 30.307 23.653 26.949 26.786 25.349 23.827 C 24.794 22.8 22.006 24.779 20.07 22.569 C 19.393 21.798 19.505 20.712 19.523 19.589 C 17.799 18.921 15.749 17.321 15.758 15.25 C 15.764 13.934 17.855 13.803 18.729 14.195 L 21.006 15.221 L 21.765 14.635 C 22.366 14.17 23.105 13.909 23.877 14.186 C 25.227 14.669 25.099 16.163 25.678 16.54 C 26.452 17.043 28.024 15.248 29.33 16.621 C 30.976 18.352 29.759 19.753 32.063 20.633 C 32.363 19.5 32.129 18.48 31.609 17.426 C 29.775 13.721 32.162 14.159 31.551 12.646 C 31.125 11.594 30.847 10.274 31.168 9.207 C 31.408 8.404 32.406 8.508 32.976 8.661 C 34.822 9.154 35.874 10.559 35.818 12.48 C 35.795 13.236 36.164 13.981 36.876 14.298 C 38.731 15.126 38.253 16.505 38.493 18.078 C 40.863 22.535 34.795 23.482 37.923 26.365 C 38.629 27.015 39.228 27.678 40.093 28.048 C 41.138 28.493 41.612 29.357 42.219 30.28 L 44.805 34.207 C 45.535 35.313 45.879 36.282 46.825 37.271 C 47.624 38.103 48.436 46.32 50.028 44.42 C 50.914 43.362 52.233 42.857 53.696 42.728 C 53.578 40.877 52.514 41.037 52.024 38.188 C 51.786 36.801 51.58 35.424 51.576 34.011 C 51.572 32.45 51.109 31.172 50.754 29.676 C 50.432 28.326 51.094 26.723 51.206 25.309 C 51.378 23.183 51.421 21.109 51.287 19.024 L 49.241 16.89 C 46.96 14.513 46.511 11.826 47.61 8.804 L 49.121 4.649 C 50.107 1.935 49.693 0.053 50.519 0.001 C 51.345 -0.051 51.74 2.581 52.887 4.463 L 55.032 7.984 C 56.727 10.766 56.559 13.907 54.731 16.697 L 53.377 18.763 C 53.282 20.823 53.231 22.728 52.982 24.742 C 52.783 26.351 52.436 27.895 52.467 29.535 C 52.481 30.303 53.16 31.183 53.214 31.93 C 53.334 33.596 53.791 35.054 54.117 36.648 C 54.47 38.368 54.392 40.076 55.363 41.65 C 56.477 43.459 57.414 40.807 60.485 40.534 C 61.857 40.412 63.555 40.323 64.6 41.115 L 67.024 42.946 C 68.614 44.148 71.986 40.497 75.769 48.914 C 76.278 49.049 76.91 48.947 77.533 48.908 C 80.822 48.697 82.563 49.477 84.774 51.688 C 85.225 52.139 85.522 52.893 85.915 53.441 L 89.088 53.572 C 90.364 53.624 91.177 54.305 91.925 55.195 C 94.966 58.812 93.633 59.737 95.297 60.486 C 97.019 61.261 98.485 62.25 99.943 63.426 C 102.452 65.451 101.642 65.536 103.437 66.67 C 103.739 67.413 103.004 68.113 102.429 68.626 C 101.992 69.014 101.717 69.784 101.452 70.338 C 100.727 71.852 100.419 73.257 100.35 75.05 C 99.145 75.17 98.044 74.825 96.988 74.359 C 94.016 73.048 94.469 72.338 92.341 71.786 C 90.892 71.411 89.66 70.74 88.656 69.682 L 86.757 67.68 C 85.942 66.821 84.754 66.003 83.679 65.407 C 80.785 63.803 77.179 64.151 74.562 66.024 L 73.158 68.063 C 70.691 67.769 68.535 68.506 66.5 69.831 C 65.523 70.465 64.751 71.135 64.321 72.276 C 62.25 77.806 64.012 75.524 65.072 79.77 C 59.7 81.623 62.393 80.35 58.402 79.727 C 57.408 78.365 59.019 78.853 59.64 74.969 C 59.88 73.467 59.267 72.576 58.234 71.636 C 55.622 69.26 55.106 67.37 50.649 68.494 C 47.978 65.987 48.908 65.405 46.262 64.664 C 44.474 64.163 42.927 64.08 41.178 64.794 C 35.644 67.051 35.387 69.819 33.812 70.564 L 28.819 72.928 L 22.838 75.845 L 22.881 74.061 C 22.96 70.823 20.182 68.084 20.116 67.517 C 20.068 67.107 20.327 66.32 20.648 66.134 C 22.072 65.316 23.289 64.577 24.589 63.656 C 28.109 61.165 29.477 62.791 29.852 60.594 C 30.411 57.321 32.783 54.899 36.11 54.503 L 36.108 54.501 Z M 50.875 12.601 L 50.707 10.389 C 50.558 12.505 50.525 14.588 51.67 16.544 L 50.875 12.601 Z M 67.925 58.128 L 70.827 57.319 C 71.353 57.172 71.972 57.265 72.386 56.731 L 69.92 57.17 C 69.223 57.294 68.509 57.485 67.925 58.13 L 67.925 58.128 Z" fill="currentColor" fill-rule="nonzero"></path>
  <path d="M 9.116 61.689 C 9.972 62.466 11.21 62.472 12.058 63.128 L 15.934 66.126 C 17.085 67.016 18.377 67.527 19.033 68.931 C 19.55 70.038 20.389 71.185 20.701 72.394 C 21.194 74.307 20.89 76.454 20.188 78.251 C 19.333 80.441 17.049 81.745 14.766 81.224 C 13.05 80.834 11.195 78.021 7.908 76.127 C 7.011 75.611 6.144 74.864 5.216 74.44 C 3.2 73.52 1.469 72.98 0.56 70.914 C -0.206 69.173 -0.22 67.384 0.73 65.699 C 1.359 64.585 1.935 63.36 2.838 62.428 C 4.196 61.029 6.003 60.048 7.171 58.493 C 8.574 56.628 9.882 52.044 10.862 51.524 C 13.278 50.239 15.714 49.63 18.298 48.798 C 22.983 47.291 23.384 44.726 27.531 46.266 C 28.508 46.628 29.581 46.794 30.38 47.641 C 31.945 49.303 34.207 48.916 35.984 50.055 C 36.588 50.442 36.617 52.069 36.006 52.456 C 34.911 53.15 33.203 52.816 32.232 53.738 C 31.054 54.857 30.131 56.24 29.073 57.522 C 28.086 58.72 28.57 60.17 26.539 60.629 C 24.983 60.979 23.587 61.629 22.26 62.509 L 19.453 64.368 C 19.105 64.598 18.729 65.447 18.316 65.486 C 17.033 65.606 15.965 64.956 15.7 63.79 C 15.422 62.565 17.542 61.573 16.714 60.108 C 16.544 59.807 15.708 60.126 15.549 60.422 L 14.483 62.412 C 12.843 62.229 10.998 60.279 9.11 61.691 L 9.116 61.689 Z M 22.488 50.402 C 21.13 51.239 21.026 51.348 19.917 52.727 C 19.534 53.369 24.751 49.005 22.488 50.402 Z M 2.57 70.216 C 2.343 69.018 2.2 68.37 2.651 67.459 C 1.631 68.072 1.716 69.496 2.57 70.216 Z M 15.242 78.89 L 16.571 75.553 C 16.712 75.197 16.88 74.32 16.621 74.03 C 15.677 72.968 14.663 72.218 13.46 71.562 C 12.363 70.964 10.918 71.369 10.429 72.564 C 10.052 73.487 9.824 74.365 9.539 75.464 C 11.102 76.858 12.578 78.007 14.338 79.215 C 14.571 79.373 15.135 79.156 15.242 78.888 L 15.242 78.89 Z" fill="currentColor" fill-rule="nonzero"></path>
  <path d="M 103.112 71.148 C 104.321 68.98 105.851 67.566 107.611 66.037 C 108.716 65.08 109.439 63.919 110.892 63.269 C 111.973 62.786 113.08 62.306 114.239 61.876 C 113.974 60.967 112.848 60.778 112.035 61.205 L 109.834 62.366 C 107.94 61.695 108.021 59.917 106.72 59.652 C 106.331 60.468 106.429 61.389 106.845 62.124 L 107.627 63.507 C 107.215 63.962 106.64 64.563 106.195 64.9 C 105.197 65.652 104.59 65.035 103.924 64.432 C 100.116 60.963 100.034 61.464 95.899 58.749 C 94.042 53.237 93.148 52.934 87.9 51.487 C 87.345 51.334 86.832 51.019 86.844 50.558 C 86.855 50.098 87.219 49.568 87.681 49.405 C 89.002 48.945 90.066 47.92 91.409 47.554 C 93.918 46.867 96.353 46.248 98.702 45.165 C 100.025 45.612 100.702 46.775 101.781 47.415 C 104.35 48.937 106.838 48.676 110.287 50.535 C 110.759 50.79 111.654 50.876 112.115 51.189 C 113.476 52.112 114.181 53.632 114.295 55.234 C 114.359 56.118 114.74 56.681 115.27 57.342 C 116.169 58.464 116.937 59.656 117.976 60.66 C 119.16 61.805 120.572 62.712 121.522 64.099 C 122.591 65.658 123.255 69.012 122.301 70.883 C 121.729 72.009 120.643 73.297 119.537 73.85 L 116.525 75.357 C 113.858 76.692 111.728 78.52 109.567 80.601 C 109.029 81.12 105.219 82.041 103.868 79.211 L 102.565 76.479 C 101.671 74.605 102.151 72.864 103.106 71.15 L 103.112 71.148 Z M 112.055 76.858 C 112.42 76.576 113.26 75.883 113.291 75.413 C 113.37 74.189 112.883 70.456 110.594 71.173 C 109.31 71.576 106.511 72.966 107.076 74.82 L 108.341 78.965 C 109.412 79.607 110.501 78.06 112.055 76.858 Z" fill="currentColor" fill-rule="nonzero"></path>
  <path d="M 6.456 90.484 C 5.202 88.6 5.516 86.65 5.984 84.635 C 6.5 82.414 5.208 79.325 6.073 77.226 C 10.222 78.576 9.822 79.073 12.421 81.876 C 13.317 82.842 14.592 83.424 16.002 83.074 C 19.871 82.11 20.445 81.087 22.778 78.149 C 23.5 77.241 24.268 77.034 25.361 76.802 C 27.289 76.394 28.754 74.847 30.535 74.123 L 34.557 72.487 C 36.505 71.695 39.698 67.393 42.944 66.573 C 43.993 66.308 45.333 66.759 46.326 67.115 C 47.388 67.494 47.912 68.658 47.587 69.678 C 46.861 71.959 45.374 73.636 43.652 75.203 C 42.277 76.454 41.391 78.071 40.163 79.474 C 38.992 80.808 37.327 81.557 35.847 82.53 L 30.527 86.029 C 26.005 89.005 26.626 93.245 18.733 91.231 C 14.801 90.227 15.729 92.908 10.383 92.432 C 8.839 92.295 7.361 91.844 6.456 90.482 L 6.456 90.484 Z" fill="currentColor" fill-rule="nonzero"></path>
  <path d="M 117.339 77.947 C 118.084 81.222 116.005 82.356 117.525 85.045 C 118.237 86.304 117.935 87.432 117.485 88.622 C 116.618 90.904 114.803 92.243 112.293 92.009 C 109.405 91.74 106.536 91.78 103.632 91.97 C 101.742 92.094 99.976 92.014 98.127 91.736 C 96.541 89.196 94.492 87.295 92.25 85.424 C 89.016 82.725 87.132 82.573 83.847 80.418 C 82.592 79.594 82.124 77.58 79.613 75.413 C 77.789 73.839 76.33 71.906 75.576 69.608 C 75.278 68.701 75.725 67.684 76.529 67.318 C 77.901 66.695 79.441 66.397 80.928 66.757 C 82.004 67.018 82.764 67.869 83.571 68.56 L 88.571 72.845 C 89.782 73.193 90.97 73.614 92.179 74.073 L 94.862 75.092 L 98.524 76.868 C 102.392 78.743 102.249 80.692 105.259 82.638 C 106.217 83.257 107.259 83.451 108.348 83.049 C 112.674 81.449 112.047 79.783 116.011 77.491 C 116.235 77.361 116.599 77.205 116.784 77.267 C 116.97 77.328 117.289 77.739 117.338 77.949 L 117.339 77.947 Z M 99.1 80.222 C 99.069 79.895 95.75 77.516 96.013 78.309 C 96.03 78.363 96.187 78.655 96.237 78.683 L 99.1 80.222 Z" fill="currentColor" fill-rule="nonzero"></path>
  <path d="M 30.106 101.551 C 28.425 101.334 24.55 101.363 23.072 102.352 C 21.594 103.34 19.668 103.462 17.971 102.824 C 16.613 101.472 15.787 99.851 15.507 97.955 C 15.226 96.059 13.673 95.52 12.28 93.719 C 14.066 93.651 15.621 93.535 17.315 93.612 C 18.457 93.665 19.654 94.419 20.84 94.198 C 24.753 93.473 30.62 90.935 33.241 87.792 C 35.675 86.509 38.166 85.252 40.087 83.252 L 44.08 79.097 C 45.186 76.725 47.043 75.046 48.976 73.369 L 51.03 71.585 C 53.272 69.641 56.77 71.566 57.317 73.032 C 57.586 73.754 58.106 74.912 57.603 75.618 C 56.806 76.737 56.019 77.928 55.04 78.847 C 53.373 80.416 51.98 81.925 50.73 83.849 C 49.891 85.142 48.939 86.449 47.753 87.418 C 46.861 88.15 45.948 88.954 44.997 89.494 C 43.728 90.212 42.772 90.883 41.819 91.956 C 40.014 93.989 38.246 95.945 36.547 98.079 C 34.849 100.212 32.851 101.905 30.104 101.551 L 30.106 101.551 Z M 37.961 87.376 C 36.818 87.948 36.002 88.925 35.149 90.007 C 36.275 89.448 37.191 88.519 37.961 87.376 Z" fill="currentColor" fill-rule="nonzero"></path>
  <path d="M 108.128 97.077 C 106.954 99.595 107.664 100.936 105.46 102.236 C 102.611 103.917 101.011 102.209 99.288 101.826 C 97.293 101.381 95.214 101.214 93.208 101.406 C 91.765 101.545 90.494 101.447 89.459 100.34 L 85.66 96.276 C 84.689 95.237 80.1 92.279 78.619 89.569 C 73.492 86.886 73.651 83.615 70.49 80.499 L 67.161 77.22 C 65.888 75.967 65.616 73.796 67.078 72.46 C 67.834 71.769 69.42 70.972 70.448 71.057 C 72.123 71.194 73.231 72.547 74.485 73.378 C 77.485 75.371 78.501 78.141 80.298 79.95 C 81.302 80.959 82.489 81.573 83.34 82.776 C 83.985 83.687 85.006 84.42 86.02 84.898 C 90.001 86.772 91.082 89.254 94.227 91.009 C 96.688 92.38 99.274 93.444 101.957 94.44 C 104.511 95.388 107.992 91.924 111.471 93.318 C 110.244 94.697 108.828 95.572 108.126 97.079 L 108.128 97.077 Z M 88.242 96.398 C 87.755 94.707 86.996 93.705 85.559 93.104 C 85.722 93.483 86.002 94.075 86.325 94.409 L 88.242 96.398 Z" fill="currentColor" fill-rule="nonzero"></path>
  <path d="M 29.765 108.165 L 27.848 105.696 C 26.891 104.464 25.2 104.17 23.691 103.246 C 26.187 101.893 27.574 103.749 31.531 102.934 C 32.539 102.727 33.663 102.787 34.648 102.509 C 35.95 102.139 36.843 100.99 37.832 100.147 C 38.82 99.303 39.882 98.473 40.801 97.504 C 42.422 95.796 44.128 94.407 46.095 93.086 C 46.846 92.583 47.927 91.958 48.415 91.216 L 51.33 86.782 C 52.081 85.641 52.758 84.552 53.812 83.608 C 54.709 82.805 55.448 81.458 56.686 81.097 C 57.717 80.795 59.336 81.64 60.033 82.344 C 61.207 83.53 60.89 85.205 60.224 86.476 C 59.584 87.701 59.188 89.026 58.313 90.051 C 57.381 91.144 56.305 92.057 55.526 93.26 C 54.965 94.125 54.702 95.237 54.017 96.013 C 53.106 97.048 52.073 98.116 50.908 98.864 C 44.055 103.271 46.246 105.358 40.987 106.462 C 38.876 106.905 36.126 108.77 32.417 109.443 C 31.475 109.614 30.355 108.923 29.769 108.167 L 29.765 108.165 Z" fill="currentColor" fill-rule="nonzero"></path>
  <path d="M 96.078 105.07 C 94.792 106.561 93.765 109.592 90.865 109.556 C 88.745 109.529 86.631 107.532 83.826 106.671 C 82.267 106.194 80.491 105.882 79.491 104.555 L 77.336 101.696 C 76.359 100.4 72.258 99.17 70.428 96.462 C 69.587 95.218 69.032 93.883 68.053 92.777 C 66.416 90.929 64.886 89.097 63.671 86.946 C 63.054 85.855 62.782 84.515 63.182 83.343 C 63.526 82.333 64.412 81.689 65.207 81.501 C 66.269 81.251 67.422 81.335 68.124 82.072 L 72.26 86.422 C 74.144 88.403 74.817 91.807 76.967 92.713 C 78.903 93.527 80.056 94.99 81.621 96.303 L 85.269 99.363 C 86.412 100.323 87.43 101.311 88.571 102.253 C 89.459 102.984 90.202 103.458 91.465 103.296 C 92.15 103.209 99.321 102.282 99.218 102.992 C 99.075 103.977 97.065 103.93 96.082 105.072 L 96.078 105.07 Z" fill="currentColor" fill-rule="nonzero"></path>
  <path d="M 85.519 109.5 L 83.929 110.09 L 79.522 112.078 C 78.249 112.653 76.237 112.54 75.09 111.643 C 73.353 110.285 71.821 108.72 70.544 106.965 C 69.811 105.958 69.273 104.946 68.082 104.364 C 63.708 102.226 64.803 102.855 63.192 98.046 C 62.923 97.241 62.869 96.597 62.809 95.638 C 62.735 94.436 63.975 92.316 65.445 92.943 C 67.012 93.61 67.786 95.742 68.444 97.21 C 69.393 99.326 71.09 100.578 73.133 101.474 C 78.166 103.685 76.653 106.182 80.329 107.203 C 81.47 107.521 84.65 108.339 85.521 109.5 L 85.519 109.5 Z" fill="currentColor" fill-rule="nonzero"></path>
  <path d="M 43.242 112.086 C 41.366 111.204 39.687 110.382 37.758 109.347 C 38.782 108.623 39.592 108.751 40.551 108.467 C 41.403 108.215 42.223 107.832 43.02 107.505 C 45.182 106.623 46.827 105.414 48.194 103.514 C 51.069 99.526 54.731 99.748 55.383 97.576 L 55.947 95.694 L 57.518 92.734 C 57.694 92.403 58.197 92.202 58.547 92.363 C 59.977 93.016 60.565 94.212 60.783 95.657 C 60.93 96.63 60.567 97.233 60.195 98.077 C 59.625 99.371 59.352 100.822 58.305 101.862 C 57.178 102.984 55.599 103.687 54.597 104.907 L 51.634 108.517 C 50.452 109.956 48.328 111.264 46.61 112.045 C 45.565 112.519 44.391 112.627 43.238 112.086 L 43.242 112.086 Z M 53.059 103.48 C 51.999 104.064 51.191 105.041 50.734 106.211 C 51.717 105.428 52.404 104.563 53.059 103.48 Z" fill="currentColor" fill-rule="nonzero"></path>
  <path d="M 71.45 35.215 C 70.544 35.191 70.281 35.375 70.039 36.041 C 68.72 39.685 69.651 41.824 67.639 40.931 C 66.865 38.474 68.008 35.894 67.946 33.363 L 64.762 31.301 C 61.34 29.084 61.056 25.44 61.184 21.602 C 61.284 18.581 65.946 23.399 67.018 25.117 C 67.925 26.572 67.999 28.276 69.225 29.771 L 71.158 24.951 C 71.312 24.564 71.399 23.622 71.163 23.314 C 68.627 19.97 66.457 17.983 65.776 13.708 C 65.409 11.396 66.401 7.599 68.111 8.764 C 69.662 9.822 71.042 11.16 72.026 12.791 C 73.578 15.36 73.183 17.459 73.765 20.132 C 75.125 18.929 75.483 17.443 76.578 16.227 C 77.551 15.145 78.988 14.319 80.276 13.605 C 82.298 12.485 85.762 12.4 86.194 14.077 C 86.292 14.462 86.029 15.12 85.855 15.493 C 84.627 18.124 82.756 20.053 80.336 21.593 C 76.556 23.997 73.759 23.078 73.032 24.446 C 71.914 26.55 71.438 28.694 71.067 31.11 C 74.92 28.777 76.054 26.545 81.112 26.707 C 82.971 26.767 80.379 31.561 78.686 33.048 C 76.742 34.754 74.055 35.277 71.446 35.211 L 71.45 35.215 Z" fill="currentColor" fill-rule="nonzero"></path>
  <path d="M 89.792 29.179 C 84.298 32.667 87.877 35.449 84.625 39.526 C 82.805 41.809 84.538 43.366 83.42 46.523 C 83.228 47.065 82.391 47.481 81.797 47.291 L 81.634 43.966 C 81.538 41.981 81.886 40.372 82.977 38.683 C 85.31 35.075 83.689 35.344 84.898 31.99 C 85.401 30.595 86.068 29.39 87.219 28.423 C 89.101 26.837 91.01 25.37 93.142 24.152 C 94.382 23.442 95.672 23.44 97.046 23.54 C 98.16 23.624 99.117 23.728 100.019 24.477 C 102.259 26.34 103.125 27.688 103.365 30.647 C 104.501 31.379 105.257 32.435 105.431 33.725 C 105.588 34.89 105.232 36.449 104.178 37.226 C 103.47 37.749 102.168 38.006 101.327 37.886 C 99.959 37.689 98.934 36.604 98.547 35.652 C 97.982 34.261 98.098 32.862 98.972 31.673 C 99.427 31.056 100.506 30.677 101.123 30.342 C 101.615 29.375 100.851 28.235 100.334 27.46 C 99.644 26.421 98.767 26.183 97.727 25.767 C 93.887 24.233 93.643 26.732 89.792 29.177 L 89.792 29.179 Z" fill="currentColor" fill-rule="nonzero"></path>
  <path d="M 62.842 92.281 C 62.557 92.49 61.824 92.552 61.575 92.457 C 61.304 92.355 61.192 91.964 60.967 91.455 C 60.669 90.782 60.963 89.123 62.085 89.235 C 63.107 89.337 63.805 91.573 62.842 92.281 Z" fill="currentColor" fill-rule="nonzero"></path>
</svg>