<svg xmlns="http://www.w3.org/2000/svg" width="298.681" height="341.842" viewBox="0 0 298.681 341.842" fill="none">
  <path d="M 147.476 283.492 C 133.412 289.022 138.635 292.52 121.549 300.201 L 113.856 303.658 C 112.066 304.462 110.41 304.866 108.313 304.466 L 109.838 299.983 C 107.648 300.573 106.141 301.558 104.179 302.292 C 99.719 303.969 94.849 304.229 90.092 303.779 L 90.129 300.182 C 83.809 298.714 78.13 301.981 71.964 299.244 C 71.578 299.072 70.662 298.254 70.601 297.873 C 70.531 297.418 71.057 297.018 71.778 296.033 C 64.713 293.859 61.188 295.364 53.426 292.632 C 53.198 292.553 52.38 292.009 52.478 291.833 L 53.259 290.443 C 47.804 288.334 39.023 289.997 33.526 286.373 C 31.82 285.249 31.099 283.52 28.652 283.269 C 26.788 283.079 24.486 282.535 22.742 281.769 C 19.379 280.286 16.17 279.71 12.636 278.772 C 8.362 277.638 4.209 275.422 0.437 272.778 C 7.492 274.255 13.705 275.779 20.458 276.741 C 29.057 277.968 31.838 275.189 35.991 275.928 C 39.302 276.518 42.851 278.135 46.05 277.67 C 46.915 277.545 48.469 276.699 49.376 276.681 C 60.16 276.411 57.686 279.459 63.876 277.982 L 63.411 275.57 C 68.797 275.528 73.782 275.705 79.288 275.988 C 79.93 276.021 81.484 275.631 81.67 275.459 L 80.33 272.657 L 93.645 273.396 C 95.394 273.493 97.054 273.433 98.737 273.256 L 97.477 270.696 C 103.551 270.125 109.099 270.436 115.08 271.797 L 112.871 268.359 C 122.614 268.656 124.102 271.993 133.97 274.753 C 143.007 277.28 150.015 285.504 149.652 278.716 C 149.378 273.572 149.796 259.322 148.913 256.218 C 147.629 251.72 141.83 251.432 138.175 252.631 L 120.842 258.318 L 109.945 262.607 C 105.55 264.34 100.737 263.517 96.226 262.337 L 96.924 259.127 C 89.031 257.96 84.441 261.134 76.865 257.937 C 76.503 257.784 75.661 257.008 75.828 256.687 C 75.996 256.367 76.386 255.786 76.67 255.428 L 77.456 254.424 C 77.675 254.146 76.568 253.463 76.131 253.346 L 62.337 249.676 C 60.267 249.123 57.947 247.692 57.049 246.112 L 58.216 244.109 C 59.323 242.218 51.078 240.676 49.701 240.462 C 41.032 239.1 42.562 234.668 40.581 232.93 C 33.182 226.434 33.884 229.97 26.104 220.468 C 23.393 217.16 20.565 214.595 17.207 212.054 L 6.957 204.303 C 4.465 202.422 2.19 200.419 0 197.952 C 4.93 200.08 8.576 203.132 13.064 205.516 C 18.179 208.234 23.295 210.655 28.225 213.694 C 30.387 215.027 31.824 217.671 34.67 217.866 C 34.633 217.364 34.908 216.259 35.261 216.287 C 40.07 219.427 44.623 222.383 50.027 224.655 L 49.608 221.895 C 56.933 222.866 62.011 226.82 69.592 228.716 L 68.755 225.7 C 77.763 224.311 81.711 230.388 90.176 230.012 L 88.176 226.327 L 99.877 228.516 C 103.188 229.134 108.75 233.799 108.764 231.443 C 108.773 230.44 107.662 229.152 106.969 228.191 C 111.996 228.474 115.354 231.708 119.302 234.064 C 123.93 236.824 129.185 238.445 133.301 241.967 L 139.026 246.86 C 139.644 247.39 147.964 251.051 149.131 251.144 C 148.476 242.911 148.266 235.053 148.355 226.834 C 148.397 222.936 146.099 220.101 142.244 219.502 C 134.57 218.312 127.129 219.474 119.53 221.091 C 114.977 222.062 110.136 221.816 105.588 221.342 L 94.119 220.152 C 92.282 219.962 90.422 218.977 89.199 217.713 L 91.631 215.525 C 86.325 212.644 77.884 216.361 71.527 211.798 C 70.959 211.389 72.01 209.87 72.75 209.233 C 67.039 203.569 57.765 208.257 52.287 200.303 L 52.617 198.384 C 46.674 195.062 43.093 195.001 36.949 190.211 C 38.795 185.132 31.043 187.084 24.206 179.612 C 18.765 173.665 15.026 174.957 8.799 166.319 L 18.83 172.141 L 23.346 173.869 C 25.848 174.826 27.69 176.42 30.448 176.536 C 37.21 176.82 40.791 180.235 47.929 181.113 C 47.757 180.054 47.66 179.083 48.106 178.906 L 62.249 184.389 C 63.29 184.793 64.876 184.881 65.839 184.923 L 65.737 182.279 C 73.005 181.657 77.81 187.957 84.181 188.636 C 84.506 188.668 85.171 187.832 85.013 187.609 L 83.874 185.973 C 86.66 185.792 89.506 186.326 92.306 187.237 L 103.583 190.908 C 104.509 191.21 105.406 192.436 106.815 192.511 L 105.592 189.36 C 108.922 188.348 122.874 195.131 124.851 196.59 C 130.157 200.507 133.384 206.352 137.324 211.515 C 140.095 215.153 143.751 217.811 147.922 220.097 L 147.806 200.791 C 147.783 196.79 148.513 192.799 147.857 188.835 C 147.485 186.582 145.067 185.685 143.304 184.997 C 137.305 182.656 132.226 184.147 124.725 184.152 L 106.997 184.17 C 104.504 184.17 101.863 182.721 99.37 181.908 C 99.486 181.252 99.812 180.611 100.407 179.505 L 87.353 177.336 C 84.255 176.82 79.219 174.947 80.423 170.668 C 77.349 167.624 73.289 169.688 67.843 164.753 C 65.02 162.193 68.759 159.656 62.723 157.876 C 49.227 153.899 55.621 149.271 48.357 145.233 C 41.144 141.223 42.065 136.637 33.736 132.539 C 30.183 130.788 26.895 128.548 25.188 124.585 C 30.462 127.744 35.201 130.184 40.791 131.94 C 44.223 133.018 47.627 134.519 50.543 136.558 C 52.919 138.222 55.073 140.457 57.821 141.205 C 59.202 140.703 60.36 140.722 61.923 141.591 L 72.633 147.538 C 72.88 147.673 74.047 147.78 74.01 147.51 L 73.782 145.972 C 80.814 146.469 81.693 151.734 88.678 153.49 L 88.041 151.004 C 96.724 151.892 96.565 156.32 104.69 159.465 L 103.221 155.915 C 105.444 155.948 108.155 156.278 110.252 157.216 L 117.321 160.395 L 119.088 159.489 C 122.488 160.743 125.753 161.9 128.892 163.735 C 130.817 164.865 132.357 166.835 134.091 168.229 C 141.77 174.408 138.658 179.278 148.094 185.759 C 148.611 183.548 148.713 181.531 148.62 179.366 L 147.75 158.466 C 147.601 154.917 145.778 151.892 141.663 151.831 C 136.296 151.752 127.315 156.092 116.907 152.496 L 116.972 150.372 C 108.894 150.326 101.346 146.976 93.733 142.961 L 96.328 141.326 C 94.473 140.043 92.51 139.016 90.403 137.98 C 86.399 136.015 82.665 132.985 80.07 129.58 L 81.242 128.176 C 81.474 127.898 80.698 126.871 80.395 126.629 C 76.712 123.688 72.605 120.366 70.08 116.435 C 70.862 115.041 70.768 113.67 69.587 112.369 C 61.574 103.574 54.659 95.721 49.869 84.147 C 56.724 88.956 58.007 96.214 65.853 99.847 C 76.768 104.902 76.052 110.511 78.944 107.909 C 83.395 110.701 85.52 116.114 90.659 118.372 L 90.552 115.306 C 97.44 116.858 99.672 123.335 106.276 126.276 L 106.346 123.73 C 109.564 124.227 111.913 125.574 114.094 127.382 L 119.688 132.019 C 122 130.207 124.372 130.946 126.529 132.707 C 128.069 133.961 130.813 134.853 131.854 136.554 C 133.631 139.453 135.491 141.4 137.928 143.654 C 141.239 146.711 143.988 149.982 148.132 152.709 C 148.397 145.796 148.448 139.328 148.169 132.47 C 148.09 130.537 146.801 128.427 145.076 127.568 C 142.56 126.318 139.649 124.91 136.872 124.664 L 128.38 123.911 C 124.869 123.6 121.539 122.865 118.089 122.085 L 117.619 119.878 C 113.587 118.832 109.685 117.104 106.439 114.651 C 106.885 113.889 107.457 112.783 107.504 112.202 C 103.388 108.796 98.393 106.84 95.542 102.417 L 96.477 100.033 L 90.975 94.857 C 86.808 90.935 89.72 90.977 86.134 85.713 C 79.958 76.652 80.116 72.791 74.531 64.413 L 72.117 61.3 C 77.996 63.387 81.051 70.156 84.576 73.832 C 86.832 76.183 88.911 78.497 90.771 81.122 C 95.268 87.46 96.7 82.311 101.253 90.443 C 102.769 93.147 104.448 93.059 106.904 93.454 C 109.787 93.918 114.722 99.294 115.41 98.207 L 116.033 97.231 C 117.41 98.044 118.861 99.001 120.112 100.061 L 125.469 104.6 L 126.599 102.784 C 129.552 103.908 131.794 105.836 133.487 108.471 C 137.365 114.507 139.207 113.824 141.704 119.241 C 143.258 122.605 145.448 125.254 149.057 126.852 L 148.415 111.268 C 148.28 108.015 146.336 105.901 143.56 104.493 L 128.855 97.022 L 122.772 94.299 L 122.758 92.492 C 122.748 91.372 117.177 90.8 112.619 84.802 L 111.652 83.529 C 111.396 83.19 112.392 82.4 112.912 81.828 C 110.834 79.124 108.573 76.55 106.639 73.623 C 105.592 72.038 106.067 69.297 105.248 67.592 L 99.574 55.818 C 97.816 52.165 97.319 48.476 92.808 46.985 C 92.054 46.734 90.882 45.753 90.831 44.796 C 96.858 45.484 101.091 49.61 103.853 54.591 C 105.634 57.802 107.787 60.431 111.01 62.244 C 115.861 64.971 114.08 68.326 119.195 71.778 L 120.995 71.355 C 126.027 74.812 125.381 78.413 129.19 80.69 L 130.473 79.119 C 137.156 84.779 142.104 91.762 145.299 99.954 C 145.955 101.631 146.885 103.1 148.471 104.252 C 147.722 87.776 148.178 89.88 140.607 77.349 C 139.477 75.477 138.668 72.159 138.779 69.98 C 138.854 68.558 139.951 66.816 139.765 65.338 L 138.765 57.388 C 138.347 54.07 139.5 51.729 140.793 48.746 C 142.462 44.898 140.109 38.361 142.304 34.258 C 143.797 31.47 144.318 28.766 144.002 25.616 C 142.918 14.743 145.518 17.893 145.564 11.017 C 145.592 7.09 146.085 3.555 147.634 0 C 147.89 0.102 148.536 0.646 148.555 0.832 C 148.318 5.961 147.871 11.839 148.806 17.006 C 149.624 21.527 150.294 25.616 150.573 30.141 C 150.894 35.252 154.401 34.83 154.159 41.911 C 154.033 45.53 155.531 47.691 157.051 50.753 C 158.693 54.057 155.135 62.239 157.126 66.058 C 157.949 65.914 159.265 65.886 159.479 66.388 C 158.791 70.431 157.47 74.989 155.893 78.901 C 154.126 83.287 151.289 87.042 150.317 91.813 C 149.862 94.062 149.857 108.647 151.843 103.49 C 156.103 92.427 159.079 83.111 168.692 75.551 C 172.78 77.893 172.264 71.216 176.142 68.442 C 179.133 66.305 182.5 64.604 184.481 61.472 C 190.317 52.254 189.155 60.78 195.368 45.865 C 195.963 44.434 196.703 42.729 197.754 41.781 C 200.232 39.546 203.107 37.85 206.72 37.896 C 196.042 45.493 199.191 52.927 195.647 58.694 C 194.489 60.58 192.554 62.021 191.945 64.144 C 191.303 66.379 191.224 69.125 189.82 70.932 C 186.578 75.109 183.527 76.373 185.076 79.793 C 184.569 84.435 177.505 86.349 175.905 89.732 C 177.407 93.17 173.942 95.071 171.543 96.255 L 157.847 103.011 C 152.545 105.627 149.931 109.99 150.448 115.938 L 151.42 127.126 L 156.363 118.693 C 158.377 115.255 160.888 112.151 163.4 109.047 C 165.734 106.166 168.552 104.159 171.645 101.655 L 171.878 104.066 C 175.896 102.654 179.895 97.38 184.16 94.364 L 185.685 95.321 C 188.606 93.644 191.089 91.479 193.168 88.645 C 194.033 87.464 195.414 87.418 196.665 87.441 C 200.205 87.506 201.581 83.868 203.818 82.181 C 206.706 79.998 209.496 78.58 211.566 75.439 C 214.738 70.635 217.858 68.679 220.546 64.516 C 222.453 61.561 223.834 58.438 226.546 56.147 C 224.988 61.695 222.509 66.435 219.379 70.765 C 212.743 79.96 214.849 81.707 209.362 88.087 C 205.32 92.784 209.236 94.694 204.548 98.202 L 195.879 104.689 L 196.656 106.496 C 197.647 108.81 186.332 114.167 185.285 115.859 C 185.862 117.499 185.411 119.195 183.746 119.645 L 173.784 122.331 C 168.473 123.762 163.223 124.715 157.796 125.709 C 151.196 126.917 151.62 132.079 151.201 136.791 C 150.927 139.918 150.071 150.214 151.006 152.723 C 154.973 149.081 157.112 145.247 159.902 141.279 C 164.079 135.341 170.041 131.197 176.082 127.377 L 176.082 129.426 L 184.611 123.772 C 187.001 122.187 189.494 121.039 192.275 119.436 L 192.54 121.727 C 197.428 120.705 200.367 113.368 205.725 113.903 C 205.995 113.93 206.441 114.827 206.618 115.036 C 207.539 116.119 214.059 108.903 219.198 106.882 C 220.435 106.394 221.979 107.063 223.374 105.776 C 226.225 103.146 229.303 100.874 232.698 98.936 C 240.674 94.383 241.893 89.969 247.348 83.264 C 245.646 90.285 241.656 95.884 237.284 101.143 C 232.196 107.258 236.554 106.51 229.899 111.988 C 221.649 118.781 226.006 118.856 222.328 121.425 L 216.296 125.63 C 214.222 127.075 214.161 129.129 212.938 130.857 C 208.683 136.87 195.921 136.995 199.377 141.433 C 195.861 145.387 185.462 145.322 185.257 147.371 C 185.197 147.989 185.471 148.941 185.29 149.304 C 185.109 149.666 184.355 150.312 183.974 150.488 C 173.129 155.572 167.064 149.87 155.149 152.807 C 151.694 153.662 150.568 157.319 150.843 160.446 C 151.838 171.76 150.894 175.417 151.206 186.531 C 158.34 180.439 157.526 176.862 164.72 171.119 C 166.939 169.348 168.701 167.127 170.682 165.041 C 173.264 162.323 176.282 160.097 179.333 157.848 L 179.342 160.729 C 185.541 158.257 186.834 154.289 193.517 152.101 C 193.884 151.98 195.247 151.896 195.345 152.259 L 195.875 154.215 L 209.836 146.869 L 210.627 149.169 C 218.779 146.39 220.202 141.168 228.145 140.382 C 227.894 141.354 227.671 142.255 227.62 142.692 C 233.029 142.701 237.949 135.862 242.4 135.234 C 246.19 134.7 249.366 134.198 252.026 131.15 C 254.24 128.613 260.184 128.999 265.188 124.422 L 275.154 115.31 C 272.898 121.049 270.271 125.073 265.75 128.748 C 261.356 132.321 261.393 135.127 255.073 139.407 C 252.482 141.163 250.366 143.221 248.115 145.415 C 247.157 146.344 246.711 147.059 247.45 148.528 L 242.214 153.495 C 239.856 155.73 231.959 157.714 230.689 160.195 C 229.852 161.821 229.666 163.382 227.997 164.326 C 221.709 167.894 216.189 166.365 214.012 170.259 C 214.063 171.411 214.575 173.205 212.924 173.911 C 207.976 176.035 202.674 177.252 197.289 178.121 L 197.558 180.76 C 193.21 183.669 183.467 179.77 187.053 184.338 L 176.556 185.69 C 169.245 186.633 162.135 183.947 154.787 185.931 C 153.364 186.317 151.159 188.854 151.094 190.262 C 150.871 195.02 151.489 199.392 151.62 204.104 C 151.768 209.507 150.378 214.581 152.229 220.189 C 154.926 218.103 157.205 215.706 159.316 213.164 C 162.176 209.726 165.195 206.733 168.418 203.634 C 174.012 198.263 178.272 194.03 185.681 190.383 L 186.439 192.692 L 192.112 190.067 C 195.456 188.519 198.884 187.019 202.186 186.099 L 202.497 189.165 C 208.901 188.394 214.719 182.851 221.114 184.036 C 221.602 184.124 221.746 185.248 221.783 185.829 C 228.518 185.941 234.791 180.518 242.423 179.761 L 242.702 181.257 C 243.014 182.934 249.501 178.386 250.324 177.782 C 259.193 171.244 261.044 175.124 262.555 174.376 C 266.015 172.661 268.894 170.607 271.806 168.219 C 273.917 166.491 276.186 165.134 278.568 163.666 C 282.483 161.25 286.543 158.243 289.989 155.349 C 290.189 155.181 290.678 154.94 290.845 154.851 C 291.022 154.759 290.915 155.581 290.729 155.971 C 287.999 161.686 281.297 166.17 277.121 171.002 C 272.196 176.699 268.257 182.2 261.295 185.523 C 258.082 187.056 256.277 190.239 254.566 193.226 C 251.645 198.323 242.269 198.263 237.312 202.807 C 239.093 210.906 223.518 206.701 219.649 211.51 L 220.7 212.82 C 221.611 213.954 214.175 218.721 204.925 216.788 C 203.744 216.542 202.093 216.723 201.214 216.983 L 201.883 219.339 C 200.581 220.436 198.544 221.56 196.782 221.412 L 171.217 219.293 C 166.641 218.912 152.661 219.112 151.694 225.473 C 151.289 228.13 151.675 231.048 151.647 233.813 C 151.592 239.835 151.294 245.773 152.736 251.748 L 162.428 244.988 C 164.957 243.222 167.864 241.382 170.073 239.31 C 172.994 236.568 175.561 234.291 179.035 232.293 L 188.029 227.122 L 187.704 229.478 C 200.893 224.069 200.642 226.685 204.334 226.309 L 215.133 225.208 L 215.696 227.545 C 224.36 227.275 225.03 223.758 234.689 224.608 L 234.503 226.397 C 242.13 226.481 239.949 224.237 251.068 223.042 L 252.654 222.871 C 253.05 222.829 253.431 223.79 253.756 224.241 C 256.826 224.971 259.867 223.767 262.9 222.75 C 270.313 220.264 272.633 222.81 287.762 217.086 C 291.473 215.682 294.356 212.969 298.681 212.574 C 295.166 215.71 291.622 218.74 287.646 220.938 C 284.72 222.555 282.265 223.976 279.66 226.016 C 277.586 227.642 274.535 227.754 271.982 228.711 C 261.328 232.712 264.844 237.177 258.086 238.929 C 255.087 239.705 244.981 241.935 243.865 243.97 C 243.646 244.365 244.069 244.992 244.451 246 C 242.302 247.018 239.823 247.808 237.344 248.37 L 224.727 251.218 L 225.625 253.727 C 222.574 255.809 219.049 256.803 215.221 256.139 L 207.604 254.815 C 207.408 254.782 206.599 255.001 206.632 255.159 L 206.79 256.032 C 206.939 256.841 207.074 258.327 206.576 259.08 C 203.065 259.299 199.14 258.866 195.628 258.132 L 179.309 254.717 C 172.603 253.314 166.506 251.748 159.465 252.617 C 157.089 252.91 153.643 253.193 152.768 256.26 C 152.145 258.444 152.68 261.501 152.591 263.922 C 152.382 269.604 152.331 274.687 153.447 280.537 C 156.084 279.733 158.228 278.674 160.321 277.192 C 165.599 273.461 170.822 270.074 176.449 266.844 C 180.732 264.386 185.453 263.267 190.238 263.318 L 190.043 265.432 L 200.232 264.019 C 204.111 263.48 203.762 263.178 206.701 264.456 C 206.883 264.535 206.413 264.712 206.083 264.939 L 205.013 265.669 C 204.785 265.827 205.809 266.579 206.176 266.528 C 210.222 265.975 216.398 265.525 220.695 266.282 C 220.918 266.324 221.621 266.668 221.565 266.789 L 220.863 268.41 C 220.337 269.623 228.476 269.697 229.634 269.72 L 238.265 269.878 C 238.507 269.878 239.288 270.343 239.307 270.501 C 239.335 270.738 239.242 271.156 239.065 271.323 L 238.177 272.146 C 237.935 272.369 238.791 273.373 239.163 273.363 L 246.92 273.15 C 259.207 272.81 256.235 275.431 259.626 275.468 L 278.502 275.682 C 281.646 275.719 284.488 274.794 287.408 273.837 L 293.733 271.77 L 298.574 270.134 C 296.672 273.986 293.403 275.092 290.036 276.49 C 285.846 278.228 281.725 280.43 277.242 281.22 C 272.759 282.01 269.104 283.585 265.271 286.094 C 261.509 288.557 249.817 286.001 246.455 288.552 C 244.204 290.262 243.279 292.256 239.851 292.023 C 236.2 291.777 232.387 291.726 228.652 291.061 C 224.56 290.327 222.197 291.545 222.686 292.167 C 222.89 292.428 223.276 292.869 223.611 293.208 L 224.313 293.919 C 225.718 295.341 214.882 295.606 209.85 294.11 C 210.296 294.244 201.088 291.224 203.037 293.241 L 203.641 293.868 C 206.492 296.818 197.823 295.48 196.238 295.118 C 179.081 291.192 186.541 284.371 161.26 282.554 C 159.07 282.396 157.117 281.964 155.428 283.353 C 153.74 284.742 153.117 286.764 153.257 289.119 C 153.531 293.808 153.336 298.296 153.219 303.003 L 152.959 313.657 L 152.378 332.206 C 152.275 335.509 151.987 338.39 151.554 341.842 C 149.545 341.196 148.983 340.244 147.941 339.152 C 146.374 337.512 146.243 336.067 146.815 333.915 C 148.485 327.62 148.127 321.133 148.718 314.693 C 149.197 309.461 149.648 304.536 149.773 299.267 C 149.889 294.402 151.629 284.649 147.453 283.525 L 147.476 283.492 Z" fill="currentColor" fill-rule="nonzero"></path>
</svg>