<svg xmlns="http://www.w3.org/2000/svg" width="27.837" height="18.959" viewBox="0 0 27.837 18.959" fill="none">
  <path d="M 8.676 12.494 C 8.269 12.667 7.903 12.847 7.518 13.037 C 6.861 13.36 6.303 13.34 5.697 13.803 C 5.321 14.089 4.909 14.245 4.474 14.424 C 3.972 14.63 3.51 14.887 3.03 15.139 C 2.891 15.212 2.796 15.352 2.667 15.442 C 2.26 15.724 1.975 15.782 1.493 15.783 C 1.335 15.783 1.173 15.672 1.032 15.628 C 0.765 15.544 0.631 15.367 0.514 15.138 C 0.372 14.862 0.304 14.606 0.375 14.29 C 0.41 14.137 0.417 13.963 0.507 13.827 C 0.807 13.372 1.12 12.742 1.414 12.375 L 1.772 11.929 C 1.996 11.649 2.196 11.377 2.428 11.101 C 2.747 10.719 2.859 10.45 3.001 9.965 C 3.047 9.809 3.034 9.554 2.978 9.401 C 2.748 8.78 2.521 8.692 2.353 8.455 L 1.979 7.929 L 1.537 7.435 L 0.809 6.564 C 0.686 6.416 0.567 6.294 0.461 6.133 L 0.002 5.431 C 0.009 4.752 -0.072 4.543 0.366 4.01 C 0.635 3.885 0.879 3.755 1.171 3.675 C 1.273 3.647 1.433 3.71 1.539 3.725 C 2.092 3.805 2.145 4.056 2.712 4.18 C 2.929 4.227 3.083 4.335 3.278 4.43 L 4.306 4.932 C 4.51 5.032 4.721 5.077 4.924 5.17 L 6.159 5.733 C 6.342 5.817 7.278 6.056 7.657 6.19 C 7.865 6.264 8.053 6.375 8.271 6.419 C 8.764 6.519 9.251 6.599 9.72 6.782 C 10.14 6.946 10.543 7.069 10.994 7.105 C 11.53 7.148 11.835 7.327 12.334 7.353 C 12.72 7.373 13.084 7.424 13.457 7.527 C 13.727 7.521 13.988 7.517 14.259 7.527 C 14.526 7.537 14.776 7.511 15.042 7.491 L 15.525 7.454 C 15.942 7.423 16.341 7.227 16.645 6.943 C 16.856 6.746 17.001 6.413 16.971 6.124 C 16.953 5.949 16.898 5.728 16.828 5.581 L 16.409 5 C 16.233 4.756 16.092 4.509 15.9 4.276 C 15.708 4.042 15.545 3.801 15.414 3.539 C 15.22 3.157 14.772 2.852 14.49 2.408 L 13.996 1.63 C 13.931 1.527 13.873 1.403 13.888 1.28 C 13.917 1.044 13.949 0.836 14.019 0.611 C 14.053 0.5 14.55 0.035 14.884 0.007 C 15.096 -0.01 15.374 -0.001 15.57 0.093 C 15.743 0.177 15.925 0.287 16.067 0.403 C 16.284 0.579 16.483 0.717 16.717 0.868 L 17.777 1.554 C 18.069 1.698 18.333 1.859 18.582 2.073 C 18.874 2.324 19.273 2.34 19.778 2.75 C 20.097 3.009 20.397 3.316 20.775 3.487 C 21.14 3.651 21.454 3.813 21.753 4.089 C 21.965 4.285 22.241 4.402 22.487 4.558 C 22.67 4.674 22.794 4.888 22.987 4.985 C 23.332 5.158 23.636 5.33 23.908 5.606 C 24.065 5.765 24.256 5.897 24.459 5.988 C 25.163 6.305 25.053 6.511 25.788 6.854 C 26.025 6.965 26.21 7.124 26.413 7.284 C 26.981 7.732 27.208 7.477 27.779 8.57 C 27.871 8.746 27.825 8.974 27.826 9.167 C 27.826 9.314 27.808 9.448 27.723 9.562 C 27.287 10.155 27.555 9.948 26.809 10.451 C 26.531 10.639 26.31 10.845 26.072 11.078 C 25.652 11.487 24.879 11.96 24.453 12.345 C 24.178 12.594 23.903 12.794 23.595 13 C 23.367 13.152 23.228 13.419 23.004 13.577 L 22.222 14.129 C 22.056 14.247 21.942 14.431 21.778 14.552 L 21.049 15.09 L 20.369 15.706 C 19.988 15.879 19.671 16.127 19.378 16.427 C 19.219 16.59 19.055 16.754 18.861 16.872 C 18.544 17.066 18.292 17.297 18.006 17.529 L 16.858 18.458 C 16.557 18.701 16.234 18.943 15.823 18.957 C 15.627 18.964 15.378 18.948 15.196 18.892 C 15.003 18.833 14.879 18.634 14.696 18.55 C 14.611 18.343 14.471 18.182 14.405 17.97 C 14.357 17.815 14.356 17.566 14.397 17.406 C 14.552 16.808 14.927 16.457 15.115 16.057 C 15.276 15.715 15.452 15.406 15.671 15.099 L 16.31 14.201 L 16.811 13.32 C 16.968 13.045 17.111 12.771 17.176 12.457 L 17.009 11.899 C 16.979 11.799 16.883 11.721 16.797 11.662 C 16.695 11.592 16.605 11.483 16.5 11.424 C 16.301 11.314 16.074 11.28 15.859 11.215 C 15.559 11.123 15.267 11.073 14.953 11.109 C 14.354 11.176 13.879 11.094 13.413 11.282 C 13.14 11.392 12.868 11.446 12.578 11.505 C 12.24 11.573 11.915 11.65 11.57 11.689 C 10.76 11.782 10.599 12.021 9.718 12.224 L 9.28 12.325 C 9.082 12.37 8.878 12.406 8.676 12.493 L 8.676 12.494 Z" fill="currentColor" fill-rule="nonzero"></path>
</svg>