<svg xmlns="http://www.w3.org/2000/svg" width="115.685" height="107.040" viewBox="0 0 115.685 107.040" fill="none">
  <path d="M 16.574 20.93 C 16.92 21.073 17.265 21.211 17.611 21.35 C 17.111 21.137 16.733 20.988 16.574 20.93 Z" fill="currentColor" fill-rule="nonzero"></path>
  <path d="M 25.539 106.285 C 25.182 106.285 24.656 106.237 24.326 106.189 C 23.613 106.093 23.469 105.572 23.395 104.902 C 23.278 103.882 23.278 101.999 23.278 99.814 L 23.278 95.63 C 23.278 92.015 23.278 91.35 23.325 90.59 C 23.373 89.755 23.565 89.351 24.209 89.234 C 24.496 89.186 24.709 89.165 24.9 89.165 C 25.188 89.165 25.331 89.117 25.331 88.952 C 25.331 88.787 25.166 88.739 24.831 88.739 C 23.9 88.739 22.405 88.809 21.83 88.809 C 21.187 88.809 19.686 88.739 18.404 88.739 C 18.069 88.739 17.904 88.787 17.904 88.952 C 17.904 89.117 18.048 89.165 18.308 89.165 C 18.643 89.165 19.048 89.186 19.239 89.234 C 20.027 89.399 20.213 89.782 20.261 90.59 C 20.309 91.35 20.309 92.015 20.309 95.63 L 20.309 96.13 C 20.309 96.247 20.24 96.295 20.165 96.295 L 11.072 96.295 C 11.003 96.295 10.929 96.247 10.929 96.13 L 10.929 95.63 C 10.929 92.015 10.929 91.35 10.977 90.59 C 11.025 89.755 11.216 89.303 11.86 89.213 C 12.051 89.191 12.36 89.165 12.552 89.165 C 12.764 89.165 12.982 89.117 12.982 88.952 C 12.982 88.787 12.818 88.739 12.482 88.739 C 11.557 88.739 10.056 88.809 9.482 88.809 C 8.838 88.809 7.337 88.739 6.055 88.739 C 5.72 88.739 5.555 88.787 5.555 88.952 C 5.555 89.117 5.699 89.165 5.959 89.165 C 6.295 89.165 6.699 89.186 6.885 89.234 C 7.673 89.399 7.859 89.782 7.907 90.59 C 7.955 91.35 7.955 92.015 7.955 95.63 L 7.955 99.814 C 7.955 102.005 7.955 103.882 7.838 104.881 C 7.742 105.572 7.625 106.093 7.146 106.189 C 6.933 106.237 6.646 106.285 6.289 106.285 C 6.002 106.285 5.906 106.354 5.906 106.476 C 5.906 106.641 6.071 106.715 6.38 106.715 C 7.332 106.715 8.833 106.646 9.381 106.646 C 10.046 106.646 11.546 106.715 13.094 106.715 C 13.382 106.715 13.573 106.646 13.573 106.476 C 13.573 106.359 13.456 106.285 13.19 106.285 C 12.834 106.285 12.307 106.237 11.977 106.189 C 11.264 106.093 11.12 105.572 11.051 104.902 C 10.934 103.882 10.934 101.999 10.934 99.814 L 10.934 97.719 C 10.934 97.602 11.003 97.576 11.078 97.576 L 20.17 97.576 C 20.24 97.576 20.314 97.624 20.314 97.719 L 20.314 99.814 C 20.314 102.005 20.314 103.882 20.197 104.881 C 20.101 105.572 19.984 106.093 19.505 106.189 C 19.293 106.237 19.005 106.285 18.649 106.285 C 18.361 106.285 18.266 106.354 18.266 106.476 C 18.266 106.641 18.431 106.715 18.766 106.715 C 19.697 106.715 21.192 106.646 21.74 106.646 C 22.405 106.646 23.905 106.715 25.454 106.715 C 25.741 106.715 25.927 106.646 25.927 106.476 C 25.927 106.359 25.81 106.285 25.544 106.285 L 25.539 106.285 Z" fill="currentColor" fill-rule="nonzero"></path>
  <path d="M 46.033 103.095 C 45.868 103.095 45.82 103.19 45.773 103.451 C 45.608 104.424 45.32 104.924 44.703 105.211 C 44.086 105.498 43.086 105.498 42.463 105.498 C 40.037 105.498 39.654 105.142 39.606 103.499 C 39.585 102.808 39.606 100.622 39.606 99.814 L 39.606 97.937 C 39.606 97.794 39.627 97.698 39.75 97.698 C 40.319 97.698 42.676 97.719 43.128 97.767 C 44.011 97.863 44.341 98.219 44.464 98.692 C 44.533 99.001 44.533 99.144 44.559 99.384 C 44.559 99.501 44.607 99.766 44.772 99.766 C 44.985 99.766 44.985 99.506 44.985 99.314 C 44.985 99.15 45.054 98.198 45.081 97.719 C 45.177 96.507 45.272 96.124 45.272 95.981 C 45.272 95.837 45.203 95.789 45.107 95.789 C 44.99 95.789 44.895 95.906 44.724 96.098 C 44.512 96.337 44.155 96.406 43.58 96.454 C 43.032 96.502 40.298 96.502 39.771 96.502 C 39.627 96.502 39.606 96.406 39.606 96.241 L 39.606 90.223 C 39.606 90.058 39.654 89.984 39.771 89.984 C 40.245 89.984 42.745 90.031 43.15 90.079 C 44.341 90.223 44.575 90.51 44.746 90.935 C 44.863 91.222 44.889 91.6 44.889 91.696 C 44.889 91.983 44.937 92.126 45.102 92.126 C 45.267 92.126 45.315 91.983 45.342 91.866 C 45.389 91.579 45.437 90.531 45.459 90.297 C 45.528 89.202 45.65 88.915 45.65 88.75 C 45.65 88.633 45.629 88.537 45.506 88.537 C 45.384 88.537 45.246 88.607 45.123 88.633 C 44.932 88.681 44.554 88.729 44.102 88.777 C 43.65 88.798 38.914 88.798 38.154 88.798 C 36.914 88.798 35.823 88.729 34.727 88.729 C 34.371 88.729 34.206 88.777 34.206 88.941 C 34.206 89.106 34.349 89.154 34.61 89.154 C 34.945 89.154 35.35 89.175 35.536 89.223 C 36.323 89.388 36.51 89.771 36.557 90.579 C 36.605 91.339 36.605 92.004 36.605 95.619 L 36.605 99.804 C 36.605 101.994 36.605 103.871 36.488 104.87 C 36.393 105.562 36.275 106.083 35.797 106.178 C 35.584 106.226 35.297 106.274 34.94 106.274 C 34.653 106.274 34.557 106.343 34.557 106.465 C 34.557 106.63 34.722 106.705 35.03 106.705 C 36.1 106.705 37.079 106.636 38.031 106.636 C 40.409 106.636 42.506 106.779 44.623 106.779 C 45.528 106.779 45.741 106.779 45.911 106.162 C 46.028 105.689 46.219 104.068 46.219 103.52 C 46.219 103.281 46.219 103.089 46.028 103.089 L 46.033 103.095 Z" fill="currentColor" fill-rule="nonzero"></path>
  <path d="M 73.051 106.285 C 72.859 106.285 72.646 106.263 72.385 106.216 C 72.029 106.146 71.077 105.976 69.741 104.599 C 68.337 103.127 66.693 100.984 64.575 98.32 C 66.98 96.369 67.693 94.774 67.693 93.014 C 67.693 91.419 66.74 90.207 66.075 89.755 C 64.788 88.872 63.197 88.734 61.697 88.734 C 60.957 88.734 59.148 88.803 58.339 88.803 C 57.839 88.803 56.339 88.734 55.078 88.734 C 54.722 88.734 54.557 88.782 54.557 88.947 C 54.557 89.112 54.7 89.159 54.961 89.159 C 55.296 89.159 55.7 89.181 55.887 89.229 C 56.674 89.393 56.86 89.776 56.908 90.584 C 56.956 91.345 56.956 92.009 56.956 95.625 L 56.956 99.809 C 56.956 101.999 56.956 103.876 56.839 104.876 C 56.743 105.567 56.626 106.088 56.147 106.184 C 55.935 106.232 55.647 106.279 55.291 106.279 C 55.004 106.279 54.908 106.348 54.908 106.471 C 54.908 106.636 55.073 106.71 55.381 106.71 C 56.334 106.71 57.834 106.641 58.286 106.641 C 58.643 106.641 60.404 106.71 61.787 106.71 C 62.096 106.71 62.266 106.641 62.266 106.471 C 62.266 106.354 62.17 106.279 61.979 106.279 C 61.691 106.279 61.17 106.232 60.813 106.184 C 60.101 106.088 59.957 105.567 59.882 104.876 C 59.765 103.876 59.765 101.999 59.765 99.788 L 59.765 99.453 C 59.765 99.309 59.834 99.261 59.957 99.261 L 61.957 99.309 C 62.122 99.309 62.266 99.33 62.388 99.474 C 62.697 99.83 63.793 101.446 64.745 102.754 C 66.081 104.583 66.985 105.705 68.007 106.253 C 68.624 106.588 69.22 106.705 70.555 106.705 L 72.886 106.705 C 73.173 106.705 73.338 106.657 73.338 106.465 C 73.338 106.348 73.242 106.274 73.051 106.274 L 73.051 106.285 Z M 63.484 97.767 C 63.053 98.076 62.745 98.171 61.792 98.171 C 61.197 98.171 60.484 98.102 59.983 97.932 C 59.819 97.863 59.771 97.767 59.771 97.501 L 59.771 90.271 C 59.771 90.079 59.819 89.984 59.983 89.936 C 60.223 89.867 60.649 89.84 61.244 89.84 C 62.649 89.84 64.889 90.813 64.889 94.194 C 64.889 96.146 64.197 97.241 63.484 97.762 L 63.484 97.767 Z" fill="currentColor" fill-rule="nonzero"></path>
  <path d="M 86.953 96.459 C 88.262 95.412 89.379 94.248 89.379 92.296 C 89.379 91.036 88.618 88.729 84.309 88.729 C 83.5 88.729 82.569 88.798 81.404 88.798 C 80.93 88.798 79.43 88.729 78.169 88.729 C 77.812 88.729 77.647 88.777 77.647 88.941 C 77.647 89.106 77.791 89.154 78.052 89.154 C 78.387 89.154 78.791 89.175 78.978 89.223 C 79.765 89.388 79.951 89.771 79.999 90.579 C 80.047 91.339 80.047 92.004 80.047 95.619 L 80.047 99.804 C 80.047 101.994 80.047 103.871 79.93 104.87 C 79.834 105.562 79.738 106.014 79.286 106.157 C 79.073 106.226 78.738 106.274 78.382 106.274 C 78.094 106.274 77.999 106.343 77.999 106.465 C 77.999 106.63 78.163 106.705 78.472 106.705 C 79.541 106.705 80.52 106.636 81.473 106.636 C 82.734 106.636 83.83 106.779 84.926 106.779 C 89.305 106.779 91.284 104.137 91.284 101.595 C 91.284 98.815 88.905 97.124 86.953 96.459 Z M 82.904 90.159 C 82.904 89.898 82.952 89.803 83.117 89.755 C 83.356 89.707 83.569 89.707 83.904 89.707 C 85.953 89.707 86.878 91.802 86.878 93.392 C 86.878 94.556 86.522 95.412 85.905 95.912 C 85.5 96.268 84.979 96.364 84.192 96.364 C 83.644 96.364 83.287 96.342 83.074 96.295 C 82.979 96.273 82.909 96.225 82.909 96.034 L 82.909 90.159 L 82.904 90.159 Z M 85.479 105.71 C 84.931 105.71 84.383 105.689 83.739 105.423 C 82.979 105.115 82.904 104.711 82.904 103.142 L 82.904 97.507 C 82.904 97.39 82.952 97.342 83.048 97.342 C 83.404 97.342 83.644 97.342 84.069 97.363 C 84.995 97.411 85.543 97.576 86.043 97.932 C 87.852 99.192 88.352 101.191 88.352 102.664 C 88.352 105.136 86.543 105.71 85.474 105.71 L 85.479 105.71 Z" fill="currentColor" fill-rule="nonzero"></path>
  <path d="M 105.543 95.864 L 104.878 95.364 C 102.904 93.865 102.356 93.035 102.356 91.94 C 102.356 90.515 103.425 89.489 105.186 89.489 C 106.734 89.489 107.426 90.202 107.782 90.653 C 108.283 91.27 108.4 92.009 108.4 92.222 C 108.4 92.509 108.469 92.653 108.639 92.653 C 108.831 92.653 108.9 92.461 108.9 91.94 C 108.9 90.085 108.996 89.393 108.996 89.085 C 108.996 88.92 108.879 88.846 108.66 88.798 C 108.4 88.729 108.091 88.654 107.687 88.585 C 107.117 88.49 106.399 88.394 105.495 88.394 C 102.185 88.394 99.999 90.271 99.999 92.892 C 99.999 94.816 100.903 96.486 103.521 98.528 L 104.617 99.384 C 106.591 100.931 106.947 102.026 106.947 103.19 C 106.947 104.45 105.899 105.902 103.76 105.902 C 102.286 105.902 100.882 105.259 100.355 103.499 C 100.238 103.095 100.142 102.595 100.142 102.286 C 100.142 102.095 100.121 101.882 99.903 101.882 C 99.711 101.882 99.642 102.143 99.616 102.499 C 99.594 102.882 99.499 104.307 99.499 105.615 C 99.499 106.136 99.568 106.258 99.951 106.423 C 100.972 106.875 102.047 107.04 103.425 107.04 C 104.686 107.04 106.021 106.827 107.208 106.067 C 108.921 104.95 109.448 103.307 109.448 101.93 C 109.448 99.671 108.426 98.028 105.543 95.864 Z" fill="currentColor" fill-rule="nonzero"></path>
  <path d="M 31.812 74.166 C 31.492 74.166 31.365 74.421 31.242 75.118 C 30.732 77.851 30.035 79.18 28.002 79.818 C 26.289 80.328 24.187 80.387 22.283 80.387 C 19.803 80.387 18.09 80.259 17.01 79.818 C 15.419 79.185 15.042 77.787 14.914 75.182 C 14.85 73.847 14.914 66.484 14.914 64.325 L 14.914 58.737 C 14.914 58.482 15.042 58.29 15.361 58.29 C 16.441 58.29 22.73 58.418 24.448 58.609 C 26.736 58.865 27.497 59.753 27.752 60.704 C 27.944 61.273 28.007 61.911 28.007 62.48 C 28.007 62.99 28.071 63.496 28.454 63.496 C 28.71 63.496 28.837 63.177 28.901 62.544 C 28.965 61.656 28.965 60.194 29.157 58.227 C 29.348 56.132 29.667 55.053 29.667 54.67 C 29.667 54.287 29.54 54.159 29.348 54.159 C 29.093 54.159 28.901 54.415 28.587 54.792 C 27.954 55.552 27.124 55.744 25.411 55.871 C 23.948 55.999 16.132 55.999 15.308 55.999 C 14.988 55.999 14.924 55.808 14.924 55.366 L 14.924 37.842 C 14.924 37.396 15.052 37.21 15.308 37.21 C 16.005 37.21 22.932 37.273 24.012 37.401 C 26.81 37.656 28.14 38.289 28.587 39.751 C 28.779 40.261 28.907 41.022 28.907 41.846 C 28.907 42.356 29.034 42.67 29.417 42.67 C 29.673 42.67 29.864 42.223 29.928 41.591 C 30.056 39.937 30.12 38.735 30.184 37.778 C 30.311 36.003 30.694 35.237 30.694 34.796 C 30.694 34.477 30.63 34.227 30.439 34.227 C 30.247 34.227 30.12 34.291 29.742 34.482 C 29.359 34.673 28.215 34.801 26.821 34.865 C 25.358 34.929 12.716 34.929 12.27 34.929 C 8.269 34.737 6.55 34.737 5.087 34.737 C 4.39 34.737 4.071 34.865 4.071 35.248 C 4.071 35.503 4.454 35.567 4.895 35.63 C 5.465 35.694 6.295 35.694 6.736 35.822 C 8.833 36.268 9.343 37.284 9.471 39.443 C 9.599 41.474 9.599 43.255 9.599 53.16 L 9.599 64.336 C 9.599 69.987 9.535 73.225 9.471 75.703 C 9.343 80.467 8.519 81.354 7.183 81.673 C 6.736 81.801 6.359 81.801 5.72 81.865 C 5.337 81.929 5.023 82.056 5.023 82.248 C 5.023 82.63 5.342 82.758 6.039 82.758 C 7.694 82.822 9.216 82.567 10.743 82.567 C 13.222 82.567 16.143 82.694 18.686 82.758 C 21.165 82.822 23.262 82.949 27.965 82.949 C 30.444 82.949 30.95 82.949 31.397 81.296 C 31.716 79.961 32.221 75.644 32.221 75.139 C 32.221 74.693 32.221 74.188 31.838 74.188 L 31.812 74.166 Z" fill="currentColor" fill-rule="nonzero"></path>
  <path d="M 63.309 82.003 C 63.665 82.003 63.862 81.923 63.862 81.727 C 63.862 81.487 63.585 81.45 63.229 81.45 C 61.808 81.45 57.898 78.218 55.296 76.011 C 57.031 73.884 59.201 69.897 59.201 66.707 C 59.201 66.313 59.084 66 58.494 65.92 C 56.286 65.681 54.706 65.643 53.759 65.643 C 53.445 65.643 53.125 65.723 53.125 65.92 C 53.125 66.117 53.482 66.159 53.913 66.234 C 54.424 66.313 55.094 66.393 55.53 66.824 C 56.121 67.414 56.28 68.164 56.28 68.754 C 56.28 71.157 55.371 73.799 54.269 75.299 C 53.008 74.235 48.151 69.7 46.81 68.238 C 42.708 63.783 40.574 61.22 40.574 58.142 C 40.574 54.436 43.219 52.974 45.586 52.974 C 47.284 52.974 48.587 53.681 49.534 54.707 C 50.481 55.691 50.758 56.876 50.758 58.056 C 50.758 58.647 50.795 58.806 50.997 58.806 C 51.199 58.806 51.311 58.567 51.433 57.86 C 51.593 56.834 51.668 55.058 51.668 53.601 C 51.668 53.048 51.63 52.814 50.8 52.421 C 49.816 51.948 48.076 51.634 46.379 51.634 C 41.09 51.634 37.893 55.776 37.893 58.891 C 37.893 60.667 38.287 62.283 39.75 64.33 C 36.675 66.143 33.791 69.222 33.791 73.831 C 33.791 77.261 36.472 82.545 43.378 82.545 C 49.22 82.545 52.258 79.393 53.163 78.483 C 56.674 81.285 57.286 81.918 58.174 81.992 C 59.441 82.099 61.016 81.992 63.303 81.992 L 63.309 82.003 Z M 44.804 80.387 C 40.383 80.387 37.031 76.915 37.031 71.986 C 37.031 68.834 38.292 66.702 40.346 65.362 C 41.452 66.978 44.054 69.817 45.081 70.923 C 46.108 72.029 49.976 75.852 52.184 77.707 C 50.843 79.09 48.475 80.387 44.804 80.387 Z" fill="currentColor" fill-rule="nonzero"></path>
  <path d="M 105.42 75.57 C 108.98 71.822 112.284 65.665 112.284 57.663 C 112.284 50.108 109.299 44.834 106.123 41.532 C 98.562 33.722 86.932 34.291 80.643 34.291 C 76.828 34.291 72.827 34.482 72.066 34.482 C 71.747 34.482 67.746 34.291 64.884 34.291 C 64.187 34.291 63.867 34.418 63.867 34.801 C 63.867 35.056 64.123 35.184 64.564 35.184 C 65.134 35.184 66.219 35.248 66.724 35.375 C 68.821 35.822 69.14 36.837 69.268 38.996 C 69.395 41.027 69.395 42.808 69.395 52.713 L 69.395 63.889 C 69.395 69.987 69.395 75.001 69.076 77.67 C 68.821 79.51 68.507 80.908 67.235 81.163 C 66.666 81.291 66.155 81.354 65.458 81.418 C 64.947 81.418 64.825 81.61 64.825 81.801 C 64.825 82.184 65.144 82.311 65.841 82.311 C 66.794 82.311 68.257 82.184 69.528 82.184 C 70.864 82.12 71.944 82.12 72.072 82.12 C 72.391 82.12 74.551 82.311 77.344 82.503 C 80.079 82.694 83.447 82.886 86.176 82.886 C 96.977 82.886 102.696 78.441 105.431 75.586 L 105.42 75.57 Z M 75.556 78.17 C 75.046 77.473 74.923 74.932 74.859 73.342 C 74.796 72.135 74.732 66.292 74.732 59.561 L 74.732 51.687 C 74.732 46.796 74.732 40.32 74.796 38.161 C 74.796 37.465 74.987 37.146 75.556 36.891 C 76.067 36.635 78.414 36.444 79.685 36.444 C 87.246 36.444 94.492 37.332 100.462 43.622 C 103.069 46.354 106.564 51.559 106.564 59.625 C 106.564 65.468 104.787 71.561 101.483 74.799 C 97.732 78.547 92.268 80.706 86.362 80.706 C 78.866 80.706 76.386 79.371 75.562 78.164 L 75.556 78.17 Z" fill="currentColor" fill-rule="nonzero"></path>
  <path d="M 66.112 0 C 68.583 4.509 74.45 5.616 78.349 8.852 C 80.856 10.932 81.619 11.964 83.011 15.008 C 83.346 15.747 83.852 16.568 83.954 17.395 C 84.916 17.373 85.882 17.376 86.853 17.406 C 97.064 17.451 106.587 23.443 112.108 31.305 C 113.415 33.048 114.565 34.804 115.685 36.674 C 114.307 34.984 112.926 33.421 111.426 31.889 C 108.143 27.962 104.396 25.353 100.347 23.723 C 99.169 26.165 97.446 27.276 95.715 28.388 C 94.247 29.33 92.773 30.278 91.627 32.041 C 91.652 31.469 91.67 30.942 91.686 30.45 C 91.816 26.565 91.874 24.878 94.872 22.118 C 83.61 19.917 70.737 23.461 59.165 26.6 C 58.286 26.832 57.414 27.061 56.545 27.29 C 56.358 29.128 55.346 32.455 54.528 33.753 C 53.03 36.117 50.713 37.642 48.404 39.163 C 46.363 40.505 44.33 41.846 42.876 43.754 C 42.795 43.863 42.726 44.034 42.657 44.211 C 42.551 44.474 42.441 44.753 42.273 44.854 C 42.1 44.473 42.093 43.811 42.088 43.281 C 42.086 43.145 42.086 43.019 42.081 42.906 C 41.987 40.241 42.071 37.718 43.035 35.183 C 43.834 33.08 45.319 31.147 47.109 29.668 C 31.425 32.484 15.26 24.939 4.708 14.364 C 3.119 12.926 1.562 11.462 0 10.001 C 1.759 11.217 3.507 12.451 5.265 13.661 C 9.434 16.782 13.91 19.468 18.568 21.528 C 15.379 17.187 15.574 13.65 16.744 8.55 C 17.009 10.68 17.862 11.635 19.231 13.164 C 19.262 13.199 19.293 13.234 19.324 13.269 C 19.67 13.656 20.027 14.039 20.383 14.424 C 21.874 16.032 23.383 17.657 24.266 19.682 C 24.727 20.726 24.856 21.833 24.985 22.932 C 25.026 23.277 25.066 23.62 25.116 23.961 C 33.322 26.428 41.889 26.807 50.191 24.142 C 52.8 23.422 55.335 22.728 57.961 22.035 C 64.831 20.281 71.823 18.425 79.067 17.698 C 78.777 17.61 78.524 17.532 78.376 17.482 C 76.685 16.893 75.086 16.091 73.604 15.086 L 73.599 15.081 C 69.599 12.36 67.31 8.038 66.621 3.338 C 66.458 2.227 66.322 1.106 66.112 0 Z" fill="currentColor" fill-rule="nonzero"></path>
</svg>