<svg xmlns="http://www.w3.org/2000/svg" width="185.276" height="171.430" viewBox="0 0 185.276 171.430" fill="none">
  <path d="M 26.544 33.52 C 27.098 33.75 27.652 33.971 28.205 34.193 C 27.404 33.852 26.799 33.614 26.544 33.52 Z" fill="currentColor" fill-rule="nonzero"></path>
  <path d="M 40.902 170.221 C 40.331 170.221 39.487 170.144 38.959 170.067 C 37.817 169.914 37.587 169.08 37.468 168.007 C 37.28 166.372 37.28 163.357 37.28 159.858 L 37.28 153.156 C 37.28 147.366 37.28 146.302 37.357 145.084 C 37.434 143.747 37.74 143.1 38.771 142.913 C 39.232 142.836 39.572 142.802 39.879 142.802 C 40.339 142.802 40.569 142.725 40.569 142.462 C 40.569 142.198 40.305 142.121 39.768 142.121 C 38.277 142.121 35.883 142.232 34.963 142.232 C 33.932 142.232 31.529 142.121 29.475 142.121 C 28.938 142.121 28.674 142.198 28.674 142.462 C 28.674 142.725 28.904 142.802 29.322 142.802 C 29.858 142.802 30.506 142.836 30.813 142.913 C 32.074 143.177 32.372 143.79 32.449 145.084 C 32.526 146.302 32.526 147.366 32.526 153.156 L 32.526 153.957 C 32.526 154.144 32.415 154.221 32.295 154.221 L 17.733 154.221 C 17.622 154.221 17.503 154.144 17.503 153.957 L 17.503 153.156 C 17.503 147.366 17.503 146.302 17.58 145.084 C 17.656 143.747 17.963 143.023 18.994 142.879 C 19.301 142.845 19.795 142.802 20.102 142.802 C 20.443 142.802 20.792 142.725 20.792 142.462 C 20.792 142.198 20.528 142.121 19.991 142.121 C 18.509 142.121 16.106 142.232 15.185 142.232 C 14.154 142.232 11.751 142.121 9.698 142.121 C 9.161 142.121 8.897 142.198 8.897 142.462 C 8.897 142.725 9.127 142.802 9.544 142.802 C 10.081 142.802 10.729 142.836 11.027 142.913 C 12.288 143.177 12.586 143.79 12.663 145.084 C 12.74 146.302 12.74 147.366 12.74 153.156 L 12.74 159.858 C 12.74 163.366 12.74 166.372 12.552 167.973 C 12.399 169.08 12.211 169.914 11.445 170.067 C 11.104 170.144 10.644 170.221 10.073 170.221 C 9.613 170.221 9.459 170.331 9.459 170.527 C 9.459 170.791 9.723 170.91 10.218 170.91 C 11.743 170.91 14.146 170.8 15.023 170.8 C 16.089 170.8 18.491 170.91 20.971 170.91 C 21.431 170.91 21.738 170.8 21.738 170.527 C 21.738 170.34 21.551 170.221 21.124 170.221 C 20.554 170.221 19.71 170.144 19.182 170.067 C 18.04 169.914 17.81 169.08 17.699 168.007 C 17.512 166.372 17.512 163.357 17.512 159.858 L 17.512 156.503 C 17.512 156.315 17.622 156.273 17.742 156.273 L 32.304 156.273 C 32.415 156.273 32.534 156.35 32.534 156.503 L 32.534 159.858 C 32.534 163.366 32.534 166.372 32.347 167.973 C 32.193 169.08 32.006 169.914 31.239 170.067 C 30.898 170.144 30.438 170.221 29.867 170.221 C 29.407 170.221 29.253 170.331 29.253 170.527 C 29.253 170.791 29.518 170.91 30.054 170.91 C 31.546 170.91 33.94 170.8 34.818 170.8 C 35.883 170.8 38.286 170.91 40.765 170.91 C 41.226 170.91 41.524 170.8 41.524 170.527 C 41.524 170.34 41.336 170.221 40.91 170.221 L 40.902 170.221 Z" fill="currentColor" fill-rule="nonzero"></path>
  <path d="M 73.725 165.112 C 73.46 165.112 73.384 165.265 73.307 165.682 C 73.043 167.24 72.583 168.041 71.594 168.501 C 70.606 168.96 69.004 168.96 68.007 168.96 C 64.121 168.96 63.508 168.39 63.431 165.759 C 63.397 164.652 63.431 161.152 63.431 159.858 L 63.431 156.852 C 63.431 156.622 63.465 156.469 63.661 156.469 C 64.573 156.469 68.348 156.503 69.072 156.579 C 70.487 156.733 71.015 157.303 71.211 158.061 C 71.322 158.555 71.322 158.785 71.364 159.168 C 71.364 159.355 71.441 159.781 71.705 159.781 C 72.046 159.781 72.046 159.364 72.046 159.057 C 72.046 158.793 72.157 157.269 72.199 156.503 C 72.353 154.561 72.506 153.948 72.506 153.718 C 72.506 153.488 72.395 153.412 72.242 153.412 C 72.054 153.412 71.901 153.599 71.628 153.906 C 71.288 154.289 70.717 154.4 69.796 154.476 C 68.919 154.553 64.539 154.553 63.695 154.553 C 63.465 154.553 63.431 154.4 63.431 154.136 L 63.431 144.497 C 63.431 144.233 63.508 144.113 63.695 144.113 C 64.454 144.113 68.459 144.19 69.106 144.267 C 71.015 144.497 71.39 144.956 71.663 145.638 C 71.85 146.097 71.893 146.702 71.893 146.855 C 71.893 147.315 71.969 147.545 72.233 147.545 C 72.498 147.545 72.574 147.315 72.617 147.128 C 72.694 146.668 72.77 144.99 72.804 144.616 C 72.915 142.862 73.111 142.402 73.111 142.138 C 73.111 141.951 73.077 141.797 72.881 141.797 C 72.685 141.797 72.464 141.908 72.268 141.951 C 71.961 142.027 71.356 142.104 70.631 142.181 C 69.907 142.215 62.324 142.215 61.105 142.215 C 59.12 142.215 57.373 142.104 55.617 142.104 C 55.047 142.104 54.782 142.181 54.782 142.444 C 54.782 142.708 55.012 142.785 55.43 142.785 C 55.967 142.785 56.614 142.819 56.913 142.896 C 58.174 143.16 58.472 143.773 58.549 145.067 C 58.625 146.285 58.625 147.349 58.625 153.139 L 58.625 159.841 C 58.625 163.349 58.625 166.355 58.438 167.956 C 58.285 169.063 58.097 169.897 57.33 170.05 C 56.989 170.127 56.529 170.204 55.958 170.204 C 55.498 170.204 55.345 170.314 55.345 170.51 C 55.345 170.774 55.609 170.893 56.103 170.893 C 57.816 170.893 59.384 170.783 60.909 170.783 C 64.718 170.783 68.075 171.012 71.467 171.012 C 72.915 171.012 73.256 171.012 73.529 170.025 C 73.716 169.267 74.023 166.67 74.023 165.793 C 74.023 165.41 74.023 165.103 73.716 165.103 L 73.725 165.112 Z" fill="currentColor" fill-rule="nonzero"></path>
  <path d="M 116.994 170.221 C 116.688 170.221 116.347 170.186 115.929 170.11 C 115.358 169.999 113.833 169.727 111.694 167.521 C 109.445 165.163 106.812 161.731 103.42 157.465 C 107.272 154.34 108.414 151.785 108.414 148.967 C 108.414 146.412 106.888 144.471 105.823 143.747 C 103.761 142.334 101.213 142.112 98.81 142.112 C 97.626 142.112 94.729 142.223 93.434 142.223 C 92.633 142.223 90.23 142.112 88.21 142.112 C 87.639 142.112 87.375 142.189 87.375 142.453 C 87.375 142.717 87.605 142.794 88.023 142.794 C 88.56 142.794 89.207 142.828 89.506 142.904 C 90.767 143.168 91.065 143.781 91.142 145.076 C 91.218 146.293 91.218 147.358 91.218 153.148 L 91.218 159.849 C 91.218 163.357 91.218 166.363 91.031 167.964 C 90.877 169.071 90.69 169.906 89.923 170.059 C 89.582 170.135 89.122 170.212 88.551 170.212 C 88.091 170.212 87.938 170.323 87.938 170.519 C 87.938 170.783 88.202 170.902 88.696 170.902 C 90.221 170.902 92.624 170.791 93.348 170.791 C 93.919 170.791 96.74 170.902 98.955 170.902 C 99.45 170.902 99.722 170.791 99.722 170.519 C 99.722 170.331 99.569 170.212 99.262 170.212 C 98.802 170.212 97.967 170.135 97.396 170.059 C 96.254 169.906 96.024 169.071 95.905 167.964 C 95.717 166.363 95.717 163.357 95.717 159.815 L 95.717 159.279 C 95.717 159.049 95.828 158.972 96.024 158.972 L 99.228 159.049 C 99.492 159.049 99.722 159.083 99.918 159.313 C 100.412 159.883 102.168 162.472 103.693 164.567 C 105.832 167.496 107.28 169.292 108.916 170.169 C 109.905 170.706 110.859 170.893 112.998 170.893 L 116.73 170.893 C 117.19 170.893 117.454 170.817 117.454 170.51 C 117.454 170.323 117.301 170.204 116.994 170.204 L 116.994 170.221 Z M 101.674 156.579 C 100.983 157.073 100.489 157.227 98.964 157.227 C 98.009 157.227 96.868 157.116 96.067 156.843 C 95.803 156.733 95.726 156.579 95.726 156.154 L 95.726 144.573 C 95.726 144.267 95.803 144.113 96.067 144.037 C 96.45 143.926 97.132 143.884 98.086 143.884 C 100.336 143.884 103.923 145.442 103.923 150.857 C 103.923 153.982 102.815 155.736 101.674 156.571 L 101.674 156.579 Z" fill="currentColor" fill-rule="nonzero"></path>
  <path d="M 139.26 154.485 C 141.356 152.807 143.145 150.942 143.145 147.817 C 143.145 145.799 141.927 142.104 135.025 142.104 C 133.729 142.104 132.238 142.215 130.372 142.215 C 129.614 142.215 127.211 142.104 125.191 142.104 C 124.621 142.104 124.356 142.18 124.356 142.444 C 124.356 142.708 124.586 142.785 125.004 142.785 C 125.541 142.785 126.188 142.819 126.487 142.896 C 127.748 143.16 128.046 143.773 128.123 145.067 C 128.199 146.285 128.199 147.349 128.199 153.139 L 128.199 159.841 C 128.199 163.349 128.199 166.355 128.012 167.956 C 127.859 169.063 127.705 169.786 126.981 170.016 C 126.64 170.127 126.103 170.204 125.532 170.204 C 125.072 170.204 124.919 170.314 124.919 170.51 C 124.919 170.774 125.183 170.893 125.677 170.893 C 127.39 170.893 128.958 170.783 130.483 170.783 C 132.502 170.783 134.258 171.012 136.013 171.012 C 143.026 171.012 146.196 166.78 146.196 162.71 C 146.196 158.257 142.387 155.549 139.26 154.485 Z M 132.775 144.394 C 132.775 143.977 132.852 143.824 133.116 143.747 C 133.499 143.671 133.84 143.671 134.377 143.671 C 137.658 143.671 139.14 147.026 139.14 149.572 C 139.14 151.436 138.569 152.807 137.581 153.608 C 136.933 154.178 136.098 154.331 134.837 154.331 C 133.96 154.331 133.389 154.297 133.048 154.221 C 132.894 154.187 132.784 154.11 132.784 153.804 L 132.784 144.394 L 132.775 144.394 Z M 136.899 169.301 C 136.022 169.301 135.144 169.267 134.113 168.841 C 132.894 168.347 132.775 167.7 132.775 165.188 L 132.775 156.162 C 132.775 155.975 132.852 155.898 133.005 155.898 C 133.576 155.898 133.96 155.898 134.641 155.932 C 136.124 156.009 137.002 156.273 137.803 156.843 C 140.7 158.861 141.501 162.063 141.501 164.422 C 141.501 168.381 138.604 169.301 136.891 169.301 L 136.899 169.301 Z" fill="currentColor" fill-rule="nonzero"></path>
  <path d="M 169.032 153.531 L 167.967 152.731 C 164.806 150.329 163.928 149.001 163.928 147.247 C 163.928 144.965 165.641 143.322 168.461 143.322 C 170.941 143.322 172.048 144.463 172.619 145.186 C 173.42 146.174 173.608 147.358 173.608 147.698 C 173.608 148.158 173.719 148.388 173.991 148.388 C 174.298 148.388 174.409 148.081 174.409 147.247 C 174.409 144.275 174.562 143.168 174.562 142.674 C 174.562 142.41 174.375 142.291 174.025 142.215 C 173.608 142.104 173.114 141.985 172.466 141.874 C 171.554 141.721 170.404 141.567 168.955 141.567 C 163.655 141.567 160.153 144.573 160.153 148.771 C 160.153 151.854 161.602 154.527 165.794 157.797 L 167.549 159.168 C 170.711 161.646 171.282 163.4 171.282 165.265 C 171.282 167.283 169.603 169.607 166.177 169.607 C 163.817 169.607 161.568 168.577 160.724 165.759 C 160.537 165.112 160.383 164.311 160.383 163.817 C 160.383 163.511 160.349 163.17 160 163.17 C 159.693 163.17 159.582 163.587 159.54 164.158 C 159.506 164.771 159.352 167.053 159.352 169.148 C 159.352 169.982 159.463 170.178 160.076 170.442 C 161.712 171.166 163.434 171.43 165.641 171.43 C 167.66 171.43 169.799 171.089 171.699 169.871 C 174.443 168.083 175.286 165.452 175.286 163.247 C 175.286 159.628 173.65 156.997 169.032 153.531 Z" fill="currentColor" fill-rule="nonzero"></path>
  <path d="M 50.948 118.781 C 50.437 118.781 50.232 119.19 50.036 120.305 C 49.218 124.682 48.102 126.811 44.847 127.833 C 42.103 128.65 38.737 128.744 35.687 128.744 C 31.716 128.744 28.972 128.539 27.243 127.833 C 24.695 126.819 24.09 124.58 23.885 120.408 C 23.783 118.27 23.885 106.477 23.885 103.02 L 23.885 94.07 C 23.885 93.662 24.09 93.355 24.601 93.355 C 26.331 93.355 36.403 93.56 39.155 93.866 C 42.819 94.275 44.037 95.697 44.446 97.221 C 44.753 98.132 44.855 99.154 44.855 100.065 C 44.855 100.883 44.958 101.691 45.571 101.691 C 45.98 101.691 46.185 101.181 46.287 100.167 C 46.389 98.745 46.389 96.404 46.696 93.253 C 47.003 89.898 47.514 88.17 47.514 87.556 C 47.514 86.943 47.309 86.739 47.003 86.739 C 46.594 86.739 46.287 87.148 45.784 87.752 C 44.77 88.97 43.441 89.276 40.697 89.481 C 38.354 89.685 25.837 89.685 24.516 89.685 C 24.005 89.685 23.902 89.379 23.902 88.672 L 23.902 60.606 C 23.902 59.891 24.107 59.593 24.516 59.593 C 25.632 59.593 36.726 59.695 38.456 59.9 C 42.938 60.308 45.068 61.322 45.784 63.663 C 46.091 64.481 46.295 65.698 46.295 67.018 C 46.295 67.836 46.5 68.338 47.114 68.338 C 47.523 68.338 47.829 67.623 47.932 66.609 C 48.136 63.961 48.238 62.037 48.341 60.504 C 48.545 57.66 49.159 56.434 49.159 55.727 C 49.159 55.216 49.056 54.816 48.75 54.816 C 48.443 54.816 48.238 54.918 47.633 55.225 C 47.02 55.531 45.188 55.736 42.955 55.838 C 40.612 55.94 20.366 55.94 19.65 55.94 C 13.243 55.634 10.49 55.634 8.147 55.634 C 7.031 55.634 6.519 55.838 6.519 56.451 C 6.519 56.86 7.133 56.962 7.84 57.064 C 8.752 57.166 10.081 57.166 10.788 57.371 C 14.146 58.086 14.964 59.712 15.168 63.169 C 15.373 66.422 15.373 69.275 15.373 85.138 L 15.373 103.037 C 15.373 112.088 15.271 117.274 15.168 121.242 C 14.964 128.871 13.643 130.293 11.504 130.804 C 10.788 131.009 10.183 131.009 9.161 131.111 C 8.547 131.213 8.045 131.417 8.045 131.724 C 8.045 132.337 8.556 132.541 9.672 132.541 C 12.322 132.644 14.759 132.235 17.205 132.235 C 21.176 132.235 25.854 132.439 29.927 132.541 C 33.897 132.644 37.255 132.848 44.787 132.848 C 48.758 132.848 49.568 132.848 50.283 130.2 C 50.795 128.063 51.604 121.148 51.604 120.339 C 51.604 119.624 51.604 118.815 50.991 118.815 L 50.948 118.781 Z" fill="currentColor" fill-rule="nonzero"></path>
  <path d="M 101.392 131.332 C 101.963 131.332 102.278 131.205 102.278 130.89 C 102.278 130.506 101.835 130.447 101.264 130.447 C 98.989 130.447 92.726 125.27 88.56 121.736 C 91.338 118.33 94.814 111.944 94.814 106.835 C 94.814 106.204 94.627 105.702 93.681 105.574 C 90.145 105.191 87.614 105.132 86.097 105.132 C 85.594 105.132 85.083 105.259 85.083 105.574 C 85.083 105.889 85.654 105.957 86.344 106.077 C 87.162 106.204 88.236 106.332 88.935 107.022 C 89.88 107.967 90.136 109.168 90.136 110.113 C 90.136 113.962 88.679 118.194 86.915 120.595 C 84.896 118.892 77.116 111.629 74.969 109.287 C 68.399 102.151 64.982 98.047 64.982 93.117 C 64.982 87.182 69.217 84.84 73.009 84.84 C 75.727 84.84 77.815 85.973 79.331 87.616 C 80.848 89.191 81.291 91.09 81.291 92.981 C 81.291 93.926 81.351 94.181 81.675 94.181 C 81.998 94.181 82.177 93.798 82.373 92.665 C 82.629 91.022 82.748 88.178 82.748 85.845 C 82.748 84.959 82.689 84.585 81.359 83.955 C 79.783 83.197 76.997 82.694 74.278 82.694 C 65.809 82.694 60.687 89.328 60.687 94.317 C 60.687 97.161 61.318 99.75 63.661 103.028 C 58.736 105.932 54.118 110.862 54.118 118.245 C 54.118 123.737 58.412 132.201 69.473 132.201 C 78.829 132.201 83.694 127.151 85.143 125.695 C 90.767 130.183 91.747 131.196 93.17 131.315 C 95.198 131.486 97.72 131.315 101.384 131.315 L 101.392 131.332 Z M 71.756 128.744 C 64.675 128.744 59.307 123.183 59.307 115.29 C 59.307 110.241 61.327 106.826 64.616 104.68 C 66.388 107.269 70.555 111.816 72.199 113.587 C 73.844 115.358 80.039 121.48 83.575 124.452 C 81.428 126.666 77.636 128.744 71.756 128.744 Z" fill="currentColor" fill-rule="nonzero"></path>
  <path d="M 168.836 121.029 C 174.537 115.026 179.828 105.166 179.828 92.35 C 179.828 80.251 175.048 71.804 169.961 66.516 C 157.852 54.007 139.226 54.918 129.154 54.918 C 123.044 54.918 116.636 55.225 115.418 55.225 C 114.907 55.225 108.499 54.918 103.915 54.918 C 102.798 54.918 102.287 55.123 102.287 55.736 C 102.287 56.144 102.696 56.349 103.403 56.349 C 104.315 56.349 106.053 56.451 106.863 56.655 C 110.22 57.371 110.731 58.997 110.936 62.454 C 111.14 65.707 111.14 68.559 111.14 84.423 L 111.14 102.322 C 111.14 112.088 111.14 120.118 110.629 124.393 C 110.22 127.339 109.717 129.578 107.681 129.987 C 106.769 130.191 105.951 130.293 104.835 130.396 C 104.017 130.396 103.821 130.702 103.821 131.009 C 103.821 131.622 104.332 131.826 105.448 131.826 C 106.974 131.826 109.317 131.622 111.353 131.622 C 113.492 131.52 115.222 131.52 115.426 131.52 C 115.938 131.52 119.397 131.826 123.871 132.133 C 128.25 132.439 133.644 132.746 138.016 132.746 C 155.313 132.746 164.473 125.627 168.853 121.055 L 168.836 121.029 Z M 121.008 125.193 C 120.19 124.077 119.994 120.007 119.891 117.461 C 119.789 115.528 119.687 106.17 119.687 95.39 L 119.687 82.78 C 119.687 74.946 119.687 64.574 119.789 61.117 C 119.789 60.002 120.096 59.491 121.008 59.082 C 121.826 58.673 125.583 58.367 127.62 58.367 C 139.728 58.367 151.334 59.789 160.894 69.862 C 165.07 74.239 170.668 82.575 170.668 95.492 C 170.668 104.851 167.822 114.609 162.531 119.794 C 156.523 125.798 147.772 129.255 138.314 129.255 C 126.308 129.255 122.337 127.117 121.016 125.184 L 121.008 125.193 Z" fill="currentColor" fill-rule="nonzero"></path>
  <path d="M 105.881 0 C 109.839 7.222 119.236 8.995 125.481 14.177 C 129.495 17.509 130.717 19.161 132.947 24.035 C 133.483 25.22 134.293 26.535 134.457 27.858 C 135.997 27.825 137.544 27.829 139.1 27.876 C 155.453 27.949 170.705 37.546 179.546 50.136 C 181.64 52.928 183.481 55.74 185.276 58.735 C 183.069 56.029 180.857 53.526 178.455 51.072 C 173.197 44.782 167.196 40.604 160.711 37.994 C 158.825 41.905 156.066 43.684 153.292 45.464 C 150.941 46.974 148.581 48.492 146.745 51.315 C 146.785 50.4 146.815 49.556 146.84 48.767 C 147.049 42.546 147.141 39.844 151.942 35.424 C 133.905 31.898 113.289 37.574 94.756 42.601 C 93.348 42.973 91.952 43.34 90.559 43.706 C 90.26 46.65 88.64 51.979 87.329 54.057 C 84.93 57.843 81.219 60.286 77.521 62.721 C 74.253 64.871 70.997 67.018 68.668 70.074 C 68.539 70.248 68.428 70.523 68.317 70.806 C 68.148 71.227 67.971 71.674 67.703 71.836 C 67.426 71.225 67.414 70.166 67.407 69.317 C 67.403 69.098 67.403 68.896 67.394 68.716 C 67.244 64.448 67.379 60.408 68.922 56.347 C 70.202 52.979 72.581 49.883 75.447 47.515 C 50.329 52.025 24.44 39.941 7.54 23.005 C 4.995 20.702 2.501 18.357 0 16.016 C 2.818 17.964 5.617 19.941 8.432 21.878 C 15.109 26.877 22.278 31.179 29.738 34.479 C 24.63 27.526 24.943 21.861 26.817 13.693 C 27.241 17.105 28.608 18.634 30.8 21.084 C 30.849 21.139 30.899 21.195 30.948 21.25 C 31.503 21.871 32.074 22.484 32.645 23.101 C 35.032 25.677 37.449 28.278 38.864 31.522 C 39.602 33.193 39.809 34.967 40.016 36.727 C 40.08 37.279 40.144 37.829 40.225 38.375 C 53.367 42.326 67.088 42.933 80.383 38.665 C 84.562 37.511 88.622 36.399 92.828 35.29 C 103.83 32.481 115.028 29.508 126.629 28.345 C 126.166 28.203 125.76 28.079 125.523 27.998 C 122.816 27.055 120.254 25.77 117.88 24.161 L 117.872 24.153 C 111.467 19.795 107.8 12.873 106.698 5.345 C 106.437 3.567 106.218 1.772 105.881 0 Z" fill="currentColor" fill-rule="nonzero"></path>
</svg>