<svg xmlns="http://www.w3.org/2000/svg" width="21.519" height="21.519" viewBox="0 0 21.519 21.519" fill="none">
  <path d="M 10.25 1.5 C 9.101 1.5 7.963 1.726 6.902 2.166 C 5.84 2.606 4.875 3.25 4.063 4.063 C 3.25 4.875 2.606 5.84 2.166 6.902 C 1.726 7.963 1.5 9.101 1.5 10.25 C 1.5 11.399 1.726 12.537 2.166 13.598 C 2.606 14.66 3.25 15.625 4.063 16.437 C 4.875 17.25 5.84 17.894 6.902 18.334 C 7.963 18.774 9.101 19 10.25 19 C 12.571 19 14.796 18.078 16.437 16.437 C 18.078 14.796 19 12.571 19 10.25 C 19 7.929 18.078 5.704 16.437 4.063 C 14.796 2.422 12.571 1.5 10.25 1.5 Z M 0 10.25 C 0 4.59 4.59 0 10.25 0 C 15.91 0 20.5 4.59 20.5 10.25 C 20.5 12.81 19.561 15.152 18.009 16.948 L 21.28 20.22 C 21.354 20.289 21.413 20.371 21.454 20.463 C 21.495 20.555 21.517 20.655 21.519 20.755 C 21.52 20.856 21.502 20.956 21.464 21.05 C 21.426 21.143 21.37 21.228 21.299 21.299 C 21.228 21.37 21.143 21.426 21.05 21.464 C 20.956 21.502 20.856 21.52 20.755 21.519 C 20.655 21.517 20.555 21.495 20.463 21.454 C 20.371 21.413 20.289 21.354 20.22 21.28 L 16.948 18.009 C 15.089 19.62 12.71 20.505 10.25 20.5 C 4.59 20.5 0 15.91 0 10.25 Z" fill="currentColor" fill-rule="evenodd"></path>
</svg>